<svg xmlns="http://www.w3.org/2000/svg" xmlns:xlink="http://www.w3.org/1999/xlink" viewBox="0 0 492.29 508.04"><defs><style>.cls-1{isolation:isolate;}.cls-2{opacity:0.6;fill:url(#radial-gradient);}.cls-10,.cls-18,.cls-2,.cls-3,.cls-4,.cls-46,.cls-5,.cls-6,.cls-7,.cls-8,.cls-9{mix-blend-mode:multiply;}.cls-3{opacity:0.9;fill:url(#radial-gradient-2);}.cls-4,.cls-5{opacity:0.3;}.cls-4{fill:url(#radial-gradient-3);}.cls-5{fill:url(#radial-gradient-4);}.cls-6{opacity:0.8;fill:url(#radial-gradient-5);}.cls-7,.cls-8{opacity:0.7;}.cls-7{fill:url(#radial-gradient-6);}.cls-8{fill:url(#radial-gradient-7);}.cls-10,.cls-9{opacity:0.2;}.cls-9{fill:url(#radial-gradient-8);}.cls-10{fill:url(#radial-gradient-9);}.cls-11{fill:#3fe0c1;}.cls-12{fill:#0cc19e;}.cls-13{fill:#4defd0;}.cls-14{fill:#303030;}.cls-15{fill:#1e1e1e;}.cls-16{fill:#0d365e;}.cls-17{fill:#164072;}.cls-18{fill:#e2e2e2;}.cls-19{fill:url(#linear-gradient);}.cls-20{fill:#112f5b;}.cls-21{fill:#ffb30b;}.cls-22{fill:#f431a1;}.cls-23{fill:url(#linear-gradient-2);}.cls-24{fill:#70380f;}.cls-25{fill:#a0a0a0;}.cls-26{fill:#d6d6d6;}.cls-27{fill:url(#linear-gradient-3);}.cls-28{fill:#ffd00d;}.cls-29{fill:#fff;}.cls-30{fill:#efefef;}.cls-31{fill:url(#linear-gradient-4);}.cls-32{fill:#5145e5;}.cls-33{fill:#9fc6ff;}.cls-34{fill:#c16bd6;}.cls-35{fill:#e08bf2;}.cls-36{fill:#f1a1ff;}.cls-37{fill:#ff6c6c;}.cls-38{fill:#fc5656;}.cls-39{fill:#ffaeb4;}.cls-40{fill:#ff399c;}.cls-41{fill:#ff1f85;}.cls-42{fill:#ff80c6;}.cls-43{fill:#e8a50f;}.cls-44{fill:#f4cf31;}.cls-45{fill:#ffdd50;}.cls-46{fill:#d6eaf2;}.cls-47{fill:#c0efff;}.cls-48{fill:#55c3fe;}.cls-49{fill:#35afe5;}.cls-50{fill:#1cb3e8;}.cls-51{fill:#2d2d2d;}.cls-52{fill:url(#linear-gradient-5);}.cls-53{fill:#97dfff;}.cls-54{fill:#0b0059;}.cls-55{fill:#160470;}.cls-56{fill:#a56016;}.cls-57{fill:#935115;}.cls-58{fill:#bc610f;}.cls-59{fill:#c96411;}.cls-60{fill:#703306;}.cls-61{fill:url(#linear-gradient-6);}.cls-62{fill:#1c0687;}.cls-63{fill:url(#linear-gradient-7);}</style><radialGradient id="radial-gradient" cx="-693.17" cy="192.86" r="85.7" gradientTransform="matrix(-0.52, 0.51, 1.25, -0.57, -484.97, 890.69)" gradientUnits="userSpaceOnUse"><stop offset="0" stop-color="#8c8c8c"/><stop offset="0.15" stop-color="#989898" stop-opacity="0.9"/><stop offset="0.44" stop-color="#b6b6b6" stop-opacity="0.63"/><stop offset="0.83" stop-color="#e8e8e8" stop-opacity="0.2"/><stop offset="1" stop-color="#fff" stop-opacity="0"/></radialGradient><radialGradient id="radial-gradient-2" cx="-43.46" cy="422.7" r="85.71" gradientTransform="matrix(-0.87, 0.5, 0.87, 0.5, -172.91, 239.03)" xlink:href="#radial-gradient"/><radialGradient id="radial-gradient-3" cx="11.67" cy="419.83" r="61.79" gradientTransform="matrix(-0.87, 0.5, 0.87, 0.5, -172.91, 239.03)" xlink:href="#radial-gradient"/><radialGradient id="radial-gradient-4" cx="-32.02" cy="376.15" r="61.79" gradientTransform="matrix(-0.87, 0.5, 0.87, 0.5, -172.91, 239.03)" xlink:href="#radial-gradient"/><radialGradient id="radial-gradient-5" cx="-116.17" cy="471.21" r="85.71" gradientTransform="matrix(-0.87, 0.5, 0.87, 0.5, -172.91, 239.03)" xlink:href="#radial-gradient"/><radialGradient id="radial-gradient-6" cx="-166.6" cy="466.11" r="85.71" gradientTransform="matrix(-0.87, 0.5, 0.87, 0.5, -172.91, 239.03)" gradientUnits="userSpaceOnUse"><stop offset="0" stop-color="#8c8c8c"/><stop offset="0.34" stop-color="#b7b7b7" stop-opacity="0.63"/><stop offset="0.79" stop-color="#ebebeb" stop-opacity="0.18"/><stop offset="1" stop-color="#fff" stop-opacity="0"/></radialGradient><radialGradient id="radial-gradient-7" cx="-83.7" cy="441.73" r="85.71" xlink:href="#radial-gradient-6"/><radialGradient id="radial-gradient-8" cx="-311.56" cy="606.08" r="85.71" gradientTransform="matrix(-0.46, 0.55, 1.14, -0.32, -443.4, 784.66)" xlink:href="#radial-gradient"/><radialGradient id="radial-gradient-9" cx="-262.86" cy="551.92" r="85.71" gradientTransform="matrix(-0.46, 0.55, 1.14, -0.32, -443.4, 784.66)" xlink:href="#radial-gradient"/><linearGradient id="linear-gradient" x1="-57.08" y1="72.92" x2="-30.7" y2="72.92" gradientTransform="matrix(-1, 0, 0, 1, 283.6, 0)" gradientUnits="userSpaceOnUse"><stop offset="0" stop-color="#ffe2c4"/><stop offset="1" stop-color="#ffb870"/></linearGradient><linearGradient id="linear-gradient-2" x1="-34.92" y1="40.31" x2="-16.55" y2="40.31" xlink:href="#linear-gradient"/><linearGradient id="linear-gradient-3" x1="-44.15" y1="80.41" x2="-4.98" y2="80.41" xlink:href="#linear-gradient"/><linearGradient id="linear-gradient-4" x1="6.93" y1="373.73" x2="6.93" y2="28.13" gradientTransform="matrix(-1, 0, 0, 1, 283.93, -7.96)" gradientUnits="userSpaceOnUse"><stop offset="0" stop-color="#495ddb"/><stop offset="0.17" stop-color="#4962dc"/><stop offset="0.39" stop-color="#4972e0"/><stop offset="0.62" stop-color="#498be5"/><stop offset="0.88" stop-color="#49aeed"/><stop offset="1" stop-color="#49c2f2"/></linearGradient><linearGradient id="linear-gradient-5" x1="214.87" y1="255.31" x2="226.46" y2="255.31" gradientUnits="userSpaceOnUse"><stop offset="0" stop-color="#ffb870"/><stop offset="1" stop-color="#ffe2c4"/></linearGradient><linearGradient id="linear-gradient-6" x1="255.36" y1="229.72" x2="271.71" y2="229.72" gradientTransform="matrix(-1, 0, 0, 1, 501.17, 0)" xlink:href="#linear-gradient"/><linearGradient id="linear-gradient-7" x1="244.62" y1="283.53" x2="260.24" y2="283.53" xlink:href="#linear-gradient-5"/></defs><title>svg1</title><g class="cls-1"><g id="Layer_1" data-name="Layer 1"><path class="cls-3" d="M156.55,471.5c41,23.67,107.46,23.67,148.46,0s41-62,0-85.71-107.46-23.66-148.46,0S115.56,447.84,156.55,471.5Z" transform="translate(0.33 -7.96)"/><path class="cls-4" d="M127.05,485.67c29.55,17.06,77.47,17.06,107,0s29.55-44.72,0-61.79-77.47-17.06-107,0S97.5,468.61,127.05,485.67Z" transform="translate(0.33 -7.96)"/><path class="cls-5" d="M127.05,442c29.55,17.06,77.47,17.06,107,0s29.55-44.72,0-61.78-77.47-17.06-107,0S97.5,424.92,127.05,442Z" transform="translate(0.33 -7.96)"/><path class="cls-6" d="M261.53,459.4c41,23.67,107.46,23.67,148.45,0s41-62,0-85.71-107.46-23.67-148.45,0S220.53,435.73,261.53,459.4Z" transform="translate(0.33 -7.96)"/><path class="cls-7" d="M300.78,431.64c41,23.67,107.46,23.67,148.46,0s41-62,0-85.71-107.46-23.67-148.46,0S259.79,408,300.78,431.64Z" transform="translate(0.33 -7.96)"/><path class="cls-8" d="M207.89,460.9c41,23.66,107.46,23.66,148.45,0s41-62,0-85.71-107.46-23.67-148.45,0S166.89,437.23,207.89,460.9Z" transform="translate(0.33 -7.96)"/><path class="cls-9" d="M347.87,464.09c53.74-15.33,114.84-48.87,136.47-74.92s-4.4-34.73-58.14-19.39-114.84,48.87-136.47,74.91S294.13,479.42,347.87,464.09Z" transform="translate(0.33 -7.96)"/><path class="cls-10" d="M264.14,508.43C317.88,493.1,379,459.55,400.61,433.51s-4.41-34.73-58.15-19.4S227.62,463,206,489,210.4,523.76,264.14,508.43Z" transform="translate(0.33 -7.96)"/><polygon class="cls-11" points="319.86 304.46 352.32 285.71 352.32 92.9 319.86 111.64 319.86 304.46"/><polygon class="cls-12" points="287.39 285.71 319.87 304.46 319.87 111.64 287.4 92.9 287.39 285.71"/><polygon class="cls-13" points="319.86 111.64 352.33 92.9 319.86 74.15 287.38 92.9 319.86 111.64"/><path class="cls-14" d="M320.89,115.33a22.13,22.13,0,0,0-8.26,10.44c-2.76.23-5-3.51-3.81-5.51s5.15-8,5.15-8Z" transform="translate(0.33 -7.96)"/><path class="cls-15" d="M314,112.29l6.92,3a15,15,0,0,0-1.27.93l-3-1.3s-4,6-5.15,8a3.13,3.13,0,0,0,0,2.68c-2.17-.69-3.64-3.64-2.65-5.35C310,118.25,314,112.29,314,112.29Z" transform="translate(0.33 -7.96)"/><path class="cls-14" d="M347.52,89.4s5.76-2.12,8.67,0c1.64,1.19-1,4.55-8.67,4.66C343.93,92.86,347.52,89.4,347.52,89.4Z" transform="translate(0.33 -7.96)"/><path class="cls-16" d="M328.11,92.87l8.37,1.34s0,.76-11.67,12.74c-7.81,5.53-6.7,10.77-6.7,10.77s15.44-8.2,25.17-17.32,2.76-13.56-.87-13.1-13.81-.82-13.81-.82Z" transform="translate(0.33 -7.96)"/><path class="cls-17" d="M300,110.91s5.47,7.36,9.32,9.37,12.39-4,17.87-11.67,8.38-13.74,11.76-13.07S348,94,348,94s-.33-4.19-5.54-3.83S330,95.49,330,95.49s-10.56,5.74-13.39,9.11-1.65,3.19-1.65,3.19L311,101Z" transform="translate(0.33 -7.96)"/><path class="cls-18" d="M336.52,86a2.74,2.74,0,0,0,1-1l-2.07,1.15A10.06,10.06,0,0,0,336.52,86Z" transform="translate(0.33 -7.96)"/><path class="cls-19" d="M340.65,80.06c-6.53,2.28-17.08-13.07-19.07-14.73-.95-.79-1.22-2.17-1.27-3.88h-4.87c1.24,5.24,3.12,10.32,3.81,11.26,1.27,1.74,15.88,15.87,19.39,10.45C336.45,82,341.08,82.6,340.65,80.06Z" transform="translate(0.33 -7.96)"/><path class="cls-20" d="M338.92,83.87c-5.19-7.32-16.82-4.1-16.82-4.1L301.05,80s.18,11,9.87,13.34c8.19,2,17.54,1.07,20,2.2C331,91,334.59,81.92,338.92,83.87Z" transform="translate(0.33 -7.96)"/><path class="cls-17" d="M314.68,105.87c-.44-4.83-1-9.58.17-11.77,1-1.88-.55-8.51-.55-8.51l-22.84.89s-2.34,2.47.64,12c.61,1.94,9.52,15.54,11.46,16.7C302.85,110.8,309.33,104.63,314.68,105.87Z" transform="translate(0.33 -7.96)"/><path class="cls-21" d="M321.25,84.39s3.26-36.46-6.73-40.29-19.15,5.28-23.06,14.1-2.52,27.88-2.55,32C302.62,99.6,321.64,88.92,321.25,84.39Z" transform="translate(0.33 -7.96)"/><polygon class="cls-22" points="312.36 43.03 311.21 47.16 313.35 48.85 312.28 69.57 316.49 72.45 318.39 66.44 315.52 48.37 316.32 45.4 313.91 43.03 312.36 43.03"/><path class="cls-23" d="M317.33,29.51s2.49,4,.26,12.65c-1.82,7-2,9-5,9.29s-9.25-1.68-10.12-7.24c-.87-.19-3.34-3.53-1.93-6.19s2.39.25,2.39.25-.05-5.8,4-7.91S317.33,29.51,317.33,29.51Z" transform="translate(0.33 -7.96)"/><path class="cls-24" d="M307.7,36.47c0-.34,3.13,4.1,8.13,2.66a3.08,3.08,0,0,1-2.12-1.73,4.42,4.42,0,0,0,4.55,1.48,6.67,6.67,0,0,1-1.82-1.05,5,5,0,0,0,3.73.27c-1.15-.49-1-1.25-1-1.25s1,1,3-.71c-.81-.1-.72-3.8-3.63-6.45s-5.93-5.3-9.82-4.64c.95-1,.81-1.22,2.19-1-1.56-.86-5-.18-5.95,1.25-3-1.16-6.78,3.43-4.9,14.45,0-.28.29-2.07,1.36-2.41s2,1.76,1.72,2.29a24.18,24.18,0,0,0-.36,3.68l1.39.72s-.43-2.73.55-3.56S307.52,40.66,307.7,36.47Z" transform="translate(0.33 -7.96)"/><polygon class="cls-25" points="318.78 103.28 351.62 84.31 351.62 82.92 298.66 90.26 298.66 91.66 318.78 103.28"/><polygon class="cls-26" points="318.78 101.88 351.62 82.92 331.5 71.3 298.66 90.26 318.78 101.88"/><path class="cls-27" d="M327.3,92.58c-1.4-.1-3,.24-5.42.28s-2.35-1.33-2.45-3.3c-.77.57-1.24,2.11-2.48,3s-1.84,0-1.84,0l-.26.2C306,91.21,298,84.25,296.64,82.15s.58-11.08.92-17c0,0-1.34-5.25-6.08-2.58s-2.26,21.87-2.26,24,17.58,9.91,25.88,10.67A11.46,11.46,0,0,0,319.88,99C327,98.82,328.68,92.67,327.3,92.58Z" transform="translate(0.33 -7.96)"/><path class="cls-28" d="M299.47,57.17s-.43-6.73-5.16-4.05c-2.43,1.38-5.61,9.62-6.8,16.79,2.78,2.09,6.67,1.7,9.81,2.31C298.48,70.35,300,63.39,299.47,57.17Z" transform="translate(0.33 -7.96)"/><polygon class="cls-29" points="351.62 59.69 318.78 101.88 317.71 101.31 317.71 78.08 350.55 59.12 351.62 59.69"/><polygon class="cls-30" points="351.62 82.92 318.78 101.88 318.78 78.64 351.62 59.69 351.62 82.92"/><polygon class="cls-31" points="259.54 365.77 294.46 345.61 294.46 20.17 259.54 40.32 259.54 365.77"/><polygon class="cls-32" points="224.63 345.61 259.56 365.77 259.56 40.32 224.64 20.17 224.63 345.61"/><polygon class="cls-33" points="259.55 40.34 294.47 20.17 259.55 0 224.62 20.17 259.55 40.34"/><polygon class="cls-34" points="275.77 408.58 308.25 389.84 308.25 219.09 275.77 237.84 275.77 408.58"/><polygon class="cls-35" points="243.31 389.84 275.78 408.58 275.78 237.84 243.31 219.09 243.31 389.84"/><polygon class="cls-36" points="275.77 237.85 308.25 219.09 275.78 200.35 243.3 219.09 275.77 237.85"/><polygon class="cls-37" points="354.89 393.64 387.37 374.88 387.37 150.69 354.89 169.44 354.89 393.64"/><polygon class="cls-38" points="322.43 374.88 354.9 393.64 354.9 169.44 322.43 150.69 322.43 374.88"/><polygon class="cls-39" points="354.89 169.44 387.37 150.69 354.89 131.93 322.42 150.69 354.89 169.44"/><polygon class="cls-40" points="330.72 437.59 363.19 418.84 363.19 293.96 330.72 312.69 330.72 437.59"/><polygon class="cls-41" points="298.27 418.84 330.73 437.59 330.73 312.69 298.27 293.96 298.27 418.84"/><polygon class="cls-42" points="330.73 312.7 363.21 293.96 330.73 275.2 298.26 293.96 330.73 312.7"/><path class="cls-43" d="M175.72,406.36c13.25,7.64,34.72,7.64,48,0s13.25-20.05,0-27.7-34.71-7.65-48,0S162.48,398.71,175.72,406.36Z" transform="translate(0.33 -7.96)"/><path class="cls-44" d="M175.72,401.58c13.25,7.64,34.72,7.64,48,0s13.25-20,0-27.69-34.71-7.64-48,0S162.48,393.94,175.72,401.58Z" transform="translate(0.33 -7.96)"/><path class="cls-43" d="M178.8,400.2c-5.71-3.3-8.86-7.72-8.86-12.46s3.15-9.17,8.86-12.47,13-5,20.91-5,15.3,1.78,20.89,5,8.86,7.73,8.86,12.47-3.14,9.16-8.86,12.46-13,5-20.9,5S184.4,403.43,178.8,400.2Zm.69-23.74c-5.27,3-8.17,7.05-8.17,11.28s2.9,8.23,8.17,11.27,12.57,4.82,20.21,4.82,14.83-1.71,20.22-4.82,8.17-7.05,8.17-11.27-2.9-8.24-8.17-11.28-12.57-4.82-20.21-4.82S184.88,373.35,179.49,376.46Z" transform="translate(0.33 -7.96)"/><path class="cls-43" d="M217.38,395.94l-4.3-2.48c-5,2.08-10.33,1.62-13.6-.27-3.67-2.11-3.64-4.58-1.12-8,2.07-3,2.53-4.46.38-5.7a8.16,8.16,0,0,0-7.94.48,8.29,8.29,0,0,0-3.8,3.86l-3.68-1c.41-1.1,1.45-2.46,3.84-3.94l-4-2.31,2.6-1.51,4.13,2.39c4.43-1.79,9.51-1.72,12.94.26,3.6,2.08,2.85,4.7.29,8.09-1.82,2.48-2,4.23.29,5.56s6,1.17,9-.55a8.62,8.62,0,0,0,4.09-4.46l3.8,1c-.41,1.44-2.15,3.3-4.5,4.71l4.17,2.41Z" transform="translate(0.33 -7.96)"/><path class="cls-43" d="M175.72,400.06c13.25,7.65,34.72,7.65,48,0s13.25-20,0-27.69-34.71-7.65-48,0S162.48,392.42,175.72,400.06Z" transform="translate(0.33 -7.96)"/><path class="cls-44" d="M175.72,395.29c13.25,7.65,34.72,7.65,48,0s13.25-20.05,0-27.69-34.71-7.65-48,0S162.48,387.64,175.72,395.29Z" transform="translate(0.33 -7.96)"/><path class="cls-43" d="M178.8,393.91c-5.71-3.3-8.86-7.73-8.86-12.47s3.15-9.16,8.86-12.46,13-5,20.91-5,15.3,1.78,20.89,5,8.86,7.72,8.86,12.46-3.14,9.17-8.86,12.47-13,5-20.9,5S184.4,397.14,178.8,393.91Zm.69-23.74c-5.27,3-8.17,7-8.17,11.27s2.9,8.24,8.17,11.28,12.57,4.82,20.21,4.82,14.83-1.71,20.22-4.82,8.17-7.05,8.17-11.28-2.9-8.23-8.17-11.27-12.57-4.82-20.21-4.82S184.88,367.06,179.49,370.17Z" transform="translate(0.33 -7.96)"/><path class="cls-43" d="M217.38,389.65l-4.3-2.49c-5,2.08-10.33,1.63-13.6-.26-3.67-2.12-3.64-4.58-1.12-8,2.07-3,2.53-4.46.38-5.7a8.13,8.13,0,0,0-7.94.47,8.29,8.29,0,0,0-3.8,3.87l-3.68-1c.41-1.09,1.45-2.46,3.84-3.93l-4-2.32,2.6-1.5,4.13,2.38c4.43-1.79,9.51-1.71,12.94.26,3.6,2.09,2.85,4.71.29,8.09-1.82,2.49-2,4.23.29,5.57s6,1.17,9-.55a8.66,8.66,0,0,0,4.09-4.46l3.8,1c-.41,1.44-2.15,3.3-4.5,4.71l4.17,2.41Z" transform="translate(0.33 -7.96)"/><path class="cls-43" d="M175.72,393.77c13.25,7.64,34.72,7.64,48,0s13.25-20,0-27.7-34.71-7.64-48,0S162.48,386.12,175.72,393.77Z" transform="translate(0.33 -7.96)"/><path class="cls-44" d="M175.72,389c13.25,7.64,34.72,7.64,48,0s13.25-20.05,0-27.7-34.71-7.64-48,0S162.48,381.35,175.72,389Z" transform="translate(0.33 -7.96)"/><path class="cls-43" d="M178.8,387.61c-5.71-3.3-8.86-7.72-8.86-12.46s3.15-9.17,8.86-12.47,13-5,20.91-5,15.3,1.77,20.89,5,8.86,7.73,8.86,12.47-3.14,9.16-8.86,12.46-13,5-20.9,5S184.4,390.84,178.8,387.61Zm.69-23.74c-5.27,3.05-8.17,7.05-8.17,11.28s2.9,8.23,8.17,11.28,12.57,4.81,20.21,4.81,14.83-1.71,20.22-4.81,8.17-7.05,8.17-11.28-2.9-8.23-8.17-11.28-12.57-4.82-20.21-4.82S184.88,360.76,179.49,363.87Z" transform="translate(0.33 -7.96)"/><path class="cls-43" d="M217.38,383.35l-4.3-2.48c-5,2.07-10.33,1.62-13.6-.26-3.67-2.13-3.64-4.58-1.12-8,2.07-3,2.53-4.46.38-5.71a8.16,8.16,0,0,0-7.94.48,8.25,8.25,0,0,0-3.8,3.87l-3.68-1c.41-1.1,1.45-2.46,3.84-3.94l-4-2.31,2.6-1.51,4.13,2.39c4.43-1.79,9.51-1.72,12.94.26,3.6,2.08,2.85,4.71.29,8.09-1.82,2.48-2,4.23.29,5.56s6,1.17,9-.55a8.62,8.62,0,0,0,4.09-4.46l3.8,1.05c-.41,1.43-2.15,3.29-4.5,4.7l4.17,2.41Z" transform="translate(0.33 -7.96)"/><path class="cls-43" d="M175.72,387.47c13.25,7.65,34.72,7.65,48,0s13.25-20,0-27.68-34.71-7.65-48,0S162.48,379.83,175.72,387.47Z" transform="translate(0.33 -7.96)"/><path class="cls-44" d="M175.72,382.7c13.25,7.65,34.72,7.65,48,0s13.25-20,0-27.69-34.71-7.64-48,0S162.48,375.06,175.72,382.7Z" transform="translate(0.33 -7.96)"/><path class="cls-43" d="M178.8,381.32c-5.71-3.3-8.86-7.73-8.86-12.47s3.15-9.16,8.86-12.46,13-5,20.91-5,15.3,1.78,20.89,5,8.86,7.72,8.86,12.46-3.14,9.17-8.86,12.47-13,5-20.9,5S184.4,384.55,178.8,381.32Zm.69-23.74c-5.27,3-8.17,7.05-8.17,11.27s2.9,8.24,8.17,11.28S192.06,385,199.7,385s14.83-1.72,20.22-4.83,8.17-7,8.17-11.28-2.9-8.23-8.17-11.27-12.57-4.82-20.21-4.82S184.88,354.47,179.49,357.58Z" transform="translate(0.33 -7.96)"/><path class="cls-43" d="M217.38,377.06l-4.3-2.48c-5,2.07-10.33,1.62-13.6-.26-3.67-2.13-3.64-4.59-1.12-8.05,2.07-3,2.53-4.46.38-5.7a8.14,8.14,0,0,0-7.94.48,8.29,8.29,0,0,0-3.8,3.86l-3.68-1c.41-1.1,1.45-2.46,3.84-3.94l-4-2.32,2.6-1.5,4.13,2.39c4.43-1.79,9.51-1.72,12.94.26,3.6,2.08,2.85,4.7.29,8.09-1.82,2.48-2,4.22.29,5.56s6,1.16,9-.55a8.66,8.66,0,0,0,4.09-4.46l3.8,1.05c-.41,1.43-2.15,3.29-4.5,4.69l4.17,2.42Z" transform="translate(0.33 -7.96)"/><path class="cls-43" d="M175.72,381.18c13.25,7.64,34.72,7.64,48,0s13.25-20,0-27.69-34.71-7.65-48,0S162.48,373.53,175.72,381.18Z" transform="translate(0.33 -7.96)"/><path class="cls-44" d="M175.72,376.41c13.25,7.64,34.72,7.64,48,0s13.25-20.05,0-27.7-34.71-7.64-48,0S162.48,368.76,175.72,376.41Z" transform="translate(0.33 -7.96)"/><path class="cls-43" d="M178.8,375c-5.71-3.29-8.86-7.72-8.86-12.46s3.15-9.17,8.86-12.46,13-5,20.91-5,15.3,1.78,20.89,5,8.86,7.72,8.86,12.46-3.14,9.17-8.86,12.46-13,5-20.9,5S184.4,378.25,178.8,375Zm.69-23.74c-5.27,3.05-8.17,7.05-8.17,11.28s2.9,8.23,8.17,11.28,12.57,4.82,20.21,4.82,14.83-1.72,20.22-4.82,8.17-7,8.17-11.28-2.9-8.23-8.17-11.28-12.57-4.82-20.21-4.82S184.88,348.18,179.49,351.28Z" transform="translate(0.33 -7.96)"/><path class="cls-43" d="M217.38,370.77l-4.3-2.49c-5,2.08-10.33,1.62-13.6-.26-3.67-2.12-3.64-4.58-1.12-8,2.07-3,2.53-4.46.38-5.71a8.16,8.16,0,0,0-7.94.48,8.25,8.25,0,0,0-3.8,3.87l-3.68-1c.41-1.09,1.45-2.45,3.84-3.94l-4-2.31,2.6-1.5,4.13,2.39c4.43-1.8,9.51-1.73,12.94.26,3.6,2.07,2.85,4.7.29,8.09-1.82,2.47-2,4.22.29,5.56s6,1.17,9-.56a8.62,8.62,0,0,0,4.09-4.46l3.8,1.05c-.41,1.44-2.15,3.3-4.5,4.7l4.17,2.41Z" transform="translate(0.33 -7.96)"/><path class="cls-43" d="M175.72,374.88c13.25,7.65,34.72,7.65,48,0s13.25-20,0-27.69-34.71-7.64-48,0S162.48,367.24,175.72,374.88Z" transform="translate(0.33 -7.96)"/><path class="cls-44" d="M175.72,370.11c13.25,7.65,34.72,7.65,48,0s13.25-20,0-27.69-34.71-7.64-48,0S162.48,362.47,175.72,370.11Z" transform="translate(0.33 -7.96)"/><path class="cls-43" d="M178.8,368.73c-5.71-3.3-8.86-7.72-8.86-12.46s3.15-9.17,8.86-12.47,13-5,20.91-5,15.3,1.78,20.89,5,8.86,7.73,8.86,12.47-3.14,9.16-8.86,12.46-13,5-20.9,5S184.4,372,178.8,368.73Zm.69-23.74c-5.27,3-8.17,7.05-8.17,11.28s2.9,8.23,8.17,11.27,12.57,4.83,20.21,4.83,14.83-1.72,20.22-4.83,8.17-7.05,8.17-11.27-2.9-8.24-8.17-11.28-12.57-4.83-20.21-4.83S184.88,341.88,179.49,345Z" transform="translate(0.33 -7.96)"/><path class="cls-43" d="M217.38,364.47l-4.3-2.48c-5,2.08-10.33,1.62-13.6-.27-3.67-2.12-3.64-4.58-1.12-8,2.07-3,2.53-4.47.38-5.71a8.14,8.14,0,0,0-7.94.48,8.29,8.29,0,0,0-3.8,3.86l-3.68-1c.41-1.1,1.45-2.46,3.84-3.94l-4-2.31,2.6-1.51,4.13,2.39c4.43-1.79,9.51-1.72,12.94.26,3.6,2.08,2.85,4.7.29,8.09-1.82,2.48-2,4.22.29,5.56s6,1.17,9-.55a8.66,8.66,0,0,0,4.09-4.46l3.8,1.05c-.41,1.43-2.15,3.29-4.5,4.7l4.17,2.41Z" transform="translate(0.33 -7.96)"/><path class="cls-43" d="M175.72,368.59c13.25,7.65,34.72,7.65,48,0s13.25-20,0-27.69-34.71-7.65-48,0S162.48,360.94,175.72,368.59Z" transform="translate(0.33 -7.96)"/><path class="cls-44" d="M175.72,363.82c13.25,7.64,34.72,7.64,48,0s13.25-20.05,0-27.69-34.71-7.65-48,0S162.48,356.17,175.72,363.82Z" transform="translate(0.33 -7.96)"/><path class="cls-43" d="M178.8,362.44c-5.71-3.3-8.86-7.73-8.86-12.47s3.15-9.17,8.86-12.46,13-5,20.91-5,15.3,1.78,20.89,5,8.86,7.72,8.86,12.46-3.14,9.17-8.86,12.47-13,5-20.9,5S184.4,365.67,178.8,362.44Zm.69-23.74c-5.27,3-8.17,7-8.17,11.27s2.9,8.23,8.17,11.28,12.57,4.82,20.21,4.82,14.83-1.71,20.22-4.82,8.17-7.05,8.17-11.28-2.9-8.23-8.17-11.27-12.57-4.83-20.21-4.83S184.88,335.58,179.49,338.7Z" transform="translate(0.33 -7.96)"/><path class="cls-43" d="M217.38,358.18l-4.3-2.49c-5,2.08-10.33,1.63-13.6-.26-3.67-2.12-3.64-4.58-1.12-8,2.07-3,2.53-4.46.38-5.7a8.16,8.16,0,0,0-7.94.47A8.29,8.29,0,0,0,187,346l-3.68-1c.41-1.09,1.45-2.45,3.84-3.94l-4-2.31,2.6-1.51,4.13,2.39c4.43-1.78,9.51-1.71,12.94.27,3.6,2.08,2.85,4.7.29,8.09-1.82,2.48-2,4.22.29,5.56s6,1.16,9-.55a8.69,8.69,0,0,0,4.09-4.46l3.8,1c-.41,1.44-2.15,3.3-4.5,4.71l4.17,2.4Z" transform="translate(0.33 -7.96)"/><path class="cls-43" d="M175.72,362.3c13.25,7.64,34.72,7.64,48,0s13.25-20.05,0-27.69-34.71-7.65-48,0S162.48,354.65,175.72,362.3Z" transform="translate(0.33 -7.96)"/><path class="cls-44" d="M175.72,357.53c13.25,7.64,34.72,7.64,48,0s13.25-20,0-27.7-34.71-7.64-48,0S162.48,349.88,175.72,357.53Z" transform="translate(0.33 -7.96)"/><path class="cls-43" d="M178.8,356.14c-5.71-3.29-8.86-7.72-8.86-12.46s3.15-9.17,8.86-12.46,13-5,20.91-5,15.3,1.78,20.89,5,8.86,7.72,8.86,12.46-3.14,9.17-8.86,12.46-13,5-20.9,5S184.4,359.37,178.8,356.14Zm.69-23.73c-5.27,3-8.17,7-8.17,11.27s2.9,8.23,8.17,11.28,12.57,4.82,20.21,4.82,14.83-1.72,20.22-4.82,8.17-7,8.17-11.28-2.9-8.23-8.17-11.27-12.57-4.83-20.21-4.83S184.88,329.3,179.49,332.41Z" transform="translate(0.33 -7.96)"/><path class="cls-43" d="M217.38,351.88l-4.3-2.48c-5,2.07-10.33,1.63-13.6-.26-3.67-2.13-3.64-4.59-1.12-8.05,2.07-2.95,2.53-4.46.38-5.7a8.16,8.16,0,0,0-7.94.48,8.25,8.25,0,0,0-3.8,3.87l-3.68-1c.41-1.1,1.45-2.46,3.84-3.94l-4-2.32,2.6-1.5,4.13,2.39c4.43-1.79,9.51-1.72,12.94.26,3.6,2.08,2.85,4.71.29,8.09-1.82,2.48-2,4.23.29,5.56s6,1.17,9-.55a8.62,8.62,0,0,0,4.09-4.46l3.8,1.05c-.41,1.43-2.15,3.29-4.5,4.7l4.17,2.41Z" transform="translate(0.33 -7.96)"/><path class="cls-43" d="M175.72,356c13.25,7.65,34.72,7.65,48,0s13.25-20,0-27.69-34.71-7.65-48,0S162.48,348.36,175.72,356Z" transform="translate(0.33 -7.96)"/><path class="cls-44" d="M175.72,351.23c13.25,7.64,34.72,7.64,48,0s13.25-20.05,0-27.69-34.71-7.65-48,0S162.48,343.58,175.72,351.23Z" transform="translate(0.33 -7.96)"/><path class="cls-43" d="M178.8,349.85c-5.71-3.3-8.86-7.73-8.86-12.47s3.15-9.17,8.86-12.46,13-5,20.91-5,15.3,1.78,20.89,5,8.86,7.72,8.86,12.46-3.14,9.17-8.86,12.47-13,5-20.9,5S184.4,353.08,178.8,349.85Zm.69-23.74c-5.27,3-8.17,7-8.17,11.27s2.9,8.24,8.17,11.28,12.57,4.82,20.21,4.82,14.83-1.71,20.22-4.82,8.17-7.05,8.17-11.28-2.9-8.23-8.17-11.27-12.57-4.82-20.21-4.82S184.88,323,179.49,326.11Z" transform="translate(0.33 -7.96)"/><path class="cls-43" d="M217.38,345.59l-4.3-2.49c-5,2.08-10.33,1.63-13.6-.26-3.67-2.12-3.64-4.58-1.12-8,2.07-3,2.53-4.46.38-5.7a8.14,8.14,0,0,0-7.94.48,8.29,8.29,0,0,0-3.8,3.86l-3.68-1c.41-1.1,1.45-2.46,3.84-3.94l-4-2.32,2.6-1.5,4.13,2.39c4.43-1.79,9.51-1.72,12.94.26,3.6,2.08,2.85,4.7.29,8.08-1.82,2.49-2,4.23.29,5.57s6,1.17,9-.55a8.67,8.67,0,0,0,4.09-4.47l3.8,1.05c-.41,1.44-2.15,3.3-4.5,4.71l4.17,2.41Z" transform="translate(0.33 -7.96)"/><path class="cls-43" d="M175.72,349.71c13.25,7.64,34.72,7.64,48,0s13.25-20,0-27.69-34.71-7.65-48,0S162.48,342.06,175.72,349.71Z" transform="translate(0.33 -7.96)"/><path class="cls-44" d="M175.72,344.94c13.25,7.64,34.72,7.64,48,0s13.25-20.05,0-27.7-34.71-7.64-48,0S162.48,337.29,175.72,344.94Z" transform="translate(0.33 -7.96)"/><path class="cls-43" d="M178.8,343.55c-5.71-3.3-8.86-7.72-8.86-12.46s3.15-9.17,8.86-12.47,13-5,20.91-5,15.3,1.77,20.89,5,8.86,7.73,8.86,12.47-3.14,9.16-8.86,12.46-13,5-20.9,5S184.4,346.79,178.8,343.55Zm.69-23.74c-5.27,3.05-8.17,7.05-8.17,11.28s2.9,8.24,8.17,11.28,12.57,4.82,20.21,4.82,14.83-1.71,20.22-4.82,8.17-7.05,8.17-11.28-2.9-8.23-8.17-11.28S207.35,315,199.71,315,184.88,316.71,179.49,319.81Z" transform="translate(0.33 -7.96)"/><path class="cls-43" d="M217.38,339.29l-4.3-2.48c-5,2.07-10.33,1.63-13.6-.26-3.67-2.12-3.64-4.58-1.12-8,2.07-3,2.53-4.46.38-5.71a8.16,8.16,0,0,0-7.94.48,8.25,8.25,0,0,0-3.8,3.87l-3.68-1c.41-1.1,1.45-2.46,3.84-3.93l-4-2.32,2.6-1.5,4.13,2.38c4.43-1.79,9.51-1.72,12.94.26,3.6,2.08,2.85,4.71.29,8.09-1.82,2.49-2,4.23.29,5.56s6,1.18,9-.55a8.66,8.66,0,0,0,4.09-4.46l3.8,1.05c-.41,1.44-2.15,3.29-4.5,4.7l4.17,2.41Z" transform="translate(0.33 -7.96)"/><path class="cls-43" d="M175.72,343.41c13.25,7.65,34.72,7.65,48,0s13.25-20,0-27.69-34.71-7.64-48,0S162.48,335.76,175.72,343.41Z" transform="translate(0.33 -7.96)"/><path class="cls-44" d="M175.72,338.64c13.25,7.65,34.72,7.65,48,0s13.25-20.05,0-27.69-34.71-7.65-48,0S162.48,331,175.72,338.64Z" transform="translate(0.33 -7.96)"/><path class="cls-43" d="M178.8,337.26c-5.71-3.3-8.86-7.72-8.86-12.46s3.15-9.17,8.86-12.47,13-5,20.91-5,15.3,1.78,20.89,5,8.86,7.72,8.86,12.47-3.14,9.16-8.86,12.46-13,5-20.9,5S184.4,340.49,178.8,337.26Zm.69-23.74c-5.27,3-8.17,7.05-8.17,11.28s2.9,8.23,8.17,11.27,12.57,4.83,20.21,4.83,14.83-1.72,20.22-4.83,8.17-7.05,8.17-11.27-2.9-8.24-8.17-11.28-12.57-4.82-20.21-4.82S184.88,310.41,179.49,313.52Z" transform="translate(0.33 -7.96)"/><path class="cls-43" d="M217.38,333l-4.3-2.48c-5,2.07-10.33,1.62-13.6-.27-3.67-2.12-3.64-4.58-1.12-8,2.07-3,2.53-4.47.38-5.71a8.16,8.16,0,0,0-7.94.48,8.29,8.29,0,0,0-3.8,3.86l-3.68-1c.41-1.1,1.45-2.46,3.84-3.94l-4-2.32,2.6-1.5,4.13,2.39c4.43-1.79,9.51-1.72,12.94.26,3.6,2.08,2.85,4.7.29,8.09-1.82,2.48-2,4.23.29,5.56s6,1.17,9-.55a8.66,8.66,0,0,0,4.09-4.46l3.8,1.05c-.41,1.43-2.15,3.29-4.5,4.69l4.17,2.42Z" transform="translate(0.33 -7.96)"/><path class="cls-43" d="M175.72,337.12c13.25,7.64,34.72,7.64,48,0s13.25-20,0-27.69-34.71-7.64-48,0S162.48,329.47,175.72,337.12Z" transform="translate(0.33 -7.96)"/><path class="cls-45" d="M175.72,332.35c13.25,7.65,34.72,7.65,48,0s13.25-20.05,0-27.69-34.71-7.65-48,0S162.48,324.7,175.72,332.35Z" transform="translate(0.33 -7.96)"/><path class="cls-43" d="M178.8,331c-5.71-3.3-8.86-7.73-8.86-12.47s3.15-9.16,8.86-12.46,13-5,20.91-5,15.3,1.78,20.89,5,8.86,7.72,8.86,12.46-3.14,9.17-8.86,12.47-13,5-20.9,5S184.4,334.2,178.8,331Zm.69-23.74c-5.27,3-8.17,7-8.17,11.27s2.9,8.24,8.17,11.28,12.57,4.82,20.21,4.82,14.83-1.71,20.22-4.82,8.17-7,8.17-11.28-2.9-8.23-8.17-11.27-12.57-4.83-20.21-4.83S184.88,304.12,179.49,307.23Z" transform="translate(0.33 -7.96)"/><path class="cls-43" d="M217.38,326.71l-4.3-2.48c-5,2.07-10.33,1.62-13.6-.26-3.67-2.13-3.64-4.59-1.12-8.05,2.07-3,2.53-4.46.38-5.71a8.19,8.19,0,0,0-7.94.48,8.33,8.33,0,0,0-3.8,3.86l-3.68-1c.41-1.09,1.45-2.45,3.84-3.93l-4-2.32,2.6-1.5,4.13,2.39c4.43-1.8,9.51-1.72,12.94.25,3.6,2.08,2.85,4.7.29,8.1-1.82,2.48-2,4.22.29,5.56s6,1.16,9-.55a8.64,8.64,0,0,0,4.09-4.47l3.8,1.06c-.41,1.43-2.15,3.29-4.5,4.69l4.17,2.42Z" transform="translate(0.33 -7.96)"/><path class="cls-43" d="M175.72,331.51c13.25,7.65,34.72,7.65,48,0s13.25-20,0-27.69-34.71-7.65-48,0S162.48,323.86,175.72,331.51Z" transform="translate(0.33 -7.96)"/><path class="cls-44" d="M175.72,326.74c13.25,7.64,34.72,7.64,48,0s13.25-20.05,0-27.69-34.71-7.65-48,0S162.48,319.09,175.72,326.74Z" transform="translate(0.33 -7.96)"/><path class="cls-43" d="M178.8,325.36c-5.71-3.3-8.86-7.73-8.86-12.47s3.15-9.16,8.86-12.46,13-5,20.91-5,15.3,1.78,20.89,5,8.86,7.73,8.86,12.46-3.14,9.17-8.86,12.47-13,5-20.9,5S184.4,328.59,178.8,325.36Zm.69-23.74c-5.27,3-8.17,7.05-8.17,11.27s2.9,8.24,8.17,11.28S192.06,329,199.7,329s14.83-1.71,20.22-4.82,8.17-7.05,8.17-11.28-2.9-8.23-8.17-11.27-12.57-4.83-20.21-4.83S184.88,298.51,179.49,301.62Z" transform="translate(0.33 -7.96)"/><path class="cls-43" d="M217.38,321.09l-4.3-2.47c-5,2.07-10.33,1.62-13.6-.27-3.67-2.12-3.64-4.58-1.12-8,2.07-3,2.53-4.46.38-5.7a8.14,8.14,0,0,0-7.94.48A8.24,8.24,0,0,0,187,309l-3.68-1c.41-1.1,1.45-2.46,3.84-3.94l-4-2.31,2.6-1.51,4.13,2.39c4.43-1.79,9.51-1.72,12.94.26,3.6,2.08,2.85,4.7.29,8.09-1.82,2.48-2,4.22.29,5.56s6,1.16,9-.55a8.62,8.62,0,0,0,4.09-4.46l3.8,1c-.41,1.44-2.15,3.3-4.5,4.71l4.17,2.4Z" transform="translate(0.33 -7.96)"/><path class="cls-43" d="M175.72,325.22c13.25,7.65,34.72,7.65,48,0s13.25-20.05,0-27.69-34.71-7.65-48,0S162.48,317.57,175.72,325.22Z" transform="translate(0.33 -7.96)"/><path class="cls-44" d="M175.72,320.45c13.25,7.65,34.72,7.65,48,0s13.25-20.05,0-27.7-34.71-7.64-48,0S162.48,312.8,175.72,320.45Z" transform="translate(0.33 -7.96)"/><path class="cls-43" d="M178.8,319.06c-5.71-3.29-8.86-7.72-8.86-12.46s3.15-9.17,8.86-12.46,13-5,20.91-5,15.3,1.78,20.89,5,8.86,7.72,8.86,12.46-3.14,9.17-8.86,12.46-13,5-20.9,5S184.4,322.3,178.8,319.06Zm.69-23.73c-5.27,3-8.17,7-8.17,11.27s2.9,8.23,8.17,11.28,12.57,4.82,20.21,4.82,14.83-1.71,20.22-4.82,8.17-7.05,8.17-11.28-2.9-8.23-8.17-11.27-12.57-4.83-20.21-4.83S184.88,292.22,179.49,295.33Z" transform="translate(0.33 -7.96)"/><path class="cls-43" d="M217.38,314.81l-4.3-2.49c-5,2.08-10.33,1.63-13.6-.26-3.67-2.12-3.64-4.58-1.12-8,2.07-3,2.53-4.46.38-5.71a8.16,8.16,0,0,0-7.94.48,8.25,8.25,0,0,0-3.8,3.87l-3.68-1c.41-1.09,1.45-2.46,3.84-3.94l-4-2.31,2.6-1.5,4.13,2.38c4.43-1.79,9.51-1.71,12.94.26,3.6,2.08,2.85,4.71.29,8.09-1.82,2.49-2,4.23.29,5.57s6,1.16,9-.55a8.69,8.69,0,0,0,4.09-4.46l3.8,1c-.41,1.44-2.15,3.3-4.5,4.7l4.17,2.42Z" transform="translate(0.33 -7.96)"/><path class="cls-43" d="M175.72,318.93c13.25,7.64,34.72,7.64,48,0s13.25-20.05,0-27.7-34.71-7.64-48,0S162.48,311.28,175.72,318.93Z" transform="translate(0.33 -7.96)"/><path class="cls-44" d="M175.72,314.16c13.25,7.64,34.72,7.64,48,0s13.25-20.05,0-27.7-34.71-7.65-48,0S162.48,306.51,175.72,314.16Z" transform="translate(0.33 -7.96)"/><path class="cls-43" d="M178.8,312.77c-5.71-3.3-8.86-7.72-8.86-12.46s3.15-9.17,8.86-12.47,13-5,20.91-5,15.3,1.77,20.89,5,8.86,7.73,8.86,12.47-3.14,9.16-8.86,12.46-13,5-20.9,5S184.4,316,178.8,312.77Zm.69-23.74c-5.27,3.05-8.17,7.05-8.17,11.28s2.9,8.23,8.17,11.27,12.57,4.82,20.21,4.82,14.83-1.71,20.22-4.82,8.17-7,8.17-11.27-2.9-8.23-8.17-11.28-12.57-4.82-20.21-4.82S184.88,285.92,179.49,289Z" transform="translate(0.33 -7.96)"/><path class="cls-43" d="M217.38,308.51l-4.3-2.48c-5,2.07-10.33,1.62-13.6-.27-3.67-2.12-3.64-4.58-1.12-8,2.07-3,2.53-4.45.38-5.7a8.16,8.16,0,0,0-7.94.48,8.29,8.29,0,0,0-3.8,3.86l-3.68-1c.41-1.1,1.45-2.46,3.84-3.94l-4-2.31,2.6-1.51,4.13,2.39c4.43-1.79,9.51-1.72,12.94.26,3.6,2.08,2.85,4.71.29,8.09-1.82,2.48-2,4.23.29,5.56s6,1.17,9-.55a8.62,8.62,0,0,0,4.09-4.46l3.8,1.05c-.41,1.43-2.15,3.29-4.5,4.7l4.17,2.41Z" transform="translate(0.33 -7.96)"/><path class="cls-43" d="M175.72,312.63c13.25,7.65,34.72,7.65,48,0s13.25-20,0-27.69-34.71-7.65-48,0S162.48,305,175.72,312.63Z" transform="translate(0.33 -7.96)"/><path class="cls-44" d="M175.72,307.86c13.25,7.64,34.72,7.64,48,0s13.25-20,0-27.69-34.71-7.65-48,0S162.48,300.22,175.72,307.86Z" transform="translate(0.33 -7.96)"/><path class="cls-43" d="M178.8,306.48c-5.71-3.3-8.86-7.73-8.86-12.47s3.15-9.16,8.86-12.46,13-5,20.91-5,15.3,1.78,20.89,5,8.86,7.72,8.86,12.46-3.14,9.17-8.86,12.47-13,5-20.9,5S184.4,309.71,178.8,306.48Zm.69-23.74c-5.27,3-8.17,7-8.17,11.27s2.9,8.23,8.17,11.28,12.57,4.83,20.21,4.83,14.83-1.72,20.22-4.83,8.17-7.05,8.17-11.28-2.9-8.23-8.17-11.27-12.57-4.82-20.21-4.82S184.88,279.63,179.49,282.74Z" transform="translate(0.33 -7.96)"/><path class="cls-43" d="M217.38,302.22l-4.3-2.49c-5,2.08-10.33,1.63-13.6-.26-3.67-2.12-3.64-4.58-1.12-8,2.07-3,2.53-4.47.38-5.7a8.16,8.16,0,0,0-7.94.47,8.29,8.29,0,0,0-3.8,3.87l-3.68-1c.41-1.11,1.45-2.46,3.84-3.94l-4-2.32,2.6-1.5,4.13,2.38c4.43-1.78,9.51-1.71,12.94.27,3.6,2.08,2.85,4.7.29,8.08-1.82,2.49-2,4.23.29,5.57s6,1.16,9-.55a8.67,8.67,0,0,0,4.09-4.47l3.8,1.05c-.41,1.43-2.15,3.3-4.5,4.7l4.17,2.42Z" transform="translate(0.33 -7.96)"/><path class="cls-43" d="M175.72,306.34c13.25,7.64,34.72,7.64,48,0s13.25-20,0-27.69-34.71-7.65-48,0S162.48,298.69,175.72,306.34Z" transform="translate(0.33 -7.96)"/><path class="cls-44" d="M175.72,301.56c13.25,7.65,34.72,7.65,48,0s13.25-20,0-27.69-34.71-7.64-48,0S162.48,293.92,175.72,301.56Z" transform="translate(0.33 -7.96)"/><path class="cls-43" d="M178.8,300.18c-5.71-3.3-8.86-7.72-8.86-12.46s3.15-9.17,8.86-12.47,13-5,20.91-5,15.3,1.77,20.89,5,8.86,7.73,8.86,12.47-3.14,9.16-8.86,12.46-13,5-20.9,5S184.4,303.41,178.8,300.18Zm.69-23.74c-5.27,3.05-8.17,7.05-8.17,11.28s2.9,8.23,8.17,11.28,12.57,4.82,20.21,4.82,14.83-1.72,20.22-4.82,8.17-7.05,8.17-11.28-2.9-8.23-8.17-11.28-12.57-4.82-20.21-4.82S184.88,273.33,179.49,276.44Z" transform="translate(0.33 -7.96)"/><path class="cls-43" d="M217.38,295.92l-4.3-2.48c-5,2.07-10.33,1.62-13.6-.26-3.67-2.12-3.64-4.58-1.12-8,2.07-3,2.53-4.47.38-5.71a8.16,8.16,0,0,0-7.94.48,8.25,8.25,0,0,0-3.8,3.87l-3.68-1c.41-1.1,1.45-2.46,3.84-3.94l-4-2.31,2.6-1.51,4.13,2.39c4.43-1.79,9.51-1.72,12.94.26,3.6,2.08,2.85,4.71.29,8.09-1.82,2.48-2,4.23.29,5.56s6,1.17,9-.55a8.62,8.62,0,0,0,4.09-4.46l3.8,1.05c-.41,1.44-2.15,3.29-4.5,4.7l4.17,2.41Z" transform="translate(0.33 -7.96)"/><path class="cls-43" d="M175.72,300c13.25,7.65,34.72,7.65,48,0s13.25-20,0-27.69-34.71-7.64-48,0S162.48,292.4,175.72,300Z" transform="translate(0.33 -7.96)"/><path class="cls-44" d="M175.72,295.27c13.25,7.65,34.72,7.65,48,0s13.25-20,0-27.69-34.71-7.64-48,0S162.48,287.63,175.72,295.27Z" transform="translate(0.33 -7.96)"/><path class="cls-43" d="M178.8,293.89c-5.71-3.3-8.86-7.72-8.86-12.47s3.15-9.16,8.86-12.46,13-5,20.91-5,15.3,1.78,20.89,5,8.86,7.72,8.86,12.46-3.14,9.17-8.86,12.47-13,5-20.9,5S184.4,297.12,178.8,293.89Zm.69-23.74c-5.27,3-8.17,7.05-8.17,11.27s2.9,8.24,8.17,11.28,12.57,4.82,20.21,4.82,14.83-1.71,20.22-4.82,8.17-7.05,8.17-11.28-2.9-8.23-8.17-11.27-12.57-4.83-20.21-4.83S184.88,267,179.49,270.15Z" transform="translate(0.33 -7.96)"/><path class="cls-43" d="M217.38,289.63l-4.3-2.48c-5,2.07-10.33,1.62-13.6-.27-3.67-2.12-3.64-4.58-1.12-8,2.07-3,2.53-4.46.38-5.7a8.14,8.14,0,0,0-7.94.48,8.29,8.29,0,0,0-3.8,3.86l-3.68-1c.41-1.09,1.45-2.45,3.84-3.93l-4-2.31,2.6-1.51,4.13,2.39c4.43-1.8,9.51-1.72,12.94.26,3.6,2.08,2.85,4.7.29,8.09-1.82,2.48-2,4.22.29,5.56s6,1.17,9-.55a8.66,8.66,0,0,0,4.09-4.46l3.8,1.05c-.41,1.43-2.15,3.29-4.5,4.69l4.17,2.42Z" transform="translate(0.33 -7.96)"/><path class="cls-43" d="M175.72,293.75c13.25,7.64,34.72,7.64,48,0s13.25-20,0-27.69-34.71-7.65-48,0S162.48,286.1,175.72,293.75Z" transform="translate(0.33 -7.96)"/><path class="cls-44" d="M175.72,289c13.25,7.64,34.72,7.64,48,0s13.25-20.05,0-27.7-34.71-7.64-48,0S162.48,281.33,175.72,289Z" transform="translate(0.33 -7.96)"/><path class="cls-43" d="M178.8,287.6c-5.71-3.3-8.86-7.73-8.86-12.47s3.15-9.17,8.86-12.46,13-5,20.91-5,15.3,1.78,20.89,5,8.86,7.72,8.86,12.46-3.14,9.17-8.86,12.47-13,5-20.9,5S184.4,290.83,178.8,287.6Zm.69-23.75c-5.27,3-8.17,7-8.17,11.28s2.9,8.23,8.17,11.28,12.57,4.82,20.21,4.82,14.83-1.72,20.22-4.82,8.17-7.05,8.17-11.28-2.9-8.23-8.17-11.28S207.35,259,199.71,259,184.88,260.74,179.49,263.85Z" transform="translate(0.33 -7.96)"/><path class="cls-43" d="M217.38,283.34l-4.3-2.49c-5,2.08-10.33,1.63-13.6-.26-3.67-2.12-3.64-4.58-1.12-8,2.07-3,2.53-4.46.38-5.71a8.16,8.16,0,0,0-7.94.48,8.29,8.29,0,0,0-3.8,3.86l-3.68-1c.41-1.1,1.45-2.45,3.84-3.94l-4-2.31,2.6-1.51,4.13,2.39c4.43-1.79,9.51-1.71,12.94.27,3.6,2.07,2.85,4.7.29,8.09-1.82,2.48-2,4.22.29,5.56s6,1.16,9-.55a8.69,8.69,0,0,0,4.09-4.46l3.8,1c-.41,1.44-2.15,3.3-4.5,4.7l4.17,2.41Z" transform="translate(0.33 -7.96)"/><path class="cls-43" d="M175.72,287.45c13.25,7.65,34.72,7.65,48,0s13.25-20,0-27.68-34.71-7.65-48,0S162.48,279.8,175.72,287.45Z" transform="translate(0.33 -7.96)"/><path class="cls-44" d="M175.72,282.68c13.25,7.65,34.72,7.65,48,0s13.25-20.05,0-27.69-34.71-7.64-48,0S162.48,275,175.72,282.68Z" transform="translate(0.33 -7.96)"/><path class="cls-43" d="M178.8,281.3c-5.71-3.29-8.86-7.73-8.86-12.46s3.15-9.17,8.86-12.47,13-5,20.91-5,15.3,1.78,20.89,5,8.86,7.73,8.86,12.47-3.14,9.17-8.86,12.46-13,5-20.9,5S184.4,284.53,178.8,281.3Zm.69-23.74c-5.27,3.05-8.17,7.05-8.17,11.28s2.9,8.23,8.17,11.27,12.57,4.83,20.21,4.83,14.83-1.72,20.22-4.83,8.17-7,8.17-11.27-2.9-8.23-8.17-11.28-12.57-4.82-20.21-4.82S184.88,254.45,179.49,257.56Z" transform="translate(0.33 -7.96)"/><path class="cls-43" d="M217.38,277l-4.3-2.48c-5,2.07-10.33,1.62-13.6-.27-3.67-2.12-3.64-4.58-1.12-8,2.07-2.95,2.53-4.46.38-5.7a8.14,8.14,0,0,0-7.94.48,8.29,8.29,0,0,0-3.8,3.86l-3.68-1c.41-1.1,1.45-2.46,3.84-3.94l-4-2.32,2.6-1.5,4.13,2.39c4.43-1.79,9.51-1.72,12.94.26,3.6,2.08,2.85,4.7.29,8.09-1.82,2.48-2,4.22.29,5.56s6,1.17,9-.55a8.66,8.66,0,0,0,4.09-4.46l3.8,1.05c-.41,1.43-2.15,3.29-4.5,4.7l4.17,2.41Z" transform="translate(0.33 -7.96)"/><path class="cls-43" d="M175.72,281.16c13.25,7.65,34.72,7.65,48,0s13.25-20.05,0-27.69-34.71-7.65-48,0S162.48,273.51,175.72,281.16Z" transform="translate(0.33 -7.96)"/><path class="cls-44" d="M175.72,276.39c13.25,7.64,34.72,7.64,48,0s13.25-20.05,0-27.69-34.71-7.65-48,0S162.48,268.74,175.72,276.39Z" transform="translate(0.33 -7.96)"/><path class="cls-43" d="M178.8,275c-5.71-3.3-8.86-7.73-8.86-12.47s3.15-9.17,8.86-12.46,13-5,20.91-5,15.3,1.78,20.89,5,8.86,7.72,8.86,12.46-3.14,9.17-8.86,12.47-13,5-20.9,5S184.4,278.24,178.8,275Zm.69-23.74c-5.27,3-8.17,7-8.17,11.27s2.9,8.23,8.17,11.28,12.57,4.82,20.21,4.82,14.83-1.71,20.22-4.82,8.17-7.05,8.17-11.28-2.9-8.23-8.17-11.27-12.57-4.83-20.21-4.83S184.88,248.15,179.49,251.27Z" transform="translate(0.33 -7.96)"/><path class="cls-43" d="M217.38,270.74l-4.3-2.48c-5,2.08-10.33,1.63-13.6-.26-3.67-2.12-3.64-4.58-1.12-8,2.07-3,2.53-4.46.38-5.7a8.16,8.16,0,0,0-7.94.47,8.29,8.29,0,0,0-3.8,3.87l-3.68-1c.41-1.1,1.45-2.46,3.84-3.95l-4-2.31,2.6-1.5,4.13,2.38c4.43-1.78,9.51-1.72,12.94.27,3.6,2.08,2.85,4.7.29,8.08-1.82,2.49-2,4.23.29,5.57s6,1.16,9-.56a8.62,8.62,0,0,0,4.09-4.46l3.8,1c-.41,1.44-2.15,3.3-4.5,4.71l4.17,2.4Z" transform="translate(0.33 -7.96)"/><path class="cls-43" d="M175.72,274.87c13.25,7.64,34.72,7.64,48,0s13.25-20.05,0-27.7-34.71-7.64-48,0S162.48,267.22,175.72,274.87Z" transform="translate(0.33 -7.96)"/><path class="cls-44" d="M175.72,270.1c13.25,7.64,34.72,7.64,48,0s13.25-20.05,0-27.7-34.71-7.64-48,0S162.48,262.45,175.72,270.1Z" transform="translate(0.33 -7.96)"/><path class="cls-43" d="M178.8,268.71c-5.71-3.3-8.86-7.72-8.86-12.46s3.15-9.17,8.86-12.47,13-5,20.91-5,15.3,1.77,20.89,5,8.86,7.73,8.86,12.47-3.14,9.16-8.86,12.46-13,5-20.9,5S184.4,271.94,178.8,268.71Zm.69-23.74c-5.27,3-8.17,7.05-8.17,11.28s2.9,8.23,8.17,11.28,12.57,4.82,20.21,4.82,14.83-1.71,20.22-4.82,8.17-7,8.17-11.28-2.9-8.24-8.17-11.28-12.57-4.82-20.21-4.82S184.88,241.87,179.49,245Z" transform="translate(0.33 -7.96)"/><path class="cls-43" d="M217.38,264.45l-4.3-2.48c-5,2.07-10.33,1.62-13.6-.26-3.67-2.12-3.64-4.59-1.12-8,2.07-3,2.53-4.47.38-5.71a8.14,8.14,0,0,0-7.94.48,8.25,8.25,0,0,0-3.8,3.87l-3.68-1c.41-1.1,1.45-2.46,3.84-3.94l-4-2.32,2.6-1.49,4.13,2.38c4.43-1.79,9.51-1.72,12.94.26,3.6,2.08,2.85,4.7.29,8.09-1.82,2.48-2,4.23.29,5.56s6,1.17,9-.55a8.66,8.66,0,0,0,4.09-4.46l3.8,1.05c-.41,1.44-2.15,3.29-4.5,4.7l4.17,2.41Z" transform="translate(0.33 -7.96)"/><path class="cls-43" d="M175.72,268.57c13.25,7.65,34.72,7.65,48,0s13.25-20,0-27.69-34.71-7.64-48,0S162.48,260.92,175.72,268.57Z" transform="translate(0.33 -7.96)"/><path class="cls-44" d="M175.72,263.8c13.25,7.64,34.72,7.64,48,0s13.25-20.05,0-27.69-34.71-7.65-48,0S162.48,256.15,175.72,263.8Z" transform="translate(0.33 -7.96)"/><path class="cls-43" d="M178.8,262.42c-5.71-3.3-8.86-7.72-8.86-12.46s3.15-9.17,8.86-12.47,13-5,20.91-5,15.3,1.78,20.89,5,8.86,7.72,8.86,12.47-3.14,9.16-8.86,12.46-13,5-20.9,5S184.4,265.65,178.8,262.42Zm.69-23.74c-5.27,3-8.17,7-8.17,11.28s2.9,8.23,8.17,11.27,12.57,4.83,20.21,4.83,14.83-1.72,20.22-4.83,8.17-7.05,8.17-11.27-2.9-8.24-8.17-11.28-12.57-4.82-20.21-4.82S184.88,235.57,179.49,238.68Z" transform="translate(0.33 -7.96)"/><path class="cls-43" d="M217.38,258.16l-4.3-2.48c-5,2.07-10.33,1.62-13.6-.27-3.67-2.12-3.64-4.58-1.12-8,2.07-3,2.53-4.46.38-5.7a8.16,8.16,0,0,0-7.94.47A8.34,8.34,0,0,0,187,246l-3.68-1c.41-1.1,1.45-2.46,3.84-3.94l-4-2.32,2.6-1.5,4.13,2.39c4.43-1.79,9.51-1.73,12.94.26,3.6,2.08,2.85,4.7.29,8.09-1.82,2.48-2,4.23.29,5.56s6,1.17,9-.55a8.64,8.64,0,0,0,4.09-4.47l3.8,1.06c-.41,1.43-2.15,3.29-4.5,4.69l4.17,2.42Z" transform="translate(0.33 -7.96)"/><path class="cls-43" d="M175.72,262.28c13.25,7.64,34.72,7.64,48,0s13.25-20,0-27.69-34.71-7.65-48,0S162.48,254.63,175.72,262.28Z" transform="translate(0.33 -7.96)"/><path class="cls-45" d="M175.72,257.5c13.25,7.65,34.72,7.65,48,0s13.25-20,0-27.68-34.71-7.65-48,0S162.48,249.86,175.72,257.5Z" transform="translate(0.33 -7.96)"/><path class="cls-43" d="M178.8,256.13c-5.71-3.3-8.86-7.73-8.86-12.48s3.15-9.15,8.86-12.46,13-5,20.91-5,15.3,1.78,20.89,5,8.86,7.73,8.86,12.46-3.14,9.18-8.86,12.48-13,5-20.9,5S184.4,259.36,178.8,256.13Zm.69-23.75c-5.27,3.05-8.17,7.05-8.17,11.27s2.9,8.24,8.17,11.29,12.57,4.82,20.21,4.82,14.83-1.71,20.22-4.82,8.17-7.05,8.17-11.29-2.9-8.22-8.17-11.27-12.57-4.82-20.21-4.82S184.88,229.28,179.49,232.38Z" transform="translate(0.33 -7.96)"/><path class="cls-43" d="M217.38,251.86l-4.3-2.48c-5,2.07-10.33,1.63-13.6-.26-3.67-2.13-3.64-4.58-1.12-8,2.07-3,2.53-4.47.38-5.71a8.16,8.16,0,0,0-7.94.48,8.33,8.33,0,0,0-3.8,3.86l-3.68-1c.41-1.1,1.45-2.46,3.84-3.93l-4-2.32,2.6-1.51,4.13,2.39c4.43-1.79,9.51-1.72,12.94.26,3.6,2.08,2.85,4.7.29,8.09-1.82,2.49-2,4.23.29,5.56s6,1.17,9-.54a8.67,8.67,0,0,0,4.09-4.47l3.8,1.05c-.41,1.43-2.15,3.3-4.5,4.7l4.17,2.42Z" transform="translate(0.33 -7.96)"/><path class="cls-43" d="M175.72,256.67c13.25,7.64,34.72,7.64,48,0s13.25-20,0-27.69-34.71-7.65-48,0S162.48,249,175.72,256.67Z" transform="translate(0.33 -7.96)"/><path class="cls-44" d="M175.72,251.9c13.25,7.64,34.72,7.64,48,0s13.25-20.05,0-27.69-34.71-7.65-48,0S162.48,244.25,175.72,251.9Z" transform="translate(0.33 -7.96)"/><path class="cls-43" d="M178.8,250.52c-5.71-3.3-8.86-7.73-8.86-12.47s3.15-9.16,8.86-12.46,13-5,20.91-5,15.3,1.78,20.89,5,8.86,7.72,8.86,12.46-3.14,9.17-8.86,12.47-13,5-20.9,5S184.4,253.75,178.8,250.52Zm.69-23.75c-5.27,3-8.17,7.06-8.17,11.28s2.9,8.24,8.17,11.28,12.57,4.82,20.21,4.82,14.83-1.71,20.22-4.82,8.17-7.05,8.17-11.28-2.9-8.23-8.17-11.28S207.35,222,199.71,222,184.88,223.67,179.49,226.77Z" transform="translate(0.33 -7.96)"/><path class="cls-43" d="M217.38,246.25l-4.3-2.48c-5,2.08-10.33,1.63-13.6-.26-3.67-2.12-3.64-4.58-1.12-8,2.07-3,2.53-4.46.38-5.7a8.14,8.14,0,0,0-7.94.48,8.24,8.24,0,0,0-3.8,3.86l-3.68-1c.41-1.09,1.45-2.45,3.84-3.93l-4-2.32,2.6-1.5,4.13,2.39c4.43-1.79,9.51-1.72,12.94.26,3.6,2.07,2.85,4.7.29,8.09-1.82,2.48-2,4.22.29,5.56s6,1.16,9-.55a8.6,8.6,0,0,0,4.09-4.47l3.8,1c-.41,1.44-2.15,3.3-4.5,4.71l4.17,2.4Z" transform="translate(0.33 -7.96)"/><path class="cls-43" d="M175.72,250.38c13.25,7.64,34.72,7.64,48,0s13.25-20,0-27.69-34.71-7.65-48,0S162.48,242.73,175.72,250.38Z" transform="translate(0.33 -7.96)"/><path class="cls-44" d="M175.72,245.61c13.25,7.64,34.72,7.64,48,0s13.25-20.05,0-27.7-34.71-7.64-48,0S162.48,238,175.72,245.61Z" transform="translate(0.33 -7.96)"/><path class="cls-43" d="M178.8,244.22c-5.71-3.29-8.86-7.72-8.86-12.46s3.15-9.17,8.86-12.46,13-5,20.91-5,15.3,1.77,20.89,5,8.86,7.72,8.86,12.46-3.14,9.17-8.86,12.46-13,5-20.9,5S184.4,247.46,178.8,244.22Zm.69-23.74c-5.27,3.05-8.17,7.05-8.17,11.28s2.9,8.23,8.17,11.28,12.57,4.82,20.21,4.82,14.83-1.71,20.22-4.82,8.17-7,8.17-11.28-2.9-8.23-8.17-11.28-12.57-4.82-20.21-4.82S184.88,217.37,179.49,220.48Z" transform="translate(0.33 -7.96)"/><path class="cls-43" d="M217.38,240l-4.3-2.49c-5,2.07-10.33,1.63-13.6-.26-3.67-2.13-3.64-4.58-1.12-8,2.07-3,2.53-4.46.38-5.71a8.16,8.16,0,0,0-7.94.48,8.25,8.25,0,0,0-3.8,3.87l-3.68-1c.41-1.1,1.45-2.46,3.84-3.94l-4-2.31,2.6-1.51,4.13,2.39c4.43-1.79,9.51-1.72,12.94.26,3.6,2.08,2.85,4.71.29,8.09-1.82,2.49-2,4.22.29,5.56s6,1.17,9-.54a8.67,8.67,0,0,0,4.09-4.47l3.8,1.05c-.41,1.44-2.15,3.29-4.5,4.7l4.17,2.42Z" transform="translate(0.33 -7.96)"/><path class="cls-43" d="M175.72,244.08c13.25,7.65,34.72,7.65,48,0s13.25-20,0-27.69-34.71-7.64-48,0S162.48,236.43,175.72,244.08Z" transform="translate(0.33 -7.96)"/><path class="cls-44" d="M175.72,239.31c13.25,7.65,34.72,7.65,48,0s13.25-20.05,0-27.69-34.71-7.65-48,0S162.48,231.66,175.72,239.31Z" transform="translate(0.33 -7.96)"/><path class="cls-43" d="M178.8,237.93c-5.71-3.3-8.86-7.73-8.86-12.47s3.15-9.16,8.86-12.46,13-5,20.91-5,15.3,1.77,20.89,5,8.86,7.73,8.86,12.46-3.14,9.17-8.86,12.47-13,5-20.9,5S184.4,241.16,178.8,237.93Zm.69-23.74c-5.27,3.05-8.17,7.05-8.17,11.27s2.9,8.24,8.17,11.28,12.57,4.82,20.21,4.82,14.83-1.71,20.22-4.82,8.17-7,8.17-11.28-2.9-8.22-8.17-11.27-12.57-4.82-20.21-4.82S184.88,211.08,179.49,214.19Z" transform="translate(0.33 -7.96)"/><path class="cls-43" d="M217.38,233.67l-4.3-2.48c-5,2.07-10.33,1.62-13.6-.27-3.67-2.12-3.64-4.58-1.12-8,2.07-2.95,2.53-4.46.38-5.7a8.16,8.16,0,0,0-7.94.48,8.29,8.29,0,0,0-3.8,3.86l-3.68-1c.41-1.1,1.45-2.46,3.84-3.94l-4-2.31,2.6-1.51,4.13,2.39c4.43-1.79,9.51-1.72,12.94.26,3.6,2.08,2.85,4.71.29,8.09-1.82,2.48-2,4.22.29,5.56s6,1.17,9-.55a8.66,8.66,0,0,0,4.09-4.46l3.8,1.05c-.41,1.43-2.15,3.29-4.5,4.7l4.17,2.41Z" transform="translate(0.33 -7.96)"/><path class="cls-43" d="M175.72,237.79c13.25,7.65,34.72,7.65,48,0s13.25-20,0-27.69-34.71-7.65-48,0S162.48,230.14,175.72,237.79Z" transform="translate(0.33 -7.96)"/><path class="cls-44" d="M175.72,233c13.25,7.64,34.72,7.64,48,0s13.25-20.05,0-27.7-34.71-7.64-48,0S162.48,225.37,175.72,233Z" transform="translate(0.33 -7.96)"/><path class="cls-43" d="M178.8,231.64c-5.71-3.3-8.86-7.73-8.86-12.47s3.15-9.17,8.86-12.46,13-5,20.91-5,15.3,1.78,20.89,5,8.86,7.72,8.86,12.46-3.14,9.17-8.86,12.47-13,5-20.9,5S184.4,234.87,178.8,231.64Zm.69-23.74c-5.27,3-8.17,7-8.17,11.27s2.9,8.23,8.17,11.28,12.57,4.82,20.21,4.82,14.83-1.72,20.22-4.82,8.17-7,8.17-11.28-2.9-8.23-8.17-11.27-12.57-4.82-20.21-4.82S184.88,204.79,179.49,207.9Z" transform="translate(0.33 -7.96)"/><path class="cls-43" d="M217.38,227.38l-4.3-2.49c-5,2.08-10.33,1.62-13.6-.26-3.67-2.12-3.64-4.59-1.12-8,2.07-3,2.53-4.47.38-5.7a8.16,8.16,0,0,0-7.94.47,8.25,8.25,0,0,0-3.8,3.87l-3.68-1c.41-1.1,1.45-2.45,3.84-3.93l-4-2.32,2.6-1.5,4.13,2.38c4.43-1.79,9.51-1.71,12.94.27,3.6,2.07,2.85,4.7.29,8.08-1.82,2.48-2,4.23.29,5.57s6,1.16,9-.55a8.67,8.67,0,0,0,4.09-4.47l3.8,1.05c-.41,1.43-2.15,3.3-4.5,4.7l4.17,2.41Z" transform="translate(0.33 -7.96)"/><path class="cls-43" d="M175.72,231.5c13.25,7.64,34.72,7.64,48,0s13.25-20.05,0-27.7-34.71-7.64-48,0S162.48,223.85,175.72,231.5Z" transform="translate(0.33 -7.96)"/><path class="cls-44" d="M175.72,226.72c13.25,7.65,34.72,7.65,48,0s13.25-20,0-27.69-34.71-7.65-48,0S162.48,219.08,175.72,226.72Z" transform="translate(0.33 -7.96)"/><path class="cls-43" d="M178.8,225.34c-5.71-3.3-8.86-7.72-8.86-12.46s3.15-9.17,8.86-12.47,13-5,20.91-5,15.3,1.78,20.89,5,8.86,7.73,8.86,12.47-3.14,9.16-8.86,12.46-13,5-20.9,5S184.4,228.57,178.8,225.34Zm.69-23.74c-5.27,3.05-8.17,7.05-8.17,11.28s2.9,8.23,8.17,11.27S192.06,229,199.7,229s14.83-1.72,20.22-4.83,8.17-7.05,8.17-11.27-2.9-8.23-8.17-11.28-12.57-4.82-20.21-4.82S184.88,198.49,179.49,201.6Z" transform="translate(0.33 -7.96)"/><path class="cls-43" d="M217.38,221.08l-4.3-2.48c-5,2.07-10.33,1.62-13.6-.27-3.67-2.11-3.64-4.57-1.12-8,2.07-3,2.53-4.46.38-5.7a8.14,8.14,0,0,0-7.94.48,8.29,8.29,0,0,0-3.8,3.86l-3.68-1c.41-1.1,1.45-2.46,3.84-3.94l-4-2.32,2.6-1.5,4.13,2.39c4.43-1.79,9.51-1.72,12.94.26,3.6,2.08,2.85,4.7.29,8.09-1.82,2.48-2,4.23.29,5.56s6,1.17,9-.55a8.66,8.66,0,0,0,4.09-4.46l3.8,1c-.41,1.45-2.15,3.3-4.5,4.71l4.17,2.41Z" transform="translate(0.33 -7.96)"/><path class="cls-43" d="M175.72,225.2c13.25,7.65,34.72,7.65,48,0s13.25-20,0-27.69-34.71-7.64-48,0S162.48,217.56,175.72,225.2Z" transform="translate(0.33 -7.96)"/><path class="cls-44" d="M175.72,220.43c13.25,7.65,34.72,7.65,48,0s13.25-20.05,0-27.69-34.71-7.65-48,0S162.48,212.79,175.72,220.43Z" transform="translate(0.33 -7.96)"/><path class="cls-43" d="M178.8,219.05c-5.71-3.3-8.86-7.72-8.86-12.47s3.15-9.16,8.86-12.46,13-5,20.91-5,15.3,1.78,20.89,5,8.86,7.72,8.86,12.46-3.14,9.17-8.86,12.47-13,5-20.9,5S184.4,222.28,178.8,219.05Zm.69-23.74c-5.27,3-8.17,7-8.17,11.27s2.9,8.24,8.17,11.28,12.57,4.82,20.21,4.82,14.83-1.71,20.22-4.82,8.17-7.05,8.17-11.28-2.9-8.23-8.17-11.27-12.57-4.83-20.21-4.83S184.88,192.2,179.49,195.31Z" transform="translate(0.33 -7.96)"/><path class="cls-43" d="M217.38,214.79l-4.3-2.49c-5,2.08-10.33,1.63-13.6-.26-3.67-2.12-3.64-4.58-1.12-8,2.07-3,2.53-4.46.38-5.7a8.16,8.16,0,0,0-7.94.47,8.29,8.29,0,0,0-3.8,3.87l-3.68-1c.41-1.09,1.45-2.46,3.84-3.93l-4-2.32,2.6-1.5,4.13,2.38c4.43-1.79,9.51-1.71,12.94.26,3.6,2.09,2.85,4.71.29,8.1-1.82,2.48-2,4.22.29,5.56s6,1.17,9-.56a8.62,8.62,0,0,0,4.09-4.46l3.8,1.06c-.41,1.43-2.15,3.29-4.5,4.69l4.17,2.42Z" transform="translate(0.33 -7.96)"/><path class="cls-43" d="M175.72,218.91c13.25,7.64,34.72,7.64,48,0s13.25-20,0-27.69-34.71-7.65-48,0S162.48,211.26,175.72,218.91Z" transform="translate(0.33 -7.96)"/><path class="cls-44" d="M175.72,214.14c13.25,7.64,34.72,7.64,48,0s13.25-20,0-27.7-34.71-7.64-48,0S162.48,206.49,175.72,214.14Z" transform="translate(0.33 -7.96)"/><path class="cls-43" d="M178.8,212.76c-5.71-3.3-8.86-7.73-8.86-12.47s3.15-9.17,8.86-12.47,13-5,20.91-5,15.3,1.77,20.89,5,8.86,7.73,8.86,12.47-3.14,9.17-8.86,12.47-13,5-20.9,5S184.4,216,178.8,212.76Zm.69-23.75c-5.27,3-8.17,7.05-8.17,11.28s2.9,8.23,8.17,11.28,12.57,4.82,20.21,4.82,14.83-1.72,20.22-4.82,8.17-7,8.17-11.28-2.9-8.24-8.17-11.28-12.57-4.82-20.21-4.82S184.88,185.9,179.49,189Z" transform="translate(0.33 -7.96)"/><path class="cls-43" d="M217.38,208.49l-4.3-2.48c-5,2.08-10.33,1.63-13.6-.26-3.67-2.12-3.64-4.59-1.12-8,2.07-3,2.53-4.47.38-5.71a8.16,8.16,0,0,0-7.94.48,8.29,8.29,0,0,0-3.8,3.86l-3.68-1c.41-1.1,1.45-2.46,3.84-3.94l-4-2.31,2.6-1.51,4.13,2.39c4.43-1.79,9.51-1.72,12.94.26,3.6,2.08,2.85,4.71.29,8.09-1.82,2.48-2,4.23.29,5.56s6,1.17,9-.55a8.62,8.62,0,0,0,4.09-4.46l3.8,1.05c-.41,1.43-2.15,3.29-4.5,4.7l4.17,2.41Z" transform="translate(0.33 -7.96)"/><path class="cls-43" d="M175.72,212.61c13.25,7.65,34.72,7.65,48,0s13.25-20,0-27.69-34.71-7.64-48,0S162.48,205,175.72,212.61Z" transform="translate(0.33 -7.96)"/><path class="cls-44" d="M175.72,207.84c13.25,7.64,34.72,7.64,48,0s13.25-20.05,0-27.69-34.71-7.64-48,0S162.48,200.19,175.72,207.84Z" transform="translate(0.33 -7.96)"/><path class="cls-43" d="M178.8,206.46c-5.71-3.3-8.86-7.73-8.86-12.47s3.15-9.16,8.86-12.46,13-5,20.91-5,15.3,1.78,20.89,5,8.86,7.72,8.86,12.46-3.14,9.17-8.86,12.47-13,5-20.9,5S184.4,209.69,178.8,206.46Zm.69-23.74c-5.27,3-8.17,7.05-8.17,11.27s2.9,8.24,8.17,11.28,12.57,4.82,20.21,4.82,14.83-1.71,20.22-4.82,8.17-7.05,8.17-11.28-2.9-8.23-8.17-11.27-12.57-4.82-20.21-4.82S184.88,179.61,179.49,182.72Z" transform="translate(0.33 -7.96)"/><path class="cls-43" d="M217.38,202.2l-4.3-2.48c-5,2.07-10.33,1.62-13.6-.27-3.67-2.12-3.64-4.58-1.12-8,2.07-2.95,2.53-4.46.38-5.7a8.14,8.14,0,0,0-7.94.48,8.29,8.29,0,0,0-3.8,3.86l-3.68-1c.41-1.09,1.45-2.45,3.84-3.93l-4-2.32,2.6-1.5,4.13,2.39c4.43-1.8,9.51-1.72,12.94.26,3.6,2.08,2.85,4.7.29,8.09-1.82,2.48-2,4.22.29,5.56s6,1.17,9-.55a8.66,8.66,0,0,0,4.09-4.46l3.8,1.05c-.41,1.43-2.15,3.29-4.5,4.7l4.17,2.41Z" transform="translate(0.33 -7.96)"/><path class="cls-43" d="M175.72,206.32c13.25,7.64,34.72,7.64,48,0s13.25-20,0-27.69-34.71-7.65-48,0S162.48,198.67,175.72,206.32Z" transform="translate(0.33 -7.96)"/><path class="cls-44" d="M175.72,201.55c13.25,7.64,34.72,7.64,48,0s13.25-20.05,0-27.7-34.71-7.64-48,0S162.48,193.9,175.72,201.55Z" transform="translate(0.33 -7.96)"/><path class="cls-43" d="M178.8,200.17c-5.71-3.3-8.86-7.73-8.86-12.47s3.15-9.17,8.86-12.47,13-5,20.91-5,15.3,1.77,20.89,5,8.86,7.73,8.86,12.47-3.14,9.17-8.86,12.47-13,5-20.9,5S184.4,203.4,178.8,200.17Zm.69-23.75c-5.27,3.05-8.17,7.05-8.17,11.28s2.9,8.23,8.17,11.27,12.57,4.83,20.21,4.83,14.83-1.71,20.22-4.83,8.17-7,8.17-11.27-2.9-8.23-8.17-11.28-12.57-4.82-20.21-4.82S184.88,173.31,179.49,176.42Z" transform="translate(0.33 -7.96)"/><path class="cls-43" d="M217.38,195.9l-4.3-2.48c-5,2.08-10.33,1.62-13.6-.26-3.67-2.12-3.64-4.58-1.12-8,2.07-3,2.53-4.46.38-5.7a8.13,8.13,0,0,0-7.94.47,8.25,8.25,0,0,0-3.8,3.87l-3.68-1c.41-1.1,1.45-2.45,3.84-3.94l-4-2.31,2.6-1.5,4.13,2.38c4.43-1.79,9.51-1.72,12.94.27,3.6,2.07,2.85,4.7.29,8.08-1.82,2.49-2,4.23.29,5.57s6,1.16,9-.56a8.62,8.62,0,0,0,4.09-4.46l3.8,1.05c-.41,1.44-2.15,3.3-4.5,4.7l4.17,2.41Z" transform="translate(0.33 -7.96)"/><path class="cls-43" d="M175.72,200c13.25,7.65,34.72,7.65,48,0s13.25-20,0-27.69-34.71-7.64-48,0S162.48,192.38,175.72,200Z" transform="translate(0.33 -7.96)"/><path class="cls-44" d="M175.72,195.25c13.25,7.65,34.72,7.65,48,0s13.25-20.05,0-27.69-34.71-7.64-48,0S162.48,187.61,175.72,195.25Z" transform="translate(0.33 -7.96)"/><path class="cls-43" d="M178.8,193.87c-5.71-3.3-8.86-7.72-8.86-12.46s3.15-9.17,8.86-12.47,13-5,20.91-5,15.3,1.77,20.89,5,8.86,7.73,8.86,12.47-3.14,9.16-8.86,12.46-13,5-20.9,5S184.4,197.1,178.8,193.87Zm.69-23.74c-5.27,3-8.17,7.05-8.17,11.28s2.9,8.23,8.17,11.27,12.57,4.83,20.21,4.83,14.83-1.71,20.22-4.83,8.17-7,8.17-11.27-2.9-8.24-8.17-11.28-12.57-4.82-20.21-4.82S184.88,167,179.49,170.13Z" transform="translate(0.33 -7.96)"/><path class="cls-43" d="M217.38,189.61l-4.3-2.48c-5,2.07-10.33,1.62-13.6-.26-3.67-2.13-3.64-4.59-1.12-8,2.07-3,2.53-4.47.38-5.71a8.14,8.14,0,0,0-7.94.48,8.29,8.29,0,0,0-3.8,3.86l-3.68-1c.41-1.1,1.45-2.46,3.84-3.94l-4-2.32,2.6-1.5,4.13,2.39c4.43-1.79,9.51-1.72,12.94.26,3.6,2.08,2.85,4.7.29,8.09-1.82,2.48-2,4.22.29,5.56s6,1.17,9-.55a8.66,8.66,0,0,0,4.09-4.46l3.8,1.05c-.41,1.44-2.15,3.29-4.5,4.7l4.17,2.41Z" transform="translate(0.33 -7.96)"/><path class="cls-43" d="M175.72,193.73c13.25,7.65,34.72,7.65,48,0s13.25-20,0-27.69-34.71-7.64-48,0S162.48,186.08,175.72,193.73Z" transform="translate(0.33 -7.96)"/><path class="cls-44" d="M175.72,189c13.25,7.64,34.72,7.64,48,0s13.25-20.05,0-27.7-34.71-7.64-48,0S162.48,181.31,175.72,189Z" transform="translate(0.33 -7.96)"/><path class="cls-43" d="M178.8,187.58c-5.71-3.3-8.86-7.73-8.86-12.47s3.15-9.17,8.86-12.46,13-5,20.91-5,15.3,1.78,20.89,5,8.86,7.72,8.86,12.46-3.14,9.17-8.86,12.47-13,5-20.9,5S184.4,190.8,178.8,187.58Zm.69-23.74c-5.27,3-8.17,7-8.17,11.27s2.9,8.23,8.17,11.28,12.57,4.83,20.21,4.83,14.83-1.72,20.22-4.83,8.17-7,8.17-11.28-2.9-8.23-8.17-11.27S207.35,159,199.71,159,184.88,160.73,179.49,163.84Z" transform="translate(0.33 -7.96)"/><path class="cls-43" d="M217.38,183.32l-4.3-2.48c-5,2.07-10.33,1.62-13.6-.27-3.67-2.12-3.64-4.58-1.12-8,2.07-3,2.53-4.46.38-5.7a8.16,8.16,0,0,0-7.94.47,8.29,8.29,0,0,0-3.8,3.87l-3.68-1c.41-1.1,1.45-2.46,3.84-4l-4-2.31,2.6-1.5,4.13,2.38c4.43-1.78,9.51-1.72,12.94.27,3.6,2.07,2.85,4.7.29,8.09-1.82,2.48-2,4.22.29,5.56s6,1.16,9-.56a8.62,8.62,0,0,0,4.09-4.46l3.8,1.06c-.41,1.43-2.15,3.29-4.5,4.69l4.17,2.41Z" transform="translate(0.33 -7.96)"/><path class="cls-43" d="M175.72,187.44c13.25,7.64,34.72,7.64,48,0s13.25-20.05,0-27.7-34.71-7.64-48,0S162.48,179.79,175.72,187.44Z" transform="translate(0.33 -7.96)"/><path class="cls-45" d="M175.72,182.66c13.25,7.65,34.72,7.65,48,0s13.25-20,0-27.69-34.71-7.65-48,0S162.48,175,175.72,182.66Z" transform="translate(0.33 -7.96)"/><path class="cls-43" d="M178.8,181.28c-5.71-3.29-8.86-7.72-8.86-12.47s3.15-9.16,8.86-12.46,13-5,20.91-5,15.3,1.78,20.89,5,8.86,7.72,8.86,12.46-3.14,9.18-8.86,12.47-13,5-20.9,5S184.4,184.51,178.8,181.28Zm.69-23.74c-5.27,3-8.17,7.05-8.17,11.27s2.9,8.24,8.17,11.29,12.57,4.82,20.21,4.82,14.83-1.72,20.22-4.82,8.17-7.06,8.17-11.29-2.9-8.23-8.17-11.27-12.57-4.82-20.21-4.82S184.88,154.44,179.49,157.54Z" transform="translate(0.33 -7.96)"/><path class="cls-43" d="M218.61,437c13.25,7.64,34.72,7.64,48,0s13.24-20,0-27.69-34.72-7.65-48,0S205.37,429.31,218.61,437Z" transform="translate(0.33 -7.96)"/><path class="cls-44" d="M218.61,432.19c13.25,7.64,34.72,7.64,48,0s13.24-20.05,0-27.69-34.72-7.65-48,0S205.37,424.54,218.61,432.19Z" transform="translate(0.33 -7.96)"/><path class="cls-43" d="M221.69,430.81c-5.71-3.31-8.86-7.73-8.86-12.47s3.15-9.16,8.86-12.46,13-5,20.91-5,15.3,1.78,20.9,5,8.85,7.72,8.85,12.46-3.14,9.16-8.85,12.47-13,5-20.91,5S227.29,434,221.69,430.81Zm.69-23.75c-5.27,3.05-8.17,7.05-8.17,11.28s2.9,8.23,8.17,11.28,12.57,4.82,20.21,4.82,14.83-1.71,20.22-4.82,8.17-7.05,8.17-11.28-2.9-8.23-8.17-11.28-12.57-4.82-20.21-4.82S227.77,404,222.38,407.06Z" transform="translate(0.33 -7.96)"/><path class="cls-43" d="M260.27,426.54l-4.3-2.48c-5,2.08-10.33,1.63-13.59-.26-3.68-2.12-3.64-4.58-1.12-8,2.06-3,2.52-4.46.37-5.7a8.16,8.16,0,0,0-7.94.47,8.29,8.29,0,0,0-3.8,3.87l-3.68-1c.41-1.09,1.45-2.46,3.85-3.94l-4-2.31,2.6-1.5,4.13,2.38c4.43-1.78,9.51-1.71,12.94.27,3.6,2.07,2.85,4.7.29,8.09-1.82,2.48-2,4.22.29,5.56s6,1.16,9-.56a8.62,8.62,0,0,0,4.09-4.46l3.8,1.05c-.41,1.43-2.15,3.3-4.5,4.71l4.17,2.4Z" transform="translate(0.33 -7.96)"/><path class="cls-43" d="M218.61,430.67c13.25,7.64,34.72,7.64,48,0s13.24-20.05,0-27.69-34.72-7.65-48,0S205.37,423,218.61,430.67Z" transform="translate(0.33 -7.96)"/><path class="cls-44" d="M218.61,425.9c13.25,7.64,34.72,7.64,48,0s13.24-20,0-27.7-34.72-7.64-48,0S205.37,418.25,218.61,425.9Z" transform="translate(0.33 -7.96)"/><path class="cls-43" d="M221.69,424.51c-5.71-3.29-8.86-7.72-8.86-12.46s3.15-9.17,8.86-12.46,13-5,20.91-5,15.3,1.77,20.9,5,8.85,7.71,8.85,12.46-3.14,9.17-8.85,12.46-13,5-20.91,5S227.29,427.75,221.69,424.51Zm.69-23.74c-5.27,3-8.17,7.05-8.17,11.28s2.9,8.23,8.17,11.28,12.57,4.82,20.21,4.82,14.83-1.71,20.22-4.82,8.17-7.05,8.17-11.28-2.9-8.24-8.17-11.28S250.24,396,242.6,396,227.77,397.66,222.38,400.77Z" transform="translate(0.33 -7.96)"/><path class="cls-43" d="M260.27,420.25l-4.3-2.48c-5,2.07-10.33,1.63-13.59-.26-3.68-2.13-3.64-4.59-1.12-8,2.06-3,2.52-4.47.37-5.71a8.16,8.16,0,0,0-7.94.48,8.25,8.25,0,0,0-3.8,3.87l-3.68-1c.41-1.1,1.45-2.46,3.85-3.94l-4-2.31,2.6-1.51,4.13,2.39c4.43-1.79,9.51-1.72,12.94.26,3.6,2.08,2.85,4.71.29,8.09-1.82,2.48-2,4.22.29,5.56s6,1.17,9-.55a8.62,8.62,0,0,0,4.09-4.46l3.8,1.05c-.41,1.43-2.15,3.29-4.5,4.7l4.17,2.41Z" transform="translate(0.33 -7.96)"/><path class="cls-43" d="M218.61,424.37c13.25,7.64,34.72,7.64,48,0s13.24-20,0-27.69-34.72-7.64-48,0S205.37,416.72,218.61,424.37Z" transform="translate(0.33 -7.96)"/><path class="cls-44" d="M218.61,419.6c13.25,7.64,34.72,7.64,48,0s13.24-20.05,0-27.69-34.72-7.65-48,0S205.37,412,218.61,419.6Z" transform="translate(0.33 -7.96)"/><path class="cls-43" d="M221.69,418.22c-5.71-3.3-8.86-7.73-8.86-12.47s3.15-9.16,8.86-12.46,13-5,20.91-5,15.3,1.77,20.9,5,8.85,7.72,8.85,12.46-3.14,9.17-8.85,12.47-13,5-20.91,5S227.29,421.45,221.69,418.22Zm.69-23.74c-5.27,3-8.17,7-8.17,11.27s2.9,8.24,8.17,11.28,12.57,4.82,20.21,4.82,14.83-1.71,20.22-4.82,8.17-7,8.17-11.28-2.9-8.23-8.17-11.27-12.57-4.82-20.21-4.82S227.77,391.37,222.38,394.48Z" transform="translate(0.33 -7.96)"/><path class="cls-43" d="M260.27,414l-4.3-2.48c-5,2.07-10.33,1.62-13.59-.27-3.68-2.12-3.64-4.58-1.12-8,2.06-2.95,2.52-4.46.37-5.7a8.14,8.14,0,0,0-7.94.48,8.29,8.29,0,0,0-3.8,3.86l-3.68-1c.41-1.09,1.45-2.45,3.85-3.93l-4-2.31,2.6-1.51,4.13,2.39c4.43-1.8,9.51-1.72,12.94.26,3.6,2.08,2.85,4.7.29,8.09-1.82,2.48-2,4.22.29,5.56s6,1.17,9-.55a8.66,8.66,0,0,0,4.09-4.46l3.8,1.05c-.41,1.43-2.15,3.29-4.5,4.7l4.17,2.41Z" transform="translate(0.33 -7.96)"/><path class="cls-43" d="M218.61,418.08c13.25,7.65,34.72,7.65,48,0s13.24-20.05,0-27.69-34.72-7.65-48,0S205.37,410.43,218.61,418.08Z" transform="translate(0.33 -7.96)"/><path class="cls-44" d="M218.61,413.31c13.25,7.64,34.72,7.64,48,0s13.24-20.05,0-27.7-34.72-7.64-48,0S205.37,405.66,218.61,413.31Z" transform="translate(0.33 -7.96)"/><path class="cls-43" d="M221.69,411.93c-5.71-3.3-8.86-7.73-8.86-12.47s3.15-9.17,8.86-12.47,13-5,20.91-5,15.3,1.77,20.9,5,8.85,7.73,8.85,12.47-3.14,9.17-8.85,12.47-13,5-20.91,5S227.29,415.16,221.69,411.93Zm.69-23.75c-5.27,3.05-8.17,7.05-8.17,11.28s2.9,8.23,8.17,11.28,12.57,4.82,20.21,4.82,14.83-1.72,20.22-4.82,8.17-7.05,8.17-11.28-2.9-8.23-8.17-11.28-12.57-4.81-20.21-4.81S227.77,385.07,222.38,388.18Z" transform="translate(0.33 -7.96)"/><path class="cls-43" d="M260.27,407.67l-4.3-2.49c-5,2.08-10.33,1.62-13.59-.26-3.68-2.12-3.64-4.59-1.12-8,2.06-3,2.52-4.47.37-5.7a8.13,8.13,0,0,0-7.94.47,8.25,8.25,0,0,0-3.8,3.87l-3.68-1c.41-1.1,1.45-2.45,3.85-3.93l-4-2.32,2.6-1.5,4.13,2.38c4.43-1.79,9.51-1.71,12.94.27,3.6,2.07,2.85,4.7.29,8.08-1.82,2.48-2,4.23.29,5.57s6,1.16,9-.55a8.67,8.67,0,0,0,4.09-4.47l3.8,1.05c-.41,1.43-2.15,3.3-4.5,4.7l4.17,2.41Z" transform="translate(0.33 -7.96)"/><path class="cls-43" d="M218.61,411.78c13.25,7.65,34.72,7.65,48,0s13.24-20,0-27.69-34.72-7.64-48,0S205.37,404.14,218.61,411.78Z" transform="translate(0.33 -7.96)"/><path class="cls-44" d="M218.61,407c13.25,7.65,34.72,7.65,48,0s13.24-20.05,0-27.69-34.72-7.65-48,0S205.37,399.37,218.61,407Z" transform="translate(0.33 -7.96)"/><path class="cls-43" d="M221.69,405.63c-5.71-3.3-8.86-7.72-8.86-12.47S216,384,221.69,380.7s13-5,20.91-5,15.3,1.78,20.9,5,8.85,7.73,8.85,12.46-3.14,9.17-8.85,12.47-13,5-20.91,5S227.29,408.86,221.69,405.63Zm.69-23.74c-5.27,3.05-8.17,7.05-8.17,11.27s2.9,8.24,8.17,11.28,12.57,4.83,20.21,4.83,14.83-1.72,20.22-4.83,8.17-7.05,8.17-11.28-2.9-8.22-8.17-11.27-12.57-4.83-20.21-4.83S227.77,378.78,222.38,381.89Z" transform="translate(0.33 -7.96)"/><path class="cls-43" d="M260.27,401.37l-4.3-2.48c-5,2.07-10.33,1.62-13.59-.27-3.68-2.12-3.64-4.57-1.12-8,2.06-3,2.52-4.46.37-5.7a8.14,8.14,0,0,0-7.94.48,8.24,8.24,0,0,0-3.8,3.86l-3.68-1c.41-1.1,1.45-2.46,3.85-3.94l-4-2.32,2.6-1.5,4.13,2.39c4.43-1.79,9.51-1.72,12.94.26,3.6,2.08,2.85,4.7.29,8.09-1.82,2.48-2,4.22.29,5.56s6,1.17,9-.55a8.66,8.66,0,0,0,4.09-4.46l3.8,1c-.41,1.45-2.15,3.3-4.5,4.71l4.17,2.41Z" transform="translate(0.33 -7.96)"/><path class="cls-43" d="M218.61,405.49c13.25,7.65,34.72,7.65,48,0s13.24-20,0-27.69-34.72-7.64-48,0S205.37,397.84,218.61,405.49Z" transform="translate(0.33 -7.96)"/><path class="cls-44" d="M218.61,400.72c13.25,7.65,34.72,7.65,48,0s13.24-20.05,0-27.69-34.72-7.65-48,0S205.37,393.07,218.61,400.72Z" transform="translate(0.33 -7.96)"/><path class="cls-43" d="M221.69,399.34c-5.71-3.3-8.86-7.73-8.86-12.47s3.15-9.16,8.86-12.46,13-5,20.91-5,15.3,1.78,20.9,5,8.85,7.72,8.85,12.46-3.14,9.17-8.85,12.47-13,5-20.91,5S227.29,402.57,221.69,399.34Zm.69-23.74c-5.27,3-8.17,7-8.17,11.27s2.9,8.24,8.17,11.28S235,403,242.59,403s14.83-1.71,20.22-4.82,8.17-7,8.17-11.28-2.9-8.23-8.17-11.27-12.57-4.83-20.21-4.83S227.77,372.49,222.38,375.6Z" transform="translate(0.33 -7.96)"/><path class="cls-43" d="M260.27,395.08l-4.3-2.49c-5,2.08-10.33,1.63-13.59-.26-3.68-2.12-3.64-4.58-1.12-8,2.06-3,2.52-4.46.37-5.71a8.19,8.19,0,0,0-7.94.48,8.29,8.29,0,0,0-3.8,3.87l-3.68-1c.41-1.09,1.45-2.46,3.85-3.94l-4-2.31,2.6-1.5,4.13,2.38c4.43-1.79,9.51-1.71,12.94.26,3.6,2.08,2.85,4.71.29,8.1-1.82,2.48-2,4.22.29,5.56s6,1.16,9-.56a8.62,8.62,0,0,0,4.09-4.46l3.8,1.06c-.41,1.43-2.15,3.29-4.5,4.69l4.17,2.41Z" transform="translate(0.33 -7.96)"/><path class="cls-43" d="M218.61,399.2c13.25,7.64,34.72,7.64,48,0s13.24-20.05,0-27.7-34.72-7.64-48,0S205.37,391.55,218.61,399.2Z" transform="translate(0.33 -7.96)"/><path class="cls-44" d="M218.61,394.43c13.25,7.64,34.72,7.64,48,0s13.24-20.05,0-27.7-34.72-7.65-48,0S205.37,386.78,218.61,394.43Z" transform="translate(0.33 -7.96)"/><path class="cls-43" d="M221.69,393c-5.71-3.29-8.86-7.72-8.86-12.46s3.15-9.17,8.86-12.47,13-5,20.91-5,15.3,1.77,20.9,5,8.85,7.73,8.85,12.47-3.14,9.17-8.85,12.46-13,5-20.91,5S227.29,396.27,221.69,393Zm.69-23.74c-5.27,3-8.17,7.05-8.17,11.28s2.9,8.23,8.17,11.27,12.57,4.83,20.21,4.83,14.83-1.72,20.22-4.83S271,384.8,271,380.58s-2.9-8.24-8.17-11.28-12.57-4.82-20.21-4.82S227.77,366.19,222.38,369.3Z" transform="translate(0.33 -7.96)"/><path class="cls-43" d="M260.27,388.78,256,386.3c-5,2.08-10.33,1.62-13.59-.27-3.68-2.11-3.64-4.58-1.12-8,2.06-2.95,2.52-4.46.37-5.7a8.14,8.14,0,0,0-7.94.48,8.29,8.29,0,0,0-3.8,3.86l-3.68-1c.41-1.1,1.45-2.46,3.85-3.94l-4-2.31,2.6-1.51,4.13,2.39c4.43-1.79,9.51-1.72,12.94.26,3.6,2.08,2.85,4.7.29,8.09-1.82,2.48-2,4.23.29,5.56s6,1.17,9-.55a8.62,8.62,0,0,0,4.09-4.46l3.8,1.05c-.41,1.43-2.15,3.29-4.5,4.7l4.17,2.41Z" transform="translate(0.33 -7.96)"/><path class="cls-43" d="M218.61,392.9c13.25,7.65,34.72,7.65,48,0s13.24-20,0-27.69-34.72-7.64-48,0S205.37,385.25,218.61,392.9Z" transform="translate(0.33 -7.96)"/><path class="cls-44" d="M218.61,388.13c13.25,7.64,34.72,7.64,48,0s13.24-20.05,0-27.69-34.72-7.65-48,0S205.37,380.48,218.61,388.13Z" transform="translate(0.33 -7.96)"/><path class="cls-43" d="M221.69,386.75c-5.71-3.3-8.86-7.73-8.86-12.47s3.15-9.16,8.86-12.46,13-5,20.91-5,15.3,1.78,20.9,5,8.85,7.72,8.85,12.46-3.14,9.17-8.85,12.47-13,5-20.91,5S227.29,390,221.69,386.75Zm.69-23.74c-5.27,3-8.17,7-8.17,11.27s2.9,8.24,8.17,11.28,12.57,4.82,20.21,4.82,14.83-1.71,20.22-4.82,8.17-7.05,8.17-11.28-2.9-8.23-8.17-11.27-12.57-4.82-20.21-4.82S227.77,359.9,222.38,363Z" transform="translate(0.33 -7.96)"/><path class="cls-43" d="M260.27,382.49,256,380c-5,2.07-10.33,1.62-13.59-.27-3.68-2.12-3.64-4.58-1.12-8,2.06-3,2.52-4.46.37-5.7a8.16,8.16,0,0,0-7.94.47,8.34,8.34,0,0,0-3.8,3.87l-3.68-1c.41-1.09,1.45-2.45,3.85-3.93l-4-2.32,2.6-1.5,4.13,2.38c4.43-1.79,9.51-1.71,12.94.27,3.6,2.08,2.85,4.7.29,8.09-1.82,2.48-2,4.22.29,5.55s6,1.18,9-.54a8.66,8.66,0,0,0,4.09-4.46l3.8,1c-.41,1.44-2.15,3.3-4.5,4.71l4.17,2.41Z" transform="translate(0.33 -7.96)"/><path class="cls-43" d="M218.61,386.61c13.25,7.64,34.72,7.64,48,0s13.24-20.05,0-27.69-34.72-7.65-48,0S205.37,379,218.61,386.61Z" transform="translate(0.33 -7.96)"/><path class="cls-44" d="M218.61,381.84c13.25,7.64,34.72,7.64,48,0s13.24-20,0-27.7-34.72-7.64-48,0S205.37,374.19,218.61,381.84Z" transform="translate(0.33 -7.96)"/><path class="cls-43" d="M221.69,380.46c-5.71-3.31-8.86-7.73-8.86-12.47s3.15-9.17,8.86-12.47,13-5,20.91-5,15.3,1.77,20.9,5,8.85,7.73,8.85,12.47-3.14,9.16-8.85,12.47-13,5-20.91,5S227.29,383.69,221.69,380.46Zm.69-23.75c-5.27,3.05-8.17,7.05-8.17,11.28s2.9,8.23,8.17,11.27,12.57,4.83,20.21,4.83,14.83-1.71,20.22-4.83,8.17-7,8.17-11.27-2.9-8.23-8.17-11.28-12.57-4.82-20.21-4.82S227.77,353.6,222.38,356.71Z" transform="translate(0.33 -7.96)"/><path class="cls-43" d="M260.27,376.19l-4.3-2.48c-5,2.08-10.33,1.62-13.59-.26-3.68-2.12-3.64-4.59-1.12-8,2.06-3,2.52-4.46.37-5.7a8.13,8.13,0,0,0-7.94.47,8.25,8.25,0,0,0-3.8,3.87l-3.68-1c.41-1.1,1.45-2.46,3.85-3.94l-4-2.31,2.6-1.51,4.13,2.39c4.43-1.79,9.51-1.72,12.94.26,3.6,2.08,2.85,4.71.29,8.09-1.82,2.49-2,4.23.29,5.57s6,1.16,9-.56a8.62,8.62,0,0,0,4.09-4.46l3.8,1.05c-.41,1.43-2.15,3.29-4.5,4.7l4.17,2.41Z" transform="translate(0.33 -7.96)"/><path class="cls-43" d="M218.61,380.31c13.25,7.65,34.72,7.65,48,0s13.24-20,0-27.69-34.72-7.64-48,0S205.37,372.67,218.61,380.31Z" transform="translate(0.33 -7.96)"/><path class="cls-44" d="M218.61,375.54c13.25,7.65,34.72,7.65,48,0s13.24-20.05,0-27.69-34.72-7.64-48,0S205.37,367.9,218.61,375.54Z" transform="translate(0.33 -7.96)"/><path class="cls-43" d="M221.69,374.16c-5.71-3.3-8.86-7.72-8.86-12.46s3.15-9.17,8.86-12.47,13-5,20.91-5,15.3,1.77,20.9,5,8.85,7.72,8.85,12.47-3.14,9.16-8.85,12.46-13,5-20.91,5S227.29,377.39,221.69,374.16Zm.69-23.74c-5.27,3-8.17,7.05-8.17,11.28s2.9,8.23,8.17,11.27,12.57,4.82,20.21,4.82,14.83-1.7,20.22-4.82S271,365.92,271,361.7s-2.9-8.24-8.17-11.28-12.57-4.82-20.21-4.82S227.77,347.31,222.38,350.42Z" transform="translate(0.33 -7.96)"/><path class="cls-43" d="M260.27,369.9l-4.3-2.48c-5,2.07-10.33,1.62-13.59-.26-3.68-2.13-3.64-4.59-1.12-8.05,2.06-2.95,2.52-4.46.37-5.7a8.14,8.14,0,0,0-7.94.48,8.29,8.29,0,0,0-3.8,3.86l-3.68-1c.41-1.09,1.45-2.45,3.85-3.93l-4-2.32,2.6-1.5,4.13,2.39c4.43-1.79,9.51-1.72,12.94.26,3.6,2.08,2.85,4.7.29,8.09-1.82,2.48-2,4.22.29,5.56s6,1.17,9-.55a8.66,8.66,0,0,0,4.09-4.46l3.8,1.05c-.41,1.43-2.15,3.29-4.5,4.69l4.17,2.42Z" transform="translate(0.33 -7.96)"/><path class="cls-43" d="M218.61,374c13.25,7.64,34.72,7.64,48,0s13.24-20,0-27.69-34.72-7.64-48,0S205.37,366.37,218.61,374Z" transform="translate(0.33 -7.96)"/><path class="cls-44" d="M218.61,369.25c13.25,7.64,34.72,7.64,48,0s13.24-20.05,0-27.7-34.72-7.64-48,0S205.37,361.6,218.61,369.25Z" transform="translate(0.33 -7.96)"/><path class="cls-43" d="M221.69,367.87c-5.71-3.3-8.86-7.73-8.86-12.47s3.15-9.17,8.86-12.46,13-5,20.91-5,15.3,1.78,20.9,5,8.85,7.72,8.85,12.46-3.14,9.17-8.85,12.47-13,5-20.91,5S227.29,371.09,221.69,367.87Zm.69-23.75c-5.27,3.05-8.17,7.05-8.17,11.28s2.9,8.23,8.17,11.28,12.57,4.82,20.21,4.82,14.83-1.71,20.22-4.82S271,359.63,271,355.4s-2.9-8.23-8.17-11.28-12.57-4.82-20.21-4.82S227.77,341,222.38,344.12Z" transform="translate(0.33 -7.96)"/><path class="cls-43" d="M260.27,363.61l-4.3-2.48c-5,2.07-10.33,1.61-13.59-.27-3.68-2.12-3.64-4.58-1.12-8,2.06-3,2.52-4.46.37-5.7a8.13,8.13,0,0,0-7.94.47,8.29,8.29,0,0,0-3.8,3.87l-3.68-1c.41-1.1,1.45-2.45,3.85-3.94l-4-2.31,2.6-1.5,4.13,2.38c4.43-1.79,9.51-1.72,12.94.27,3.6,2.07,2.85,4.7.29,8.09-1.82,2.48-2,4.22.29,5.56s6,1.16,9-.56a8.62,8.62,0,0,0,4.09-4.46l3.8,1.06c-.41,1.43-2.15,3.29-4.5,4.69l4.17,2.41Z" transform="translate(0.33 -7.96)"/><path class="cls-43" d="M218.61,367.73c13.25,7.64,34.72,7.64,48,0s13.24-20.05,0-27.7-34.72-7.64-48,0S205.37,360.08,218.61,367.73Z" transform="translate(0.33 -7.96)"/><path class="cls-45" d="M218.61,363c13.25,7.65,34.72,7.65,48,0s13.24-20,0-27.69-34.72-7.65-48,0S205.37,355.31,218.61,363Z" transform="translate(0.33 -7.96)"/><path class="cls-43" d="M221.69,361.57c-5.71-3.29-8.86-7.73-8.86-12.47s3.15-9.16,8.86-12.46,13-5,20.91-5,15.3,1.78,20.9,5,8.85,7.72,8.85,12.46-3.14,9.18-8.85,12.47-13,5-20.91,5S227.29,364.8,221.69,361.57Zm.69-23.74c-5.27,3-8.17,7.05-8.17,11.27s2.9,8.24,8.17,11.29,12.57,4.82,20.21,4.82,14.83-1.72,20.22-4.82S271,353.33,271,349.1s-2.9-8.23-8.17-11.27S250.24,333,242.6,333,227.77,334.72,222.38,337.83Z" transform="translate(0.33 -7.96)"/><polygon class="cls-46" points="236.02 373.63 236.02 435.19 183.73 453.31 170.68 443.31 236.02 373.63"/><polygon class="cls-47" points="236.02 373.63 213.38 360.52 189.36 378.16 212 391.28 236.02 373.63"/><polygon class="cls-48" points="212 397.81 189.36 384.69 189.36 378.16 212 391.28 212 397.81"/><polygon class="cls-47" points="212 397.81 189.36 384.69 183.71 387.96 206.34 401.07 212 397.81"/><polygon class="cls-48" points="206.34 407.61 183.71 394.49 183.71 387.96 206.34 401.07 206.34 407.61"/><polygon class="cls-47" points="206.34 407.62 183.71 394.5 178.05 397.76 200.69 410.88 206.34 407.62"/><polygon class="cls-48" points="200.69 417.41 178.05 404.3 178.05 397.76 200.69 410.88 200.69 417.41"/><polygon class="cls-47" points="200.69 417.42 178.05 404.31 172.4 407.57 195.03 420.69 200.69 417.42"/><polygon class="cls-48" points="195.04 427.22 172.4 414.11 172.4 407.57 195.03 420.69 195.04 427.22"/><polygon class="cls-47" points="195.04 427.23 172.4 414.11 166.74 417.38 189.38 430.5 195.04 427.23"/><polygon class="cls-48" points="189.38 437.03 166.74 423.91 166.74 417.38 189.38 430.5 189.38 437.03"/><polygon class="cls-47" points="189.38 437.04 166.74 423.93 161.09 427.19 183.72 440.31 189.38 437.04"/><polygon class="cls-48" points="183.73 446.84 161.09 433.72 161.09 427.19 183.72 440.31 183.73 446.84"/><polygon class="cls-47" points="183.73 446.85 161.09 433.73 155.43 437 178.07 450.11 183.73 446.85"/><polygon class="cls-48" points="178.07 456.64 155.43 443.53 155.43 437 178.07 450.11 178.07 456.64"/><polygon class="cls-49" points="189.38 436.99 189.38 430.46 195.04 427.19 195.04 420.61 200.68 417.4 200.68 410.87 206.34 407.61 206.34 401.08 212 397.81 212 391.28 236.02 373.63 236.02 373.63 183.73 453.31 178.06 456.58 178.06 450.05 183.73 446.84 183.73 440.25 189.38 436.99"/><polygon class="cls-47" points="472.83 234.9 467.48 158.17 461.33 153.32 412.43 191.29 418.49 195.47 432.38 204.6 395.76 324.08 296.05 373.6 266.89 469.19 272.68 472.95 318.31 393.19 418.54 348.27 455.45 221.88 472.83 234.9"/><polygon class="cls-50" points="478 240.04 467.39 157.49 418.49 195.47 437.55 209.74 400.92 329.22 301.22 378.74 272.68 472.95 306.56 454.18 323.48 398.33 423.33 348.75 460.61 227.02 478 240.04"/><path class="cls-51" d="M251.82,355.19s-.48,3.7-.14,4.55,2.31.67,3,.46c2.44-.69,8.3-3.6,8.15-6-.06-1-1.54-.88-3.93.24s-3.73.92-4,.22S251.82,355.19,251.82,355.19Z" transform="translate(0.33 -7.96)"/><path class="cls-51" d="M230,351.23s-.48,3.7-.15,4.55,2.31.67,3.06.46c2.43-.69,8.29-3.6,8.15-6-.07-1-1.55-.89-3.94.23s-3.73.93-4,.23S230,351.23,230,351.23Z" transform="translate(0.33 -7.96)"/><path class="cls-52" d="M220.67,242.18s-5.18,5.46-5.8,24.27c1,3.6,10,1.53,11.09,0s0-4.83,0-4.83h-4.53l1.37-9Z" transform="translate(0.33 -7.96)"/><path class="cls-53" d="M222.8,252.57l-2.13-11.37s-5,3.69-6.51,16.65a17,17,0,0,0,7.48,2.41Z" transform="translate(0.33 -7.96)"/><path class="cls-54" d="M229.25,351.33c-.22-3.27-2-33.54-2.07-34.54a128.62,128.62,0,0,0-3.92-19.66c-1.85-7.26-1.61-16.51-1.61-16.51l16.93.71s-1.2,14.56-1,32.67c0,3.39-3,33.88-3,37.18Z" transform="translate(0.33 -7.96)"/><path class="cls-55" d="M244.72,319.26c-1.45-3.38-7.79-16-9.24-19.16-6.81-12.84-5.78-18.64-5.78-18.64l21.16-.84s2,30.93,3.69,37.59c.26,1.06,1.11,36.3,1.33,37.18l-4.31.41Z" transform="translate(0.33 -7.96)"/><polygon class="cls-56" points="236.76 336.07 240.35 337.99 272.82 291.6 269.23 289.68 236.76 308.42 236.76 336.07"/><polygon class="cls-57" points="240.35 337.99 272.82 319.24 272.82 291.6 240.35 310.34 240.35 337.99"/><polygon class="cls-58" points="240.84 324.58 274.05 305.41 274.05 290.86 240.84 310.03 240.84 324.58"/><polygon class="cls-59" points="236.76 308.42 269.23 289.68 274.05 290.86 240.84 310.03 236.76 308.42"/><path class="cls-60" d="M249.74,311.34l-1.27-.54,2.3-1.53c.16-1.45,1.14-7.75,5.61-8.65,2.42-.39,4.1,1.54,4.76,2.48l1.8-1,1.43.52-3.64,2.07-.28-.51s-1.59-2.76-3.86-2.4c-4.07.82-4.69,7.81-4.7,7.88l0,.28Z" transform="translate(0.33 -7.96)"/><path class="cls-61" d="M240.12,219.46a5.14,5.14,0,0,1,4.79,3.71,2.87,2.87,0,0,1,.12,1.71,7.37,7.37,0,0,0,.56,3.9c.82,2.24-.76,6.1-2.25,8a3.17,3.17,0,0,1-3.18-.72L239,240.09l-9-2.3a16.54,16.54,0,0,0,0-8.18c-1.08-5-.68-7.45,2.56-9.11s7.56-1,7.56-1" transform="translate(0.33 -7.96)"/><path class="cls-62" d="M243.51,213.41s-2.38,1.6-9.66,2.11-7.54,5.56-6.55,8.14c-2.16.8,2.49,8.7,2.49,11.77a9.09,9.09,0,0,0,7.32-.45,6.65,6.65,0,0,0,.56-5.15c-.92-2.72.78-5.37,1.87-4.63.23.16.56,4.47.75,4.52a2.44,2.44,0,0,0,.54,0c.32-.08-.09-1.18.25-3,.16-.89,1.33-2.76,1.27-3.26a17.41,17.41,0,0,0-.83-2.63l1.57-.26s1.72.17,1.71-1.48a15.52,15.52,0,0,0-1.29-5.64" transform="translate(0.33 -7.96)"/><path class="cls-48" d="M251.55,247.37s-4-4.72-12.35-7.82a40.35,40.35,0,0,0-8.35-2,12.91,12.91,0,0,0-11.6,5.23c-1.38,1.81-3.29,6.66-.56,13.44s2,15.16,2.45,18.56c.59,4.31-.47,16-.47,16s.25.91,6.32,2.08l3.18.62c6.3.79,12.36,1.3,21.39-3.25-.9-5-2.34-15.76-3.3-20.44s3.29-22.48,3.29-22.48" transform="translate(0.33 -7.96)"/><path class="cls-63" d="M251.56,261.41s-.41,10.9,0,13.72,7.95,22,8.59,25.18-2.33,6.3-5.28,5.07c-1.61-.67-1.45-1.28-1.14-1.68a16.19,16.19,0,0,1,2.09-1.79s-.83-4.24-2.75-6-7.89-14.51-8.27-20.09,0-14,0-14Z" transform="translate(0.33 -7.96)"/><path class="cls-53" d="M251.28,247.11a4.84,4.84,0,0,0-1.73-1.22c-3.91-1.93-6.61,1.37-6.76,8.49a74.17,74.17,0,0,0,.31,8.71c2.82.12,6.81.18,9.79.18.28-2.43-.14-5.81.05-8C253.36,250.48,252.77,249,251.28,247.11Z" transform="translate(0.33 -7.96)"/></g></g></svg>