<svg xmlns="http://www.w3.org/2000/svg" xmlns:xlink="http://www.w3.org/1999/xlink" viewBox="0 0 591.97 639"><defs><style>.cls-1{isolation:isolate;}.cls-2{fill:#008aff;}.cls-3{fill:#1a2e35;}.cls-4{fill:url(#linear-gradient);}.cls-5{fill:#68b2ff;}.cls-6{fill:#6fcafa;}.cls-7{fill:#abdefb;}.cls-8{fill:#0088e8;}.cls-9{fill:#0065c3;}.cls-10{fill:#00a6f7;}.cls-11{fill:#8f19a6;}.cls-12{fill:url(#linear-gradient-2);}.cls-13{fill:#c445c0;}.cls-14,.cls-32{fill:#fff;}.cls-14{opacity:0.34;}.cls-15{fill:url(#linear-gradient-3);}.cls-16{opacity:0.69;mix-blend-mode:screen;}.cls-17{fill:#00ffd8;}.cls-18{fill:#8a4cff;}.cls-19{fill:#ff3eff;}.cls-20{fill:#ff3e83;}.cls-21{fill:url(#linear-gradient-4);}.cls-22{fill:url(#linear-gradient-5);}.cls-23{fill:#94ebf2;mix-blend-mode:overlay;}.cls-24{fill:#ff80ff;}.cls-25{fill:#007aff;}.cls-26{fill:#0077d5;}.cls-27{fill:#8a56c5;}.cls-28{fill:#6a32b5;}.cls-29{fill:#ff6294;}.cls-30{fill:#ff3e7d;}.cls-31{fill:#ff80ad;}</style><linearGradient id="linear-gradient" x1="29.41" y1="484.79" x2="328.01" y2="186.19" gradientUnits="userSpaceOnUse"><stop offset="0" stop-color="#ff25be"/><stop offset="0.99" stop-color="#008aff"/></linearGradient><linearGradient id="linear-gradient-2" x1="185.27" y1="526.94" x2="382.45" y2="526.94" gradientUnits="userSpaceOnUse"><stop offset="0.01" stop-color="#ff8a80"/><stop offset="1" stop-color="#ff25be"/></linearGradient><linearGradient id="linear-gradient-3" x1="414.3" y1="529.72" x2="574.46" y2="529.72" xlink:href="#linear-gradient"/><linearGradient id="linear-gradient-4" x1="45" y1="408.22" x2="315.15" y2="138.07" gradientUnits="userSpaceOnUse"><stop offset="0" stop-color="#1a2e35"/><stop offset="0.28" stop-color="#1f2e3e" stop-opacity="0.93"/><stop offset="0.55" stop-color="#2d2d58" stop-opacity="0.71"/><stop offset="0.82" stop-color="#452b83" stop-opacity="0.34"/><stop offset="1" stop-color="#5b29ac" stop-opacity="0"/></linearGradient><linearGradient id="linear-gradient-5" x1="65.21" y1="201.9" x2="294.54" y2="201.9" xlink:href="#linear-gradient-2"/></defs><title>svg1</title><g class="cls-1"><g id="Layer_1" data-name="Layer 1"><g class="cls-1"><path class="cls-2" d="M33.53,326l0-.51a1.94,1.94,0,0,1,0-.24v-.1c0-.06,0-.12,0-.18a4.88,4.88,0,0,1,.06-.52c0-.17,0-.35.07-.53h0v0c0-.17,0-.34.08-.5l.12-.56c0-.06,0-.13,0-.19l0-.12.06-.24c0-.19.09-.38.14-.56l.12-.42,0-.07a.19.19,0,0,1,0-.07c0-.19.11-.37.17-.55l.19-.54a1,1,0,0,1,0-.1l0-.08a3.42,3.42,0,0,1,.13-.34c.06-.17.13-.34.2-.51s.11-.25.16-.38l0-.06,0-.07.23-.51.27-.56,0-.09.06-.11.22-.44.31-.55.15-.27a.6.6,0,0,0,.06-.11l.29-.46.44-.69.06-.11c.22-.32.44-.64.68-.95h0c.15-.21.31-.42.47-.62l.39-.49h0l.41-.47.42-.46.07-.08.07-.07.29-.31.45-.44.14-.14.11-.09.22-.21.47-.41.21-.17.11-.09.15-.12.47-.36.34-.24.06-.05.06,0,.45-.3.45-.27.11-.06,254.55-147L299,161l.44-.23.28-.13.06,0,.09,0,.42-.18.43-.16.07,0,.07,0,.29-.1c.15,0,.29-.09.44-.12l.2,0,.1,0,.13,0,.47-.07a2.48,2.48,0,0,1,.27,0h.2l.5,0H304a6,6,0,0,1,.61.09h0l.13,0a5.9,5.9,0,0,1,.6.17l.05,0a5,5,0,0,1,.81.38l4.12,2.39a5.58,5.58,0,0,0-.82-.38c-.21-.07-.42-.13-.64-.18l-.13,0a6.72,6.72,0,0,0-.8-.1h-.16a7.36,7.36,0,0,0-.81,0h-.1c-.29,0-.58.07-.88.13l-.09,0a7,7,0,0,0-.94.26l-.06,0c-.33.11-.67.25-1,.4l-.07,0c-.34.17-.7.35-1.05.55l-254.56,147c-.36.21-.71.43-1.06.68l-.06,0c-.33.23-.65.47-1,.72l-.1.09c-.31.25-.61.51-.9.79a.52.52,0,0,0-.11.1c-.3.28-.59.57-.88.88l-.07.07q-.47.49-.9,1h0a26.48,26.48,0,0,0-1.61,2.17c-.15.23-.28.46-.43.68s-.24.39-.35.58l-.15.27c-.19.33-.37.66-.54,1l0,.1c-.21.41-.4.82-.58,1.23l0,.06c-.18.41-.34.82-.49,1.22l0,.09c-.16.42-.3.84-.43,1.26a.64.64,0,0,1,0,.07q-.18.62-.33,1.23l0,.11c-.1.41-.18.83-.25,1.25v0c-.07.42-.12.83-.15,1.25,0,0,0,.06,0,.1,0,.41,0,.82,0,1.22l.55,194.66-4.11-2.39-.55-194.66Z" transform="translate(0.21 -1)"/><path class="cls-3" d="M48.22,310.56c-5.86,3.39-10.6,11.58-10.58,18.31l.55,194.66L314,364.31l-.55-194.66c0-6.73-4.78-9.45-10.65-6.06Z" transform="translate(0.21 -1)"/></g><polygon class="cls-4" points="46.71 332.6 47.16 492.91 305.07 344 304.62 183.69 46.71 332.6"/><g class="cls-1"><path class="cls-5" d="M33.84,518.25c0,.17,0,.33.06.5s.07.27.1.41a3.64,3.64,0,0,0,.14.47c0,.13.11.26.16.39s.15.33.23.5l.22.35a6,6,0,0,0,.37.56l.26.32a8.94,8.94,0,0,0,.67.72,3.31,3.31,0,0,0,.27.26c.15.14.32.27.48.4l.45.36.57.38c.2.13.39.26.61.39l156.42,90.9a17.42,17.42,0,0,0,2.22,1.05l.62.24c.48.17,1,.31,1.5.46s1.05.28,1.59.39,1.27.25,1.93.33l.47.07c.88.09,1.78.14,2.68.15h.42a25.79,25.79,0,0,0,2.64-.15l.39,0a23.57,23.57,0,0,0,2.56-.44l.46-.11a22.44,22.44,0,0,0,2.2-.67l.39-.13a18.11,18.11,0,0,0,2.43-1.15L477.47,465c3.14-1.81,4.7-4.18,4.69-6.56l0,7.94c0,2.37-1.56,4.74-4.69,6.55L217.37,623.1a18.07,18.07,0,0,1-2.3,1.1l-.13,0-.38.13c-.47.17-.93.34-1.42.48l-.79.19-.46.12-.41.1c-.52.11-1,.2-1.58.27l-.56.07-.4,0-.58.06c-.52,0-1,.08-1.57.09h-1.62q-.88,0-1.77-.12l-.2,0-.47-.07c-.45-.06-.91-.11-1.35-.19-.2,0-.38-.1-.58-.14-.54-.11-1.07-.25-1.59-.4-.28-.08-.57-.12-.84-.21s-.44-.17-.66-.25l-.62-.23a16.2,16.2,0,0,1-2.22-1.06L38.45,532.19l-.2-.11-.41-.28-.57-.38a5.2,5.2,0,0,1-.44-.35l-.49-.4-.1-.08-.16-.18a9.2,9.2,0,0,1-.68-.73l-.15-.16-.11-.16c-.13-.18-.26-.37-.37-.55l-.16-.24,0-.12c-.09-.16-.16-.33-.24-.49s-.09-.19-.13-.29l0-.1c-.06-.16-.09-.32-.14-.48s-.07-.21-.09-.32a.19.19,0,0,0,0-.08c0-.17,0-.34-.06-.5s0-.22,0-.33v-.14l0-7.94C33.8,517.94,33.83,518.09,33.84,518.25Z" transform="translate(0.21 -1)"/><path class="cls-2" d="M38.5,511.22c-6.24,3.61-6.26,9.44-.07,13l156.42,90.9c6.2,3.6,16.26,3.6,22.5,0L477.47,465c6.23-3.6,6.26-9.43.07-13l-156.43-90.9c-6.19-3.6-16.26-3.61-22.49,0Z" transform="translate(0.21 -1)"/></g><path class="cls-6" d="M50.45,515.07c-2.91,1.68-2.94,4.4,0,6.08l150,87.16a11.59,11.59,0,0,0,10.51,0l254.64-147c2.91-1.68,2.92-4.4,0-6.08l-150-87.16a11.56,11.56,0,0,0-10.51,0Z" transform="translate(0.21 -1)"/><path class="cls-7" d="M261,543.19l19.09,11.1a6.54,6.54,0,0,0,6.53,0l101.24-58.46a2.58,2.58,0,0,0,0-4.46l-19.09-11.1a6.54,6.54,0,0,0-6.53,0L261,538.72A2.58,2.58,0,0,0,261,543.19Z" transform="translate(0.21 -1)"/><g class="cls-1"><polygon class="cls-8" points="288.31 380.49 288.32 385.03 295.52 389.21 295.5 384.67 288.31 380.49"/><polygon class="cls-9" points="295.5 384.67 295.52 389.21 309.98 380.86 309.97 376.32 295.5 384.67"/><polygon class="cls-10" points="288.31 380.49 295.5 384.67 309.97 376.32 302.77 372.14 288.31 380.49"/></g><g class="cls-1"><polygon class="cls-8" points="266.17 393.27 266.18 397.81 273.38 402 273.37 397.45 266.17 393.27"/><polygon class="cls-9" points="273.37 397.45 273.38 402 287.86 393.64 287.84 389.09 273.37 397.45"/><polygon class="cls-10" points="266.17 393.27 273.37 397.45 287.84 389.09 280.65 384.91 266.17 393.27"/></g><g class="cls-1"><polygon class="cls-8" points="244.03 406.05 244.04 410.59 251.24 414.78 251.23 410.24 244.03 406.05"/><polygon class="cls-9" points="251.23 410.24 251.24 414.78 265.72 406.42 265.7 401.88 251.23 410.24"/><polygon class="cls-10" points="244.03 406.05 251.23 410.24 265.7 401.88 258.51 397.69 244.03 406.05"/></g><g class="cls-1"><polygon class="cls-8" points="221.89 418.83 221.9 423.38 229.1 427.56 229.09 423.02 221.89 418.83"/><polygon class="cls-9" points="229.09 423.02 229.1 427.56 243.58 419.2 243.57 414.66 229.09 423.02"/><polygon class="cls-10" points="221.89 418.83 229.09 423.02 243.57 414.66 236.37 410.47 221.89 418.83"/></g><g class="cls-1"><polygon class="cls-8" points="199.75 431.62 199.76 436.16 206.96 440.34 206.95 435.8 199.75 431.62"/><polygon class="cls-9" points="206.95 435.8 206.96 440.34 221.44 431.98 221.43 427.44 206.95 435.8"/><polygon class="cls-10" points="199.75 431.62 206.95 435.8 221.43 427.44 214.23 423.26 199.75 431.62"/></g><g class="cls-1"><polygon class="cls-8" points="177.63 444.39 177.64 448.93 184.84 453.12 184.82 448.57 177.63 444.39"/><polygon class="cls-9" points="184.82 448.57 184.84 453.12 199.3 444.76 199.29 440.22 184.82 448.57"/><polygon class="cls-10" points="177.63 444.39 184.82 448.57 199.29 440.22 192.09 436.04 177.63 444.39"/></g><g class="cls-1"><polygon class="cls-8" points="155.49 457.17 155.5 461.71 162.7 465.9 162.68 461.36 155.49 457.17"/><polygon class="cls-9" points="162.68 461.36 162.7 465.9 177.16 457.55 177.15 453 162.68 461.36"/><polygon class="cls-10" points="155.49 457.17 162.68 461.36 177.15 453 169.95 448.82 155.49 457.17"/></g><g class="cls-1"><polygon class="cls-8" points="133.35 469.95 133.36 474.5 140.56 478.68 140.55 474.14 133.35 469.95"/><polygon class="cls-9" points="140.55 474.14 140.56 478.68 155.04 470.32 155.02 465.78 140.55 474.14"/><polygon class="cls-10" points="133.35 469.95 140.55 474.14 155.02 465.78 147.83 461.6 133.35 469.95"/></g><g class="cls-1"><polygon class="cls-8" points="111.21 482.74 111.22 487.28 118.42 491.46 118.41 486.92 111.21 482.74"/><polygon class="cls-9" points="118.41 486.92 118.42 491.46 132.9 483.1 132.88 478.56 118.41 486.92"/><polygon class="cls-10" points="111.21 482.74 118.41 486.92 132.88 478.56 125.69 474.38 111.21 482.74"/></g><g class="cls-1"><polygon class="cls-8" points="89.07 495.52 89.08 500.06 96.28 504.24 96.27 499.7 89.07 495.52"/><polygon class="cls-9" points="96.27 499.7 96.28 504.24 110.76 495.88 110.75 491.34 96.27 499.7"/><polygon class="cls-10" points="89.07 495.52 96.27 499.7 110.75 491.34 103.55 487.16 89.07 495.52"/></g><g class="cls-1"><polygon class="cls-8" points="66.94 508.29 66.96 512.83 74.15 517.02 74.14 512.48 66.94 508.29"/><polygon class="cls-9" points="74.14 512.48 74.15 517.02 88.62 508.67 88.61 504.12 74.14 512.48"/><polygon class="cls-10" points="66.94 508.29 74.14 512.48 88.61 504.12 81.41 499.94 66.94 508.29"/></g><g class="cls-1"><polygon class="cls-8" points="302.27 388.6 302.28 393.14 316.66 401.5 316.65 396.96 302.27 388.6"/><polygon class="cls-9" points="316.65 396.96 316.66 401.5 331.13 393.15 331.12 388.61 316.65 396.96"/><polygon class="cls-10" points="302.27 388.6 316.65 396.96 331.12 388.61 316.73 380.25 302.27 388.6"/></g><g class="cls-1"><polygon class="cls-8" points="280.13 401.38 280.14 405.93 294.52 414.28 294.51 409.74 280.13 401.38"/><polygon class="cls-9" points="294.51 409.74 294.52 414.28 309 405.93 308.99 401.38 294.51 409.74"/><polygon class="cls-10" points="280.13 401.38 294.51 409.74 308.99 401.38 294.61 393.02 280.13 401.38"/></g><g class="cls-1"><polygon class="cls-8" points="257.99 414.17 258 418.71 272.39 427.07 272.37 422.52 257.99 414.17"/><polygon class="cls-9" points="272.37 422.52 272.39 427.07 286.86 418.71 286.85 414.17 272.37 422.52"/><polygon class="cls-10" points="257.99 414.17 272.37 422.52 286.85 414.17 272.47 405.81 257.99 414.17"/></g><g class="cls-1"><polygon class="cls-8" points="235.85 426.95 235.86 431.49 250.25 439.85 250.24 435.31 235.85 426.95"/><polygon class="cls-9" points="250.24 435.31 250.25 439.85 264.73 431.49 264.71 426.95 250.24 435.31"/><polygon class="cls-10" points="235.85 426.95 250.24 435.31 264.71 426.95 250.33 418.59 235.85 426.95"/></g><g class="cls-1"><polygon class="cls-8" points="213.71 439.73 213.72 444.27 228.11 452.63 228.1 448.09 213.71 439.73"/><polygon class="cls-9" points="228.1 448.09 228.11 452.63 242.59 444.27 242.57 439.73 228.1 448.09"/><polygon class="cls-10" points="213.71 439.73 228.1 448.09 242.57 439.73 228.19 431.37 213.71 439.73"/></g><g class="cls-1"><polygon class="cls-8" points="191.59 452.5 191.6 457.05 205.98 465.4 205.97 460.86 191.59 452.5"/><polygon class="cls-9" points="205.97 460.86 205.98 465.4 220.45 457.05 220.44 452.51 205.97 460.86"/><polygon class="cls-10" points="191.59 452.5 205.97 460.86 220.44 452.51 206.05 444.15 191.59 452.5"/></g><g class="cls-1"><polygon class="cls-8" points="169.45 465.29 169.46 469.83 183.84 478.19 183.83 473.64 169.45 465.29"/><polygon class="cls-9" points="183.83 473.64 183.84 478.19 198.31 469.83 198.3 465.29 183.83 473.64"/><polygon class="cls-10" points="169.45 465.29 183.83 473.64 198.3 465.29 183.91 456.93 169.45 465.29"/></g><g class="cls-1"><polygon class="cls-8" points="147.31 478.07 147.32 482.61 161.71 490.97 161.69 486.43 147.31 478.07"/><polygon class="cls-9" points="161.69 486.43 161.71 490.97 176.18 482.61 176.17 478.07 161.69 486.43"/><polygon class="cls-10" points="147.31 478.07 161.69 486.43 176.17 478.07 161.79 469.71 147.31 478.07"/></g><g class="cls-1"><polygon class="cls-8" points="125.17 490.85 125.18 495.39 139.57 503.75 139.55 499.21 125.17 490.85"/><polygon class="cls-9" points="139.55 499.21 139.57 503.75 154.04 495.39 154.03 490.85 139.55 499.21"/><polygon class="cls-10" points="125.17 490.85 139.55 499.21 154.03 490.85 139.65 482.49 125.17 490.85"/></g><g class="cls-1"><polygon class="cls-8" points="103.03 503.63 103.04 508.17 117.43 516.53 117.42 511.99 103.03 503.63"/><polygon class="cls-9" points="117.42 511.99 117.43 516.53 131.91 508.17 131.89 503.63 117.42 511.99"/><polygon class="cls-10" points="103.03 503.63 117.42 511.99 131.89 503.63 117.51 495.27 103.03 503.63"/></g><g class="cls-1"><polygon class="cls-8" points="80.9 516.4 80.92 520.95 95.3 529.31 95.29 524.76 80.9 516.4"/><polygon class="cls-9" points="95.29 524.76 95.3 529.31 109.77 520.95 109.75 516.41 95.29 524.76"/><polygon class="cls-10" points="80.9 516.4 95.29 524.76 109.75 516.41 95.37 508.05 80.9 516.4"/></g><g class="cls-1"><polygon class="cls-8" points="323.41 400.89 323.43 405.43 337.81 413.79 337.8 409.25 323.41 400.89"/><polygon class="cls-9" points="337.8 409.25 337.81 413.79 352.28 405.44 352.26 400.9 337.8 409.25"/><polygon class="cls-10" points="323.41 400.89 337.8 409.25 352.26 400.9 337.88 392.54 323.41 400.89"/></g><g class="cls-1"><polygon class="cls-8" points="301.27 413.67 301.29 418.21 315.67 426.57 315.66 422.03 301.27 413.67"/><polygon class="cls-9" points="315.66 422.03 315.67 426.57 330.15 418.21 330.14 413.67 315.66 422.03"/><polygon class="cls-10" points="301.27 413.67 315.66 422.03 330.14 413.67 315.75 405.31 301.27 413.67"/></g><g class="cls-1"><polygon class="cls-8" points="279.13 426.45 279.15 431 293.53 439.36 293.52 434.81 279.13 426.45"/><polygon class="cls-9" points="293.52 434.81 293.53 439.36 308.01 431 308 426.45 293.52 434.81"/><polygon class="cls-10" points="279.13 426.45 293.52 434.81 308 426.45 293.61 418.1 279.13 426.45"/></g><g class="cls-1"><polygon class="cls-8" points="257 439.24 257.01 443.78 271.39 452.14 271.38 447.6 257 439.24"/><polygon class="cls-9" points="271.38 447.6 271.39 452.14 285.87 443.78 285.86 439.24 271.38 447.6"/><polygon class="cls-10" points="257 439.24 271.38 447.6 285.86 439.24 271.48 430.88 257 439.24"/></g><g class="cls-1"><polygon class="cls-8" points="234.86 452.02 234.87 456.56 249.25 464.92 249.24 460.38 234.86 452.02"/><polygon class="cls-9" points="249.24 460.38 249.25 464.92 263.73 456.56 263.72 452.02 249.24 460.38"/><polygon class="cls-10" points="234.86 452.02 249.24 460.38 263.72 452.02 249.34 443.66 234.86 452.02"/></g><g class="cls-1"><polygon class="cls-8" points="212.73 464.79 212.74 469.33 227.13 477.69 227.12 473.15 212.73 464.79"/><polygon class="cls-9" points="227.12 473.15 227.13 477.69 241.59 469.34 241.58 464.8 227.12 473.15"/><polygon class="cls-10" points="212.73 464.79 227.12 473.15 241.58 464.8 227.2 456.44 212.73 464.79"/></g><g class="cls-1"><polygon class="cls-8" points="190.59 477.57 190.61 482.12 204.99 490.48 204.98 485.93 190.59 477.57"/><polygon class="cls-9" points="204.98 485.93 204.99 490.48 219.46 482.12 219.44 477.58 204.98 485.93"/><polygon class="cls-10" points="190.59 477.57 204.98 485.93 219.44 477.58 205.06 469.22 190.59 477.57"/></g><g class="cls-1"><polygon class="cls-8" points="168.45 490.36 168.47 494.9 182.85 503.26 182.84 498.71 168.45 490.36"/><polygon class="cls-9" points="182.84 498.71 182.85 503.26 197.33 494.9 197.32 490.36 182.84 498.71"/><polygon class="cls-10" points="168.45 490.36 182.84 498.71 197.32 490.36 182.93 482 168.45 490.36"/></g><g class="cls-1"><polygon class="cls-8" points="146.32 503.14 146.33 507.68 160.71 516.04 160.7 511.5 146.32 503.14"/><polygon class="cls-9" points="160.7 511.5 160.71 516.04 175.19 507.68 175.18 503.14 160.7 511.5"/><polygon class="cls-10" points="146.32 503.14 160.7 511.5 175.18 503.14 160.79 494.78 146.32 503.14"/></g><g class="cls-1"><polygon class="cls-8" points="124.18 515.92 124.19 520.46 138.57 528.82 138.56 524.28 124.18 515.92"/><polygon class="cls-9" points="138.56 524.28 138.57 528.82 153.05 520.46 153.04 515.92 138.56 524.28"/><polygon class="cls-10" points="124.18 515.92 138.56 524.28 153.04 515.92 138.66 507.56 124.18 515.92"/></g><g class="cls-1"><polygon class="cls-8" points="102.05 528.69 102.06 533.24 116.45 541.6 116.44 537.05 102.05 528.69"/><polygon class="cls-9" points="116.44 537.05 116.45 541.6 130.91 533.24 130.9 528.7 116.44 537.05"/><polygon class="cls-10" points="102.05 528.69 116.44 537.05 130.9 528.7 116.52 520.34 102.05 528.69"/></g><g class="cls-1"><polygon class="cls-8" points="344.56 413.18 344.57 417.72 358.96 426.08 358.94 421.54 344.56 413.18"/><polygon class="cls-9" points="358.94 421.54 358.96 426.08 373.42 417.73 373.41 413.19 358.94 421.54"/><polygon class="cls-10" points="344.56 413.18 358.94 421.54 373.41 413.19 359.03 404.83 344.56 413.18"/></g><g class="cls-1"><polygon class="cls-8" points="322.42 425.96 322.43 430.5 336.82 438.86 336.81 434.32 322.42 425.96"/><polygon class="cls-9" points="336.81 434.32 336.82 438.86 351.3 430.5 351.28 425.96 336.81 434.32"/><polygon class="cls-10" points="322.42 425.96 336.81 434.32 351.28 425.96 336.9 417.6 322.42 425.96"/></g><g class="cls-1"><polygon class="cls-8" points="300.28 438.74 300.3 443.29 314.68 451.64 314.67 447.1 300.28 438.74"/><polygon class="cls-9" points="314.67 447.1 314.68 451.64 329.16 443.29 329.14 438.74 314.67 447.1"/><polygon class="cls-10" points="300.28 438.74 314.67 447.1 329.14 438.74 314.76 430.38 300.28 438.74"/></g><g class="cls-1"><polygon class="cls-8" points="278.14 451.52 278.16 456.07 292.54 464.43 292.53 459.88 278.14 451.52"/><polygon class="cls-9" points="292.53 459.88 292.54 464.43 307.02 456.07 307.01 451.52 292.53 459.88"/><polygon class="cls-10" points="278.14 451.52 292.53 459.88 307.01 451.52 292.62 443.17 278.14 451.52"/></g><g class="cls-1"><polygon class="cls-8" points="256 464.31 256.02 468.85 270.4 477.21 270.39 472.67 256 464.31"/><polygon class="cls-9" points="270.39 472.67 270.4 477.21 284.88 468.85 284.87 464.31 270.39 472.67"/><polygon class="cls-10" points="256 464.31 270.39 472.67 284.87 464.31 270.48 455.95 256 464.31"/></g><g class="cls-1"><polygon class="cls-8" points="233.88 477.08 233.89 481.62 248.28 489.98 248.26 485.44 233.88 477.08"/><polygon class="cls-9" points="248.26 485.44 248.28 489.98 262.74 481.63 262.73 477.09 248.26 485.44"/><polygon class="cls-10" points="233.88 477.08 248.26 485.44 262.73 477.09 248.34 468.73 233.88 477.08"/></g><g class="cls-1"><polygon class="cls-8" points="211.74 489.86 211.75 494.4 226.14 502.76 226.12 498.22 211.74 489.86"/><polygon class="cls-9" points="226.12 498.22 226.14 502.76 240.6 494.41 240.59 489.87 226.12 498.22"/><polygon class="cls-10" points="211.74 489.86 226.12 498.22 240.59 489.87 226.21 481.51 211.74 489.86"/></g><g class="cls-1"><polygon class="cls-8" points="189.6 502.64 189.61 507.19 204 515.55 203.99 511 189.6 502.64"/><polygon class="cls-9" points="203.99 511 204 515.55 218.48 507.19 218.46 502.64 203.99 511"/><polygon class="cls-10" points="189.6 502.64 203.99 511 218.46 502.64 204.08 494.29 189.6 502.64"/></g><g class="cls-1"><polygon class="cls-8" points="167.46 515.43 167.47 519.97 181.86 528.33 181.85 523.78 167.46 515.43"/><polygon class="cls-9" points="181.85 523.78 181.86 528.33 196.34 519.97 196.32 515.43 181.85 523.78"/><polygon class="cls-10" points="167.46 515.43 181.85 523.78 196.32 515.43 181.94 507.07 167.46 515.43"/></g><g class="cls-1"><polygon class="cls-8" points="145.32 528.21 145.34 532.75 159.72 541.11 159.71 536.57 145.32 528.21"/><polygon class="cls-9" points="159.71 536.57 159.72 541.11 174.2 532.75 174.19 528.21 159.71 536.57"/><polygon class="cls-10" points="145.32 528.21 159.71 536.57 174.19 528.21 159.8 519.85 145.32 528.21"/></g><g class="cls-1"><polygon class="cls-8" points="123.2 540.98 123.21 545.52 137.59 553.88 137.58 549.34 123.2 540.98"/><polygon class="cls-9" points="137.58 549.34 137.59 553.88 152.06 545.53 152.05 540.99 137.58 549.34"/><polygon class="cls-10" points="123.2 540.98 137.58 549.34 152.05 540.99 137.66 532.63 123.2 540.98"/></g><g class="cls-1"><polygon class="cls-8" points="365.71 425.47 365.72 430.01 380.1 438.37 380.09 433.83 365.71 425.47"/><polygon class="cls-9" points="380.09 433.83 380.1 438.37 394.57 430.02 394.56 425.48 380.09 433.83"/><polygon class="cls-10" points="365.71 425.47 380.09 433.83 394.56 425.48 380.17 417.12 365.71 425.47"/></g><g class="cls-1"><polygon class="cls-8" points="343.57 438.25 343.58 442.79 357.96 451.15 357.95 446.61 343.57 438.25"/><polygon class="cls-9" points="357.95 446.61 357.96 451.15 372.44 442.79 372.43 438.25 357.95 446.61"/><polygon class="cls-10" points="343.57 438.25 357.95 446.61 372.43 438.25 358.05 429.89 343.57 438.25"/></g><g class="cls-1"><polygon class="cls-8" points="321.43 451.03 321.44 455.57 335.83 463.93 335.81 459.39 321.43 451.03"/><polygon class="cls-9" points="335.81 459.39 335.83 463.93 350.3 455.57 350.29 451.03 335.81 459.39"/><polygon class="cls-10" points="321.43 451.03 335.81 459.39 350.29 451.03 335.91 442.67 321.43 451.03"/></g><g class="cls-1"><polygon class="cls-8" points="299.29 463.81 299.3 468.36 313.69 476.71 313.67 472.17 299.29 463.81"/><polygon class="cls-9" points="313.67 472.17 313.69 476.71 328.17 468.36 328.15 463.81 313.67 472.17"/><polygon class="cls-10" points="299.29 463.81 313.67 472.17 328.15 463.81 313.77 455.45 299.29 463.81"/></g><g class="cls-1"><polygon class="cls-8" points="277.15 476.6 277.16 481.14 291.55 489.5 291.54 484.95 277.15 476.6"/><polygon class="cls-9" points="291.54 484.95 291.55 489.5 306.03 481.14 306.01 476.6 291.54 484.95"/><polygon class="cls-10" points="277.15 476.6 291.54 484.95 306.01 476.6 291.63 468.24 277.15 476.6"/></g><g class="cls-1"><polygon class="cls-8" points="255.02 489.37 255.04 493.91 269.42 502.27 269.41 497.73 255.02 489.37"/><polygon class="cls-9" points="269.41 497.73 269.42 502.27 283.89 493.92 283.88 489.38 269.41 497.73"/><polygon class="cls-10" points="255.02 489.37 269.41 497.73 283.88 489.38 269.49 481.02 255.02 489.37"/></g><g class="cls-1"><polygon class="cls-8" points="232.89 502.15 232.9 506.69 247.28 515.05 247.27 510.51 232.89 502.15"/><polygon class="cls-9" points="247.27 510.51 247.28 515.05 261.75 506.7 261.74 502.16 247.27 510.51"/><polygon class="cls-10" points="232.89 502.15 247.27 510.51 261.74 502.16 247.35 493.8 232.89 502.15"/></g><g class="cls-1"><polygon class="cls-8" points="210.75 514.93 210.76 519.48 225.15 527.84 225.13 523.29 210.75 514.93"/><polygon class="cls-9" points="225.13 523.29 225.15 527.84 239.62 519.48 239.61 514.93 225.13 523.29"/><polygon class="cls-10" points="210.75 514.93 225.13 523.29 239.61 514.93 225.23 506.57 210.75 514.93"/></g><g class="cls-1"><polygon class="cls-8" points="188.61 527.72 188.62 532.26 203.01 540.62 202.99 536.07 188.61 527.72"/><polygon class="cls-9" points="202.99 536.07 203.01 540.62 217.48 532.26 217.47 527.72 202.99 536.07"/><polygon class="cls-10" points="188.61 527.72 202.99 536.07 217.47 527.72 203.09 519.36 188.61 527.72"/></g><g class="cls-1"><polygon class="cls-8" points="166.47 540.5 166.48 545.04 180.87 553.4 180.85 548.86 166.47 540.5"/><polygon class="cls-9" points="180.85 548.86 180.87 553.4 195.35 545.04 195.33 540.5 180.85 548.86"/><polygon class="cls-10" points="166.47 540.5 180.85 548.86 195.33 540.5 180.95 532.14 166.47 540.5"/></g><g class="cls-1"><polygon class="cls-8" points="144.34 553.27 144.36 557.81 158.74 566.17 158.73 561.63 144.34 553.27"/><polygon class="cls-9" points="158.73 561.63 158.74 566.17 173.21 557.82 173.19 553.28 158.73 561.63"/><polygon class="cls-10" points="144.34 553.27 158.73 561.63 173.19 553.28 158.81 544.92 144.34 553.27"/></g><g class="cls-1"><polygon class="cls-8" points="386.85 437.76 386.87 442.3 401.25 450.66 401.24 446.12 386.85 437.76"/><polygon class="cls-9" points="401.24 446.12 401.25 450.66 415.72 442.31 415.7 437.76 401.24 446.12"/><polygon class="cls-10" points="386.85 437.76 401.24 446.12 415.7 437.76 401.32 429.4 386.85 437.76"/></g><g class="cls-1"><polygon class="cls-8" points="364.71 450.54 364.73 455.08 379.11 463.44 379.1 458.9 364.71 450.54"/><polygon class="cls-9" points="379.1 458.9 379.11 463.44 393.59 455.08 393.58 450.54 379.1 458.9"/><polygon class="cls-10" points="364.71 450.54 379.1 458.9 393.58 450.54 379.19 442.18 364.71 450.54"/></g><g class="cls-1"><polygon class="cls-8" points="342.57 463.32 342.59 467.86 356.97 476.22 356.96 471.68 342.57 463.32"/><polygon class="cls-9" points="356.96 471.68 356.97 476.22 371.45 467.86 371.44 463.32 356.96 471.68"/><polygon class="cls-10" points="342.57 463.32 356.96 471.68 371.44 463.32 357.05 454.96 342.57 463.32"/></g><g class="cls-1"><polygon class="cls-8" points="320.44 476.1 320.45 480.64 334.83 489 334.82 484.46 320.44 476.1"/><polygon class="cls-9" points="334.82 484.46 334.83 489 349.31 480.64 349.3 476.1 334.82 484.46"/><polygon class="cls-10" points="320.44 476.1 334.82 484.46 349.3 476.1 334.92 467.74 320.44 476.1"/></g><g class="cls-1"><polygon class="cls-8" points="298.3 488.88 298.31 493.43 312.69 501.79 312.68 497.24 298.3 488.88"/><polygon class="cls-9" points="312.68 497.24 312.69 501.79 327.17 493.43 327.16 488.88 312.68 497.24"/><polygon class="cls-10" points="298.3 488.88 312.68 497.24 327.16 488.88 312.78 480.52 298.3 488.88"/></g><g class="cls-1"><polygon class="cls-8" points="276.17 501.66 276.18 506.2 290.57 514.56 290.56 510.02 276.17 501.66"/><polygon class="cls-9" points="290.56 510.02 290.57 514.56 305.04 506.21 305.02 501.67 290.56 510.02"/><polygon class="cls-10" points="276.17 501.66 290.56 510.02 305.02 501.67 290.64 493.31 276.17 501.66"/></g><g class="cls-1"><polygon class="cls-8" points="254.03 514.44 254.04 518.98 268.43 527.34 268.42 522.8 254.03 514.44"/><polygon class="cls-9" points="268.42 522.8 268.43 527.34 282.9 518.99 282.88 514.45 268.42 522.8"/><polygon class="cls-10" points="254.03 514.44 268.42 522.8 282.88 514.45 268.5 506.09 254.03 514.44"/></g><g class="cls-1"><polygon class="cls-8" points="231.89 527.22 231.91 531.76 246.29 540.12 246.28 535.58 231.89 527.22"/><polygon class="cls-9" points="246.28 535.58 246.29 540.12 260.77 531.76 260.76 527.22 246.28 535.58"/><polygon class="cls-10" points="231.89 527.22 246.28 535.58 260.76 527.22 246.37 518.86 231.89 527.22"/></g><g class="cls-1"><polygon class="cls-8" points="209.75 540 209.77 544.55 224.15 552.9 224.14 548.36 209.75 540"/><polygon class="cls-9" points="224.14 548.36 224.15 552.9 238.63 544.55 238.62 540 224.14 548.36"/><polygon class="cls-10" points="209.75 540 224.14 548.36 238.62 540 224.23 531.64 209.75 540"/></g><g class="cls-1"><polygon class="cls-8" points="187.62 552.79 187.63 557.33 202.01 565.69 202 561.14 187.62 552.79"/><polygon class="cls-9" points="202 561.14 202.01 565.69 216.49 557.33 216.48 552.79 202 561.14"/><polygon class="cls-10" points="187.62 552.79 202 561.14 216.48 552.79 202.09 544.43 187.62 552.79"/></g><g class="cls-1"><polygon class="cls-8" points="165.49 565.56 165.5 570.1 179.89 578.46 179.87 573.92 165.49 565.56"/><polygon class="cls-9" points="179.87 573.92 179.89 578.46 194.35 570.11 194.34 565.57 179.87 573.92"/><polygon class="cls-10" points="165.49 565.56 179.87 573.92 194.34 565.57 179.96 557.21 165.49 565.56"/></g><g class="cls-1"><path class="cls-11" d="M339.71,494.49c-1.87-1.07-3.81-2.08-5.8-3-.66-.32-1.37-.59-2.05-.9-1.17-.52-2.33-1.06-3.54-1.54l-.66-.24-1.38-.51q-2.37-.87-4.82-1.64l-1.65-.51c-.37-.11-.73-.24-1.1-.34-1.6-.46-3.23-.87-4.88-1.26-.34-.09-.69-.16-1-.24-.78-.18-1.56-.37-2.35-.53s-1.32-.22-2-.34c-1.4-.27-2.8-.52-4.22-.74-.56-.08-1.1-.21-1.66-.29s-1.25-.13-1.87-.21c-1.32-.16-2.65-.31-4-.44-.63-.06-1.25-.16-1.88-.21s-1.18,0-1.77-.09c-1.35-.1-2.69-.17-4-.22-.67,0-1.34-.09-2-.11s-1.08,0-1.61,0c-1.46,0-2.91,0-4.37,0-.72,0-1.44,0-2.16,0s-1.45.07-2.17.11l-1.2.06c-1.82.11-3.64.24-5.45.42-.33,0-.66.08-1,.12-.54.05-1.07.12-1.6.19-1.84.22-3.66.47-5.47.77l-1.38.22c-.22,0-.45.06-.67.11-.87.15-1.7.37-2.55.54-1.46.3-2.93.58-4.36.93-1.06.26-2.09.56-3.13.84-1.37.37-2.73.74-4.06,1.16-.3.09-.61.16-.9.26-1.62.52-3.21,1.09-4.78,1.68l-.63.26q-2.61,1-5.1,2.18l-1.45.68c-1.83.89-3.63,1.81-5.34,2.8l-1,.57-.87.55c-.49.3-1,.6-1.44.91l-1.25.85c-.46.31-.91.63-1.34.94s-.79.59-1.18.89l-1.23,1c-.38.3-.74.61-1.1.92l-1.13,1-.46.4-.4.41c-.62.58-1.21,1.17-1.78,1.77-.2.2-.41.41-.6.62-.72.79-1.41,1.58-2,2.39l-.08.09c-.15.19-.27.38-.41.56-.39.52-.77,1-1.13,1.55-.19.28-.37.56-.55.85q-.45.69-.87,1.41c-.07.12-.16.24-.23.37s-.2.39-.3.59c-.22.39-.42.79-.62,1.19s-.32.67-.46,1-.35.8-.51,1.2c-.07.18-.16.35-.22.53s-.11.33-.17.5c-.13.38-.26.76-.38,1.15s-.21.7-.3,1-.2.77-.29,1.15c0,.21-.11.42-.15.62s0,.29-.06.43c-.08.4-.14.8-.19,1.2s-.1.69-.13,1-.07.81-.09,1.21c0,.23,0,.46,0,.69s0,.47,0,.7l0,17.8c0-.47,0-.93.06-1.4s0-.8.09-1.2.08-.69.13-1,.11-.8.18-1.19.15-.7.22-1,.18-.77.29-1.16.19-.7.3-1.05.25-.76.38-1.15.25-.68.39-1,.33-.81.51-1.21.3-.66.46-1,.4-.79.62-1.19.34-.64.53-1,.57-.94.88-1.41c.18-.28.35-.56.54-.84.36-.53.75-1,1.14-1.57.16-.21.31-.42.48-.63.64-.81,1.33-1.61,2.05-2.4.19-.21.4-.41.6-.62.57-.6,1.16-1.19,1.78-1.77.28-.27.56-.54.86-.8l1.13-1c.36-.31.72-.61,1.1-.91s.81-.65,1.23-1l1.18-.88c.43-.32.88-.63,1.33-.94l1.27-.86,1.42-.9c.61-.38,1.21-.76,1.84-1.12,1.71-1,3.51-1.92,5.34-2.8.47-.24,1-.46,1.44-.69,1.67-.77,3.37-1.5,5.12-2.18l.62-.25c1.85-.7,3.75-1.34,5.68-1.94,1.33-.42,2.7-.79,4.06-1.16,1-.29,2.07-.59,3.13-.84,1.43-.35,2.9-.64,4.36-.94,1.07-.21,2.13-.46,3.22-.65l1.38-.22q2.71-.44,5.47-.77l1.59-.19q3.21-.34,6.44-.54l1.21-.06c1.44-.07,2.89-.09,4.33-.12s2.91,0,4.37,0c1.2,0,2.41.06,3.62.1s2.69.13,4,.22,2.44.19,3.65.3,2.66.28,4,.45,2.37.32,3.55.5c1.41.22,2.81.47,4.21.73s2.9.55,4.33.88l1,.23c2,.48,4,1,6,1.6l1.67.52q2.44.76,4.81,1.64c.46.17.93.33,1.38.51,1.44.55,2.83,1.17,4.21,1.78.68.3,1.38.58,2,.89,2,.95,3.93,1.95,5.8,3,15.6,9,23.39,20.85,23.35,32.68l.05-17.79C363.1,515.35,355.31,503.5,339.71,494.49Z" transform="translate(0.21 -1)"/><path class="cls-11" d="M382.38,529c0,.5-.06,1-.11,1.49s-.1.87-.16,1.3-.15,1-.24,1.48-.17.87-.27,1.3-.22,1-.35,1.45-.25.87-.38,1.3-.3,1-.47,1.43-.32.85-.49,1.28-.4,1-.63,1.5-.37.83-.58,1.24-.5,1-.76,1.49l-.67,1.19c-.34.59-.71,1.17-1.08,1.76l-.68,1.05c-.45.65-.93,1.3-1.42,1.94-.2.27-.39.53-.6.79-.79,1-1.65,2-2.56,3-.23.26-.49.51-.73.77-.71.74-1.45,1.48-2.22,2.21l-1.07,1-1.41,1.23c-.45.38-.9.76-1.37,1.14l-1.53,1.2c-.48.37-1,.74-1.47,1.1s-1.09.78-1.65,1.16-1,.72-1.58,1.07-1.17.75-1.77,1.12c-.76.47-1.5,1-2.29,1.4-1.47.86-3,1.67-4.53,2.46l-1.34.67c-1.19.59-2.4,1.15-3.63,1.71l-1.27.57q-2.42,1-4.9,2l-.86.31c-1.42.52-2.85,1-4.3,1.51l-1.8.58-2.4.73-2,.58-2.46.66-2.07.52-2.52.58-2.09.46-2.57.5-2,.38q-2.78.48-5.58.89l-.74.09c-1.65.22-3.31.42-5,.59l-1.89.19c-1.06.1-2.12.18-3.19.26l-2,.14c-1.11.07-2.23.12-3.34.17l-1.86.08c-1,0-1.93,0-2.9,0l-2,0-3.13,0-1.78,0c-1,0-1.94-.07-2.91-.11-.63,0-1.26,0-1.89-.08-1.06-.06-2.11-.14-3.16-.21l-1.64-.12c-1.45-.12-2.9-.26-4.34-.42l-.41,0c-1.58-.17-3.15-.37-4.72-.59l-1-.17c-1.24-.18-2.49-.37-3.73-.59l-1.73-.32c-1-.18-2-.36-3-.57l-1.63-.35c-1.1-.24-2.19-.48-3.27-.74l-1.85-.46-3-.79-1.7-.48c-1.58-.47-3.15-1-4.7-1.46l-.77-.25c-1.76-.6-3.49-1.24-5.21-1.91l-1.09-.43c-2.21-.89-4.39-1.83-6.5-2.84l-.65-.32c-2.21-1.07-4.37-2.19-6.44-3.39a69.93,69.93,0,0,1-19.91-16.45,47.76,47.76,0,0,1-3.63-5.19,42.07,42.07,0,0,1-2.73-5.34,37.71,37.71,0,0,1-1.81-5.44c-.22-.91-.41-1.83-.56-2.75a32.93,32.93,0,0,1-.44-5.51h0l-.05,17.79c0,14.73,9.66,29.48,29.08,40.69,2.07,1.2,4.23,2.32,6.44,3.39l.65.32c2.11,1,4.29,1.94,6.5,2.83l.58.25c.17.07.35.12.51.19,1.72.67,3.45,1.31,5.22,1.9l.75.25q2.33.76,4.71,1.46l.77.24c.3.09.62.16.93.24,1,.28,2,.54,3,.79l1.84.47c1.08.26,2.17.5,3.27.73l1.26.29.37.07c1,.2,2,.38,3,.57l1.73.32c1.24.21,2.48.4,3.72.59l1,.15h.06c1.57.22,3.15.42,4.73.6h.12c1.54.17,3.08.32,4.63.45h.07l1.52.1c1.06.08,2.12.16,3.19.22l2,.08,2.85.11h1.79c1,0,2.08,0,3.12,0l2,0,2.91-.06H290l1.34-.07c1.11,0,2.22-.1,3.33-.16l2-.14c1.07-.08,2.13-.17,3.2-.27L301,601l.76-.09c1.67-.18,3.34-.37,5-.6.24,0,.48-.05.71-.09q2.82-.39,5.6-.89c.18,0,.36-.05.53-.09.49-.08,1-.19,1.45-.28.86-.16,1.73-.33,2.58-.51s1.4-.3,2.09-.46,1.68-.37,2.52-.58,1.38-.34,2.08-.52l2.45-.65,2-.59,2.4-.73c.36-.11.72-.21,1.07-.33l.73-.25c1.45-.48,2.89-1,4.31-1.51l.84-.31c1.67-.63,3.3-1.3,4.91-2,.43-.18.84-.38,1.26-.57,1.24-.55,2.45-1.12,3.64-1.71l1.34-.67c1.54-.79,3.06-1.6,4.53-2.45l1.2-.71c.37-.22.72-.46,1.08-.69.6-.37,1.2-.74,1.78-1.12s1.06-.71,1.58-1.07,1.11-.77,1.65-1.16l1.47-1.1c.52-.4,1-.8,1.53-1.21s.92-.75,1.36-1.13,1-.82,1.42-1.24c.18-.16.39-.32.57-.49s.32-.34.5-.5c.77-.73,1.51-1.47,2.22-2.21.24-.26.5-.51.73-.77.91-1,1.77-2,2.56-3l.1-.11c.18-.23.32-.46.5-.68.49-.65,1-1.3,1.41-2,.24-.35.46-.7.69-1,.37-.58.74-1.17,1.08-1.75.09-.16.2-.31.29-.47s.25-.49.38-.73c.26-.49.52-1,.76-1.48s.4-.83.58-1.25.44-1,.63-1.5c.09-.22.2-.43.28-.66s.13-.41.21-.61c.16-.48.32-1,.47-1.43s.26-.87.38-1.31.24-1,.35-1.44c.06-.26.14-.51.19-.77s.05-.36.08-.53c.09-.5.17-1,.24-1.49s.11-.86.16-1.29.08-1,.1-1.5c0-.29.06-.58.07-.87s0-.58,0-.86l.05-17.8C382.45,527.8,382.41,528.38,382.38,529Z" transform="translate(0.21 -1)"/><path class="cls-12" d="M353.39,486.54c38.57,22.27,38.78,58.52.45,80.79s-100.92,22.28-139.49,0-38.8-58.52-.46-80.81S314.79,464.26,353.39,486.54ZM228,559.39c31,17.9,81.27,17.9,112.07,0s30.61-47-.38-64.9-81.26-17.9-112,0-30.62,47,.36,64.91" transform="translate(0.21 -1)"/></g><g class="cls-1"><path class="cls-13" d="M223.2,584.13a1.48,1.48,0,0,1,0-.21c0-.11,0-.22,0-.34l0-.34c0-.11,0-.23,0-.34s0-.24-.05-.36a.5.5,0,0,0,0-.12v0a1.18,1.18,0,0,0,0-.2c0-.12,0-.24-.07-.37s-.05-.24-.08-.36-.06-.25-.1-.37l-.1-.37,0-.06v0a2.58,2.58,0,0,1-.08-.26l-.12-.35a3.42,3.42,0,0,0-.13-.34l-.12-.33c0-.1-.09-.21-.14-.32l-.05-.12v0c0-.06-.05-.12-.08-.17s-.11-.24-.16-.35-.12-.25-.19-.37-.17-.34-.26-.5-.07-.1-.1-.15c-.11-.2-.23-.38-.35-.57s-.28-.49-.44-.72-.2-.29-.31-.43h0l0,0-.28-.36a3.92,3.92,0,0,0-.25-.32l-.26-.3-.26-.3-.1-.11,0,0-.15-.15-.29-.3c-.09-.09-.19-.19-.3-.28l-.3-.27-.24-.2,0,0-.05,0-.3-.24-.3-.21-.3-.2a2.9,2.9,0,0,0-.29-.19l-.16-.09-.13-.07a1.91,1.91,0,0,0-.28-.15l-.28-.14-.28-.12-.28-.11-.11,0h0l-.15,0-.29-.09-.28-.06-.31-.06-.22,0h-.77a2.57,2.57,0,0,0-.4.06h0a2.52,2.52,0,0,0-.47.13,2.79,2.79,0,0,0-.53.24L121.74,622.3a3.81,3.81,0,0,1,1-.37h0a4,4,0,0,1,1.15,0h0a5.44,5.44,0,0,1,1.25.28h0a7.78,7.78,0,0,1,1.36.63,10.46,10.46,0,0,1,1.39,1l0,0a13.1,13.1,0,0,1,1.28,1.2l0,0a16.21,16.21,0,0,1,1.17,1.41h0c.27.37.51.76.75,1.15.11.19.24.38.35.57.28.5.55,1,.78,1.54v0a14.46,14.46,0,0,1,.64,1.73v0a12.37,12.37,0,0,1,.41,1.73v0a11.19,11.19,0,0,1,.15,1.71,8.52,8.52,0,0,1-.13,1.57v0a5.73,5.73,0,0,1-.39,1.27l0,0a3.92,3.92,0,0,1-.53.83,2.31,2.31,0,0,1-.2.24,3.36,3.36,0,0,1-.77.64l89.61-50.82a3.32,3.32,0,0,0,.78-.63l.2-.24c.08-.11.17-.2.25-.31a5.42,5.42,0,0,0,.26-.48s0,0,0-.05v0c.05-.11.1-.21.14-.32l.12-.37c0-.12.07-.24.09-.36s0-.15.05-.22v0a.29.29,0,0,0,0-.09c0-.11,0-.23,0-.34s0-.22,0-.34,0-.22,0-.33,0-.22,0-.34Z" transform="translate(0.21 -1)"/><path class="cls-11" d="M126.57,622.8a15.61,15.61,0,0,1,7,12.14c0,4.5-3.05,6.33-6.88,4.12a15.57,15.57,0,0,1-7-12.14C119.65,622.43,122.73,620.58,126.57,622.8Z" transform="translate(0.21 -1)"/></g><path class="cls-14" d="M232.4,555.55c28.56,15.77,74.89,15.78,103.28,0s28.21-41.44-.35-57.21-74.89-15.78-103.26,0-28.22,41.45.33,57.22" transform="translate(0.21 -1)"/><g class="cls-1"><path class="cls-5" d="M582.49,513.17c0,.1,0,.2,0,.3a3.11,3.11,0,0,1,0,.32l-.06.26-.09.31a1.89,1.89,0,0,1-.11.25,1.87,1.87,0,0,1-.15.32c0,.08-.09.15-.14.23a3.75,3.75,0,0,1-.24.36l-.16.2a4.81,4.81,0,0,1-.44.47l-.17.17-.31.26-.29.22c-.11.09-.24.17-.36.25l-.39.25L474.85,578.16a10.93,10.93,0,0,1-1.42.68l-.4.15c-.31.11-.64.2-1,.29s-.68.19-1,.26-.82.16-1.24.21l-.31,0a14.06,14.06,0,0,1-1.72.1h-.28a16.13,16.13,0,0,1-1.7-.09l-.25,0c-.56-.07-1.11-.16-1.65-.28l-.29-.07c-.49-.13-1-.27-1.42-.44l-.26-.08a13.15,13.15,0,0,1-1.56-.74l-48.12-27.78c-2-1.17-3-2.7-3-4.23l0,6c0,1.53,1,3.06,3,4.23l48.12,27.78a10,10,0,0,0,1.47.71l.09,0a2.5,2.5,0,0,1,.25.09c.3.1.6.21.91.3l.51.13.29.07.27.06c.33.07.67.13,1,.18l.37,0,.26,0,.37,0c.33,0,.67.05,1,.06h1c.38,0,.76,0,1.14-.08h.12l.31,0c.29,0,.59-.07.87-.12s.25-.06.37-.09c.35-.07.69-.16,1-.25.18,0,.37-.08.54-.14L473,585l.4-.15a11.06,11.06,0,0,0,1.43-.68L579.5,523.31l.12-.07.27-.18.37-.24.29-.23.31-.26.06-.05.11-.12c.15-.15.3-.31.43-.46l.1-.11a.61.61,0,0,1,.07-.1l.24-.36.1-.15,0-.08a1.87,1.87,0,0,0,.15-.32,1.51,1.51,0,0,0,.09-.18.64.64,0,0,0,0-.07c0-.1.06-.2.09-.3l.06-.21v-.05c0-.11,0-.22,0-.33a1.49,1.49,0,0,0,0-.21.28.28,0,0,0,0-.09h0Z" transform="translate(0.21 -1)"/><path class="cls-3" d="M579.47,509c4,2.31,4,6.07,0,8.39L474.85,578.16a16,16,0,0,1-14.49,0l-48.12-27.78c-4-2.32-4-6.08,0-8.4l104.66-60.82a16,16,0,0,1,14.49,0Z" transform="translate(0.21 -1)"/></g><path class="cls-15" d="M573,512.88c2,1.14,2,3,0,4.13L472.69,575.3a7.85,7.85,0,0,1-7.11,0l-49.79-28.74c-2-1.14-2-3,0-4.12l100.31-58.3a7.87,7.87,0,0,1,7.12,0L533.28,490,533,492.3c-.15,1.2.61,2.39,2.09,3.24L553.25,506a10.63,10.63,0,0,0,5.6,1.2l4-.17Z" transform="translate(0.21 -1)"/><g class="cls-16"><polygon class="cls-17" points="460.17 237.97 460.19 244.21 385.85 287.13 385.84 280.88 460.17 237.97"/><g class="cls-1"><polygon class="cls-2" points="591.95 144.17 591.97 150.39 385.8 269.42 385.79 263.2 591.95 144.17"/><polygon class="cls-18" points="510.56 173.44 510.58 179.66 385.75 251.73 385.74 245.51 510.56 173.44"/><polygon class="cls-19" points="447.39 192.2 447.41 198.42 385.7 234.04 385.69 227.82 447.39 192.2"/><polygon class="cls-20" points="546.93 116.99 546.95 123.23 385.65 216.36 385.63 210.11 546.93 116.99"/></g></g><polygon class="cls-21" points="294.54 117.46 65.21 249.85 65.72 428.94 294.54 296.84 294.54 117.46"/><polygon class="cls-22" points="294.54 154.01 294.54 117.46 65.21 249.85 65.32 286.35 294.54 154.01"/><polygon class="cls-20" points="96.6 299.13 96.63 308.19 88.75 312.74 88.72 303.68 96.6 299.13"/><polygon class="cls-20" points="108.11 292.49 108.14 301.54 100.26 306.09 100.23 297.04 108.11 292.49"/><polygon class="cls-20" points="119.61 285.85 119.63 294.91 111.75 299.46 111.72 290.4 119.61 285.85"/><polygon class="cls-20" points="131.12 279.2 131.14 288.26 123.24 292.82 123.22 283.77 131.12 279.2"/><polygon class="cls-20" points="142.61 272.57 142.64 281.63 134.75 286.18 134.73 277.12 142.61 272.57"/><polygon class="cls-20" points="154.1 265.93 154.13 274.99 146.25 279.54 146.22 270.49 154.1 265.93"/><polygon class="cls-20" points="165.61 259.29 165.64 268.35 157.76 272.9 157.73 263.84 165.61 259.29"/><polygon class="cls-20" points="177.11 252.65 177.13 261.71 169.25 266.26 169.22 257.2 177.11 252.65"/><polygon class="cls-20" points="188.62 246.01 188.64 255.06 180.74 259.63 180.72 250.57 188.62 246.01"/><polygon class="cls-20" points="200.11 239.37 200.14 248.43 192.25 252.98 192.23 243.92 200.11 239.37"/><polygon class="cls-20" points="211.62 232.73 211.65 241.78 203.75 246.34 203.72 237.29 211.62 232.73"/><polygon class="cls-20" points="223.11 226.09 223.14 235.15 215.26 239.7 215.23 230.64 223.11 226.09"/><polygon class="cls-20" points="278.07 190.44 278.12 207.43 273.63 210.03 273.58 193.03 278.07 190.44"/><polygon class="cls-19" points="96.66 320.97 96.69 330.03 88.81 334.58 88.78 325.52 96.66 320.97"/><polygon class="cls-19" points="108.17 314.33 108.2 323.38 100.32 327.94 100.29 318.88 108.17 314.33"/><polygon class="cls-19" points="119.67 307.69 119.69 316.75 111.81 321.3 111.79 312.24 119.67 307.69"/><polygon class="cls-19" points="131.18 301.05 131.21 310.1 123.31 314.66 123.28 305.61 131.18 301.05"/><polygon class="cls-19" points="142.67 294.41 142.7 303.47 134.82 308.02 134.79 298.96 142.67 294.41"/><polygon class="cls-19" points="154.16 287.78 154.19 296.83 146.31 301.38 146.28 292.33 154.16 287.78"/><polygon class="cls-19" points="165.68 281.13 165.7 290.19 157.82 294.74 157.79 285.68 165.68 281.13"/><polygon class="cls-19" points="177.17 274.5 177.19 283.55 169.31 288.1 169.29 279.05 177.17 274.5"/><polygon class="cls-19" points="188.68 267.85 188.71 276.9 180.81 281.47 180.78 272.41 188.68 267.85"/><polygon class="cls-19" points="278.14 212.28 278.18 229.27 273.69 231.87 273.64 214.87 278.14 212.28"/><polygon class="cls-18" points="96.73 342.81 96.75 351.89 88.87 356.44 88.84 347.37 96.73 342.81"/><polygon class="cls-18" points="108.24 336.17 108.26 345.25 100.38 349.8 100.36 340.72 108.24 336.17"/><polygon class="cls-18" points="119.73 329.53 119.76 338.61 111.87 343.16 111.85 334.08 119.73 329.53"/><polygon class="cls-18" points="131.24 322.89 131.27 331.97 123.37 336.53 123.34 327.45 131.24 322.89"/><polygon class="cls-18" points="142.73 316.25 142.76 325.33 134.88 329.88 134.85 320.8 142.73 316.25"/><polygon class="cls-18" points="154.23 309.62 154.25 318.69 146.37 323.25 146.34 314.17 154.23 309.62"/><polygon class="cls-18" points="165.74 302.97 165.76 312.05 157.88 316.6 157.86 307.52 165.74 302.97"/><polygon class="cls-18" points="177.23 296.34 177.26 305.41 169.37 309.96 169.35 300.89 177.23 296.34"/><polygon class="cls-18" points="188.74 289.69 188.77 298.77 180.87 303.33 180.84 294.25 188.74 289.69"/><polygon class="cls-18" points="200.23 283.06 200.26 292.13 192.38 296.68 192.35 287.61 200.23 283.06"/><polygon class="cls-18" points="211.75 276.41 211.77 285.49 203.87 290.05 203.84 280.97 211.75 276.41"/><polygon class="cls-18" points="278.2 234.14 278.25 251.12 273.75 253.71 273.71 236.73 278.2 234.14"/><polygon class="cls-2" points="278.26 255.98 278.31 272.98 273.82 275.57 273.77 258.57 278.26 255.98"/><polygon class="cls-2" points="96.79 364.68 96.81 373.73 88.93 378.29 88.91 369.23 96.79 364.68"/><polygon class="cls-2" points="108.3 358.03 108.33 367.09 100.44 371.64 100.42 362.58 108.3 358.03"/><polygon class="cls-2" points="119.79 351.4 119.82 360.45 111.94 365 111.91 355.95 119.79 351.4"/><polygon class="cls-2" points="131.3 344.75 131.33 353.81 123.43 358.37 123.4 349.31 131.3 344.75"/><polygon class="cls-2" points="142.8 338.12 142.82 347.17 134.94 351.72 134.91 342.67 142.8 338.12"/><polygon class="cls-2" points="154.29 331.48 154.31 340.54 146.43 345.09 146.41 336.03 154.29 331.48"/><path class="cls-3" d="M88.38,251.83c2.09-1.21,3.81-.25,3.82,2.18a8.35,8.35,0,0,1-3.8,6.57c-2.11,1.22-3.83.26-3.84-2.17A8.4,8.4,0,0,1,88.38,251.83Z" transform="translate(0.21 -1)"/><path class="cls-3" d="M107.93,240.54c2.09-1.21,3.81-.25,3.82,2.18a8.38,8.38,0,0,1-3.8,6.58c-2.11,1.22-3.83.25-3.84-2.17A8.38,8.38,0,0,1,107.93,240.54Z" transform="translate(0.21 -1)"/><path class="cls-3" d="M127.46,229.26c2.11-1.21,3.83-.25,3.84,2.17a8.41,8.41,0,0,1-3.82,6.59c-2.09,1.21-3.81.25-3.82-2.18A8.37,8.37,0,0,1,127.46,229.26Z" transform="translate(0.21 -1)"/><polygon class="cls-23" points="361.9 222.33 261.05 280.55 261.27 359.31 361.9 301.22 361.9 222.33"/><polygon class="cls-24" points="361.9 238.4 361.9 222.33 261.05 280.55 261.09 296.61 361.9 238.4"/><g class="cls-1"><polygon class="cls-25" points="490.84 330.64 490.79 349.09 472.88 359.49 472.94 341.05 490.84 330.64"/><polygon class="cls-26" points="472.94 341.05 472.88 359.49 433.41 336.7 433.46 318.25 472.94 341.05"/><polygon class="cls-2" points="490.84 330.64 472.94 341.05 433.46 318.25 451.37 307.85 490.84 330.64"/></g><g class="cls-1"><polygon class="cls-27" points="536.79 387.54 536.74 405.99 518.85 416.39 518.9 397.94 536.79 387.54"/><polygon class="cls-28" points="518.9 397.94 518.85 416.39 407.21 351.93 407.26 333.48 518.9 397.94"/><polygon class="cls-18" points="536.79 387.54 518.9 397.94 407.26 333.48 425.15 323.09 536.79 387.54"/></g><g class="cls-1"><polygon class="cls-29" points="464.65 376.25 464.6 394.7 446.69 405.1 446.75 386.65 464.65 376.25"/><polygon class="cls-30" points="446.75 386.65 446.69 405.1 380.99 367.17 381.04 348.72 446.75 386.65"/><polygon class="cls-31" points="464.65 376.25 446.75 386.65 381.04 348.72 398.95 338.31 464.65 376.25"/></g><path class="cls-32" d="M114.32,162.58c.49-.28.89-.07.89.48a1.94,1.94,0,0,1-.88,1.53l-6.87,4c-.49.28-.89.07-.89-.51a1.92,1.92,0,0,1,.88-1.5Z" transform="translate(0.21 -1)"/><path class="cls-32" d="M125,161.07c.48-.28.88,0,.89.51a2,2,0,0,1-.89,1.53l-17.49,10.1c-.48.28-.88,0-.89-.51a2,2,0,0,1,.89-1.53Z" transform="translate(0.21 -1)"/><path class="cls-32" d="M126.87,149.71c2-1.17,3.67-.23,3.68,2.1l0,14.28a8.05,8.05,0,0,1-3.66,6.31l-11.69,6.75-7.15,11.62a1.82,1.82,0,0,1-.59.61l-.36.11c-.31,0-.53-.23-.53-.62l0-6.73-1,.61c-2,1.16-3.65.24-3.66-2.08l0-14.29a8.06,8.06,0,0,1,3.64-6.32Zm1.95,17.41,0-14.29c0-1.21-.85-1.69-1.91-1.08L105.48,164.1a4.14,4.14,0,0,0-1.87,3.26l0,14.28c0,1.22.85,1.7,1.89,1.1l1.93-1.12c.49-.28.89-.05.89.51l0,5.42,5.92-9.6a1.82,1.82,0,0,1,.59-.61l12-7a4.16,4.16,0,0,0,1.89-3.27" transform="translate(0.21 -1)"/><path class="cls-2" d="M116.12,132.75c18.42-10.63,33.41-2.09,33.47,19.08.07,27.84-31.52,79.57-33.19,82.29-1.67-.82-33.46-16.46-33.53-43.77C82.81,169.18,97.7,143.39,116.12,132.75Zm.19,69.87c15.16-8.75,27.38-30,27.33-47.36s-12.35-24.43-27.5-15.68-27.38,29.95-27.33,47.34,12.35,24.44,27.5,15.7" transform="translate(0.21 -1)"/><path class="cls-32" d="M33.1,113.2c4.6-2.66,8.34-.52,8.36,4.76v2.27a2,2,0,0,1-.88,1.53L25.7,130.35a.54.54,0,0,1-.89-.51v-2.27C24.79,122.29,28.51,115.85,33.1,113.2Zm6.59,7V119c0-4.17-3-5.84-6.58-3.75a14.43,14.43,0,0,0-6.53,11.32v1.26l13.11-7.57" transform="translate(0.21 -1)"/><path class="cls-32" d="M33.15,129.45c.48-.28.89-.08.89.48v5.76a1.92,1.92,0,0,1-.88,1.53c-.48.28-.88.05-.89-.51V131A1.92,1.92,0,0,1,33.15,129.45Z" transform="translate(0.21 -1)"/><path class="cls-32" d="M43.52,118c.49-.28.89,0,.89.51l0,8.69c0,7.15-5,15.88-11.24,19.47s-11.29.7-11.31-6.45l0-8.69a2,2,0,0,1,.89-1.53l2.06-1.19v1a.54.54,0,0,0,.89.51l-2.06,1.19,0,7.68c0,6,4.29,8.46,9.53,5.43s9.49-10.38,9.48-16.41l0-7.67-2.06,1.19a2,2,0,0,0,.88-1.53v-1Z" transform="translate(0.21 -1)"/><path class="cls-20" d="M33,91.6C51.46,81,66.45,89.51,66.51,110.67,66.59,138.52,35,190.24,33.33,193c-1.67-.82-33.46-16.45-33.54-43.77C-.27,128,14.62,102.23,33,91.6Zm.2,69.86c15.15-8.75,27.38-30,27.33-47.36S48.21,89.68,33.06,98.43,5.68,128.37,5.73,145.76s12.36,24.45,27.51,15.7" transform="translate(0.21 -1)"/><g class="cls-1"><path class="cls-32" d="M202.35,41.15a.6.6,0,0,1,.61-.06.58.58,0,0,1,.28.54,1.86,1.86,0,0,1-.27.89,1.72,1.72,0,0,1-.61.64.64.64,0,0,1-.63.07.63.63,0,0,1-.26-.58,1.91,1.91,0,0,1,.88-1.5Z" transform="translate(0.21 -1)"/><path class="cls-32" d="M195.63,45c.51-.3.89,0,.89.5a1.9,1.9,0,0,1-.88,1.53c-.49.28-.89.08-.89-.51A2,2,0,0,1,195.63,45Z" transform="translate(0.21 -1)"/><path class="cls-18" d="M199.19,5.57c18.42-10.63,33.41-2.09,33.47,19.08.08,27.84-31.52,79.57-33.18,82.29-1.67-.82-33.46-16.46-33.54-43.77C165.88,42,180.75,16.22,199.19,5.57Zm.2,69.87c15.15-8.75,27.38-29.95,27.33-47.36S214.36,3.65,199.21,12.4s-27.38,30-27.33,47.34,12.36,24.44,27.51,15.7" transform="translate(0.21 -1)"/><path class="cls-32" d="M188.93,48.91a.6.6,0,0,1,.61-.07.58.58,0,0,1,.28.54,2.05,2.05,0,0,1-.25.87,1.77,1.77,0,0,1-.64.66.64.64,0,0,1-.63.07.62.62,0,0,1-.25-.58,1.65,1.65,0,0,1,.27-.86A1.68,1.68,0,0,1,188.93,48.91Z" transform="translate(0.21 -1)"/><path class="cls-32" d="M184.64,41.53l0,5.52c0,.55.4.76.89.48l.88-.51,0,14.14,25.71-14.84,0-14.15.89-.51a1.92,1.92,0,0,0,.88-1.5L214,46.31a2,2,0,0,1-.89,1.53L185.59,63.71c-.48.28-.88,0-.89-.51Z" transform="translate(0.21 -1)"/><path class="cls-32" d="M213,24.13c.48-.28.88-.05.88.51l0,5.52a1.92,1.92,0,0,1-.88,1.5l-.89.51L186.43,47l-.88.51c-.49.28-.89.07-.89-.48l0-5.52a2,2,0,0,1,.89-1.53Zm-.87,6V26.68L186.42,41.52V45l25.71-14.85" transform="translate(0.21 -1)"/></g><polygon class="cls-17" points="393.94 163.33 393.96 169.28 351.6 193.74 351.59 187.78 393.94 163.33"/><polygon class="cls-2" points="393.89 146.39 393.91 152.32 351.56 176.78 351.54 170.85 393.89 146.39"/><polygon class="cls-18" points="393.84 129.43 393.86 135.36 351.51 159.81 351.49 153.88 393.84 129.43"/><polygon class="cls-19" points="393.8 112.47 393.81 118.4 351.46 142.85 351.44 136.92 393.8 112.47"/><path class="cls-3" d="M372.05,32.92l36.47,16.54-8.19,4.73.43,128.27L344.39,215,344,86.73l-8.18,4.73Zm21.7,137.36,0-5.95-42.35,24.45v6l42.36-24.46m-.1-33.92,0-5.93-42.35,24.45,0,5.93,42.35-24.45m0-17v-5.93l-42.36,24.45,0,5.93L393.6,119.4m.1,33.92,0-5.93-42.35,24.46,0,5.93,42.35-24.46" transform="translate(0.21 -1)"/></g></g></svg>