<svg xmlns="http://www.w3.org/2000/svg" xmlns:xlink="http://www.w3.org/1999/xlink" viewBox="0 0 406.83 573.53"><defs><style>.cls-1{isolation:isolate;}.cls-2{opacity:0.52;}.cls-17,.cls-2{mix-blend-mode:hard-light;}.cls-3{fill:url(#Degradado_sin_nombre_7);}.cls-4{fill:url(#Degradado_sin_nombre_7-2);}.cls-5{fill:url(#Degradado_sin_nombre_62);}.cls-6{fill:url(#Degradado_sin_nombre_7-3);}.cls-7{fill:url(#Degradado_sin_nombre_7-4);}.cls-8{fill:url(#Degradado_sin_nombre_7-5);}.cls-9{fill:#fff;}.cls-10{fill:#515760;}.cls-11{fill:#3b414b;}.cls-12{fill:#1a1f29;}.cls-13{fill:#ddd;}.cls-14{fill:#ccc;}.cls-15{fill:#521a87;}.cls-16{fill:none;}.cls-18{fill:url(#New_Gradient_Swatch_1);}.cls-19{fill:url(#Degradado_sin_nombre_112);}.cls-20{fill:url(#Degradado_sin_nombre_47);}.cls-21{fill:url(#New_Gradient_Swatch_1-2);}.cls-22{fill:url(#New_Gradient_Swatch_1-3);}.cls-23{fill:url(#Degradado_sin_nombre_112-2);}.cls-24{fill:#f4f9fc;}.cls-25{fill:url(#Degradado_sin_nombre_37);}.cls-26{fill:url(#Degradado_sin_nombre_37-2);}.cls-27{fill:url(#Degradado_sin_nombre_37-3);}.cls-28{fill:url(#Degradado_sin_nombre_37-4);}.cls-29{fill:url(#Degradado_sin_nombre_47-2);}.cls-30{fill:url(#Degradado_sin_nombre_47-3);}.cls-31{fill:url(#Degradado_sin_nombre_47-4);}.cls-32{fill:url(#Degradado_sin_nombre_47-5);}.cls-33{fill:url(#Degradado_sin_nombre_47-6);}.cls-34{fill:url(#Degradado_sin_nombre_37-5);}.cls-35{fill:url(#Degradado_sin_nombre_37-6);}.cls-36{fill:url(#Degradado_sin_nombre_37-7);}.cls-37{fill:url(#Degradado_sin_nombre_37-8);}.cls-38{fill:url(#Degradado_sin_nombre_37-9);}.cls-39{fill:url(#Degradado_sin_nombre_25);}.cls-40{fill:url(#Degradado_sin_nombre_47-7);}.cls-41{fill:url(#Degradado_sin_nombre_47-8);}.cls-42{fill:url(#Degradado_sin_nombre_37-10);}.cls-43{fill:url(#Degradado_sin_nombre_47-9);}.cls-44{fill:url(#Degradado_sin_nombre_47-10);}.cls-45{fill:url(#Degradado_sin_nombre_47-11);}.cls-46{fill:url(#Degradado_sin_nombre_37-11);}.cls-47{fill:url(#Degradado_sin_nombre_47-12);}.cls-48{fill:#003781;}.cls-49{fill:url(#Degradado_sin_nombre_47-13);}.cls-50{fill:#004f81;}.cls-51{fill:url(#Degradado_sin_nombre_47-14);}.cls-52{fill:url(#linear-gradient);}.cls-53{fill:#00c2cc;}.cls-54{fill:url(#Degradado_sin_nombre_37-12);}.cls-55{fill:url(#Degradado_sin_nombre_37-13);}.cls-56{fill:url(#Degradado_sin_nombre_37-14);}.cls-57{fill:url(#Degradado_sin_nombre_37-15);}.cls-58{fill:url(#Degradado_sin_nombre_37-16);}.cls-59{fill:url(#Degradado_sin_nombre_37-17);}.cls-60{fill:#f6d139;}.cls-61{fill:url(#Degradado_sin_nombre_47-15);}.cls-62{fill:url(#Degradado_sin_nombre_37-18);}.cls-63{fill:url(#Degradado_sin_nombre_37-19);}.cls-64{fill:url(#Degradado_sin_nombre_37-20);}.cls-65{fill:url(#Degradado_sin_nombre_37-21);}.cls-66{fill:url(#Degradado_sin_nombre_37-22);}.cls-67{fill:url(#Degradado_sin_nombre_47-16);}.cls-68{fill:url(#Degradado_sin_nombre_47-17);}.cls-69{fill:url(#Degradado_sin_nombre_47-18);}.cls-70{fill:url(#Degradado_sin_nombre_47-19);}.cls-71{fill:url(#Degradado_sin_nombre_47-20);}.cls-72{fill:url(#Degradado_sin_nombre_37-23);}.cls-73{fill:url(#Degradado_sin_nombre_37-24);}.cls-74{fill:url(#Degradado_sin_nombre_37-25);}.cls-75{fill:url(#Degradado_sin_nombre_37-26);}.cls-76{fill:url(#Degradado_sin_nombre_37-27);}.cls-77{fill:url(#Degradado_sin_nombre_25-2);}.cls-78{fill:url(#Degradado_sin_nombre_47-21);}.cls-79{fill:url(#Degradado_sin_nombre_47-22);}.cls-80{fill:url(#Degradado_sin_nombre_37-28);}.cls-81{fill:url(#Degradado_sin_nombre_47-23);}.cls-82{fill:url(#Degradado_sin_nombre_47-24);}.cls-83{fill:url(#Degradado_sin_nombre_47-25);}.cls-84{fill:url(#Degradado_sin_nombre_37-29);}.cls-85{fill:url(#Degradado_sin_nombre_47-26);}.cls-86{opacity:0.6;mix-blend-mode:soft-light;}</style><linearGradient id="Degradado_sin_nombre_7" x1="12.43" y1="190.69" x2="144.17" y2="190.69" gradientUnits="userSpaceOnUse"><stop offset="0" stop-color="#00dafc"/><stop offset="1" stop-color="#76fffa"/></linearGradient><linearGradient id="Degradado_sin_nombre_7-2" x1="155.29" y1="404.06" x2="269.88" y2="404.06" xlink:href="#Degradado_sin_nombre_7"/><linearGradient id="Degradado_sin_nombre_62" x1="282.76" y1="481.55" x2="345.33" y2="481.55" gradientUnits="userSpaceOnUse"><stop offset="0" stop-color="#00dafc"/><stop offset="1" stop-color="#dafffa"/></linearGradient><linearGradient id="Degradado_sin_nombre_7-3" x1="114.98" y1="319.81" x2="251.63" y2="319.81" xlink:href="#Degradado_sin_nombre_7"/><linearGradient id="Degradado_sin_nombre_7-4" x1="67.75" y1="245.54" x2="210.38" y2="245.54" xlink:href="#Degradado_sin_nombre_7"/><linearGradient id="Degradado_sin_nombre_7-5" x1="182.91" y1="427.72" x2="323.64" y2="427.72" xlink:href="#Degradado_sin_nombre_7"/><linearGradient id="New_Gradient_Swatch_1" x1="176.15" y1="151.85" x2="309.64" y2="151.85" gradientUnits="userSpaceOnUse"><stop offset="0" stop-color="#e88821"/><stop offset="1" stop-color="#fcfc69"/></linearGradient><linearGradient id="Degradado_sin_nombre_112" x1="63.11" y1="182.14" x2="196.6" y2="182.14" gradientUnits="userSpaceOnUse"><stop offset="0" stop-color="#5e5dff"/><stop offset="1" stop-color="#ff3480"/></linearGradient><linearGradient id="Degradado_sin_nombre_47" x1="224.84" y1="281.93" x2="358.33" y2="281.93" gradientUnits="userSpaceOnUse"><stop offset="0" stop-color="#58a1ff"/><stop offset="1" stop-color="#00ffda"/></linearGradient><linearGradient id="New_Gradient_Swatch_1-2" x1="111.79" y1="312.21" x2="245.29" y2="312.21" xlink:href="#New_Gradient_Swatch_1"/><linearGradient id="New_Gradient_Swatch_1-3" x1="273.34" y1="412.03" x2="406.83" y2="412.03" xlink:href="#New_Gradient_Swatch_1"/><linearGradient id="Degradado_sin_nombre_112-2" x1="160.29" y1="442.32" x2="293.79" y2="442.32" xlink:href="#Degradado_sin_nombre_112"/><linearGradient id="Degradado_sin_nombre_37" x1="146.4" y1="180.26" x2="159.96" y2="180.26" gradientUnits="userSpaceOnUse"><stop offset="0" stop-color="#ffa13d"/><stop offset="1" stop-color="#ffffad"/></linearGradient><linearGradient id="Degradado_sin_nombre_37-2" x1="141.09" y1="177.14" x2="150.37" y2="177.14" xlink:href="#Degradado_sin_nombre_37"/><linearGradient id="Degradado_sin_nombre_37-3" x1="140.14" y1="177.35" x2="145.05" y2="177.35" xlink:href="#Degradado_sin_nombre_37"/><linearGradient id="Degradado_sin_nombre_37-4" x1="138.69" y1="177.85" x2="144.11" y2="177.85" xlink:href="#Degradado_sin_nombre_37"/><linearGradient id="Degradado_sin_nombre_47-2" x1="138.99" y1="198.64" x2="143.26" y2="198.64" xlink:href="#Degradado_sin_nombre_47"/><linearGradient id="Degradado_sin_nombre_47-3" x1="139.3" y1="195.79" x2="167.69" y2="195.79" xlink:href="#Degradado_sin_nombre_47"/><linearGradient id="Degradado_sin_nombre_47-4" x1="127.25" y1="189" x2="142.65" y2="189" xlink:href="#Degradado_sin_nombre_47"/><linearGradient id="Degradado_sin_nombre_47-5" x1="127.6" y1="189.87" x2="131.69" y2="189.87" xlink:href="#Degradado_sin_nombre_47"/><linearGradient id="Degradado_sin_nombre_47-6" x1="127.12" y1="204.22" x2="142.48" y2="204.22" xlink:href="#Degradado_sin_nombre_47"/><linearGradient id="Degradado_sin_nombre_37-5" x1="109.44" y1="177.48" x2="117.36" y2="177.48" xlink:href="#Degradado_sin_nombre_37"/><linearGradient id="Degradado_sin_nombre_37-6" x1="98.16" y1="167.16" x2="116.52" y2="167.16" xlink:href="#Degradado_sin_nombre_37"/><linearGradient id="Degradado_sin_nombre_37-7" x1="108.28" y1="195.57" x2="131.09" y2="195.57" xlink:href="#Degradado_sin_nombre_37"/><linearGradient id="Degradado_sin_nombre_37-8" x1="108.03" y1="191.18" x2="112.24" y2="191.18" xlink:href="#Degradado_sin_nombre_37"/><linearGradient id="Degradado_sin_nombre_37-9" x1="106.61" y1="191.5" x2="112" y2="191.5" xlink:href="#Degradado_sin_nombre_37"/><linearGradient id="Degradado_sin_nombre_25" x1="98.17" y1="172.59" x2="117.36" y2="172.59" gradientUnits="userSpaceOnUse"><stop offset="0" stop-color="#5e5dff"/><stop offset="1" stop-color="#c477ff"/></linearGradient><linearGradient id="Degradado_sin_nombre_47-7" x1="102.95" y1="193.69" x2="110.58" y2="193.69" xlink:href="#Degradado_sin_nombre_47"/><linearGradient id="Degradado_sin_nombre_47-8" x1="96.91" y1="202.66" x2="106.91" y2="202.66" xlink:href="#Degradado_sin_nombre_47"/><linearGradient id="Degradado_sin_nombre_37-10" x1="80.43" y1="176.93" x2="101.35" y2="176.93" xlink:href="#Degradado_sin_nombre_37"/><linearGradient id="Degradado_sin_nombre_47-9" x1="100.98" y1="204.19" x2="143.26" y2="204.19" xlink:href="#Degradado_sin_nombre_47"/><linearGradient id="Degradado_sin_nombre_47-10" x1="97.38" y1="204.5" x2="104.95" y2="204.5" xlink:href="#Degradado_sin_nombre_47"/><linearGradient id="Degradado_sin_nombre_47-11" x1="131.09" y1="191.89" x2="167.22" y2="191.89" xlink:href="#Degradado_sin_nombre_47"/><linearGradient id="Degradado_sin_nombre_37-11" x1="83.92" y1="177.48" x2="159.96" y2="177.48" xlink:href="#Degradado_sin_nombre_37"/><linearGradient id="Degradado_sin_nombre_47-12" x1="100.88" y1="204.08" x2="142.79" y2="204.08" xlink:href="#Degradado_sin_nombre_47"/><linearGradient id="Degradado_sin_nombre_47-13" x1="217.58" y1="171.92" x2="282.14" y2="171.92" xlink:href="#Degradado_sin_nombre_47"/><linearGradient id="Degradado_sin_nombre_47-14" x1="214.82" y1="132.5" x2="259.43" y2="132.5" xlink:href="#Degradado_sin_nombre_47"/><linearGradient id="linear-gradient" x1="146.59" y1="325.06" x2="241.38" y2="325.06" gradientTransform="translate(25.75 -13.85) rotate(4.43)" gradientUnits="userSpaceOnUse"><stop offset="0" stop-color="#5e5de1"/><stop offset="1" stop-color="#c461db"/></linearGradient><linearGradient id="Degradado_sin_nombre_37-12" x1="266.62" y1="265.82" x2="270.92" y2="265.82" xlink:href="#Degradado_sin_nombre_37"/><linearGradient id="Degradado_sin_nombre_37-13" x1="266.95" y1="285.36" x2="274.93" y2="285.36" xlink:href="#Degradado_sin_nombre_37"/><linearGradient id="Degradado_sin_nombre_37-14" x1="270.97" y1="313.14" x2="277.08" y2="313.14" xlink:href="#Degradado_sin_nombre_37"/><linearGradient id="Degradado_sin_nombre_37-15" x1="273.11" y1="328.37" x2="278.32" y2="328.37" xlink:href="#Degradado_sin_nombre_37"/><linearGradient id="Degradado_sin_nombre_37-16" x1="270.58" y1="292.77" x2="355.64" y2="292.77" xlink:href="#Degradado_sin_nombre_37"/><linearGradient id="Degradado_sin_nombre_37-17" x1="274.35" y1="323.6" x2="355.64" y2="323.6" xlink:href="#Degradado_sin_nombre_37"/><linearGradient id="Degradado_sin_nombre_47-15" x1="301.75" y1="424.24" x2="382.52" y2="424.24" gradientTransform="matrix(0.96, -0.28, 0.28, 0.96, -105.19, 110.42)" xlink:href="#Degradado_sin_nombre_47"/><linearGradient id="Degradado_sin_nombre_37-18" x1="192.91" y1="449.42" x2="255.39" y2="449.42" xlink:href="#Degradado_sin_nombre_37"/><linearGradient id="Degradado_sin_nombre_37-19" x1="179.8" y1="209.17" x2="193.36" y2="209.17" xlink:href="#Degradado_sin_nombre_37"/><linearGradient id="Degradado_sin_nombre_37-20" x1="174.49" y1="206.05" x2="183.77" y2="206.05" xlink:href="#Degradado_sin_nombre_37"/><linearGradient id="Degradado_sin_nombre_37-21" x1="173.54" y1="206.26" x2="178.45" y2="206.26" xlink:href="#Degradado_sin_nombre_37"/><linearGradient id="Degradado_sin_nombre_37-22" x1="172.08" y1="206.76" x2="177.5" y2="206.76" xlink:href="#Degradado_sin_nombre_37"/><linearGradient id="Degradado_sin_nombre_47-16" x1="172.39" y1="227.55" x2="176.66" y2="227.55" xlink:href="#Degradado_sin_nombre_47"/><linearGradient id="Degradado_sin_nombre_47-17" x1="172.7" y1="224.7" x2="201.09" y2="224.7" xlink:href="#Degradado_sin_nombre_47"/><linearGradient id="Degradado_sin_nombre_47-18" x1="160.65" y1="217.9" x2="176.05" y2="217.9" xlink:href="#Degradado_sin_nombre_47"/><linearGradient id="Degradado_sin_nombre_47-19" x1="160.99" y1="218.78" x2="165.08" y2="218.78" xlink:href="#Degradado_sin_nombre_47"/><linearGradient id="Degradado_sin_nombre_47-20" x1="160.52" y1="233.13" x2="175.88" y2="233.13" xlink:href="#Degradado_sin_nombre_47"/><linearGradient id="Degradado_sin_nombre_37-23" x1="142.84" y1="206.39" x2="150.76" y2="206.39" xlink:href="#Degradado_sin_nombre_37"/><linearGradient id="Degradado_sin_nombre_37-24" x1="131.55" y1="196.07" x2="149.92" y2="196.07" xlink:href="#Degradado_sin_nombre_37"/><linearGradient id="Degradado_sin_nombre_37-25" x1="141.68" y1="224.48" x2="164.49" y2="224.48" xlink:href="#Degradado_sin_nombre_37"/><linearGradient id="Degradado_sin_nombre_37-26" x1="141.43" y1="220.09" x2="145.64" y2="220.09" xlink:href="#Degradado_sin_nombre_37"/><linearGradient id="Degradado_sin_nombre_37-27" x1="140.01" y1="220.41" x2="145.4" y2="220.41" xlink:href="#Degradado_sin_nombre_37"/><linearGradient id="Degradado_sin_nombre_25-2" x1="131.57" y1="201.5" x2="150.76" y2="201.5" xlink:href="#Degradado_sin_nombre_25"/><linearGradient id="Degradado_sin_nombre_47-21" x1="136.35" y1="222.59" x2="143.97" y2="222.59" xlink:href="#Degradado_sin_nombre_47"/><linearGradient id="Degradado_sin_nombre_47-22" x1="130.31" y1="231.57" x2="140.31" y2="231.57" xlink:href="#Degradado_sin_nombre_47"/><linearGradient id="Degradado_sin_nombre_37-28" x1="113.83" y1="205.84" x2="134.75" y2="205.84" xlink:href="#Degradado_sin_nombre_37"/><linearGradient id="Degradado_sin_nombre_47-23" x1="134.38" y1="233.1" x2="176.66" y2="233.1" xlink:href="#Degradado_sin_nombre_47"/><linearGradient id="Degradado_sin_nombre_47-24" x1="130.78" y1="233.4" x2="138.35" y2="233.4" xlink:href="#Degradado_sin_nombre_47"/><linearGradient id="Degradado_sin_nombre_47-25" x1="164.49" y1="220.79" x2="200.62" y2="220.79" xlink:href="#Degradado_sin_nombre_47"/><linearGradient id="Degradado_sin_nombre_37-29" x1="117.32" y1="206.39" x2="193.36" y2="206.39" xlink:href="#Degradado_sin_nombre_37"/><linearGradient id="Degradado_sin_nombre_47-26" x1="134.28" y1="232.99" x2="176.19" y2="232.99" xlink:href="#Degradado_sin_nombre_47"/></defs><title>svg4</title><g class="cls-1"><g id="Layer_1" data-name="Layer 1"><g class="cls-1"><g class="cls-2"><path class="cls-3" d="M144.17,93.37,79.73,280.67l-12,7.34L14.11,154.22a20.35,20.35,0,0,1-.76-14.09,13,13,0,0,1,5.43-7l11.9-7.3a11.45,11.45,0,0,1,3.1-1.38L71,114c.34,0,6.88-.46,9.82,6.75s8.44,7,12.92,5.75,13.1-3.68,13.54-3.82l8.52-2.39a9.86,9.86,0,0,0-.79-5.19c-2.54-6.47,1.62-9.52,2.72-10.2L129.3,97.8a.67.67,0,0,0,.16-.12l.11-.06a1,1,0,0,1,.17-.1l.26-.15Z" transform="translate(0.47 -10.09)"/><path class="cls-4" d="M269.88,301.84,182.91,553c-6-1.72-11.68-6.88-14.46-13.82l-13.16-32.81,12-7.35,83.9-243.81Z" transform="translate(0.47 -10.09)"/><path class="cls-5" d="M339,506.94l-12,7.34a10.84,10.84,0,0,1-3,1.32l-41.22,11.61,12-7.34,28.9-84,20,50C347.13,494.5,345,503.26,339,506.94Z" transform="translate(0.47 -10.09)"/><polygon class="cls-6" points="251.63 245.08 167.73 488.89 155.76 496.24 155.76 496.23 114.98 394.53 126.95 387.18 210.85 143.37 251.63 245.08"/><path class="cls-7" d="M210.38,153.46,126.47,397.27l-12,7.35L67.75,288l12-7.34,64.44-187.3L167,87c8.25-2.33,18.29,4,22.3,14Z" transform="translate(0.47 -10.09)"/><path class="cls-8" d="M323.64,435.9l-28.9,84-12,7.34-92,25.9a14.21,14.21,0,0,1-7.86-.15l87-251.12,4.78,11.92Z" transform="translate(0.47 -10.09)"/></g><polygon class="cls-9" points="176.47 92.03 179.21 98.87 177.76 99.28 177.17 99.45 174.43 92.61 175.02 92.44 176.47 92.03"/><path class="cls-9" d="M174,102.7l2.74,6.84.59-.17c.73,1.83.11,3.65-1.38,4.07L159,118.21c-1.49.42-3.3-.72-4-2.52l-2.76-6.87c-.73-1.82-.09-3.62,1.4-4L170.52,100c1.49-.42,3.3.7,4,2.52Zm2.16,7-2.75-6.87a2.09,2.09,0,0,0-2.28-1.43l-16.94,4.76a1.63,1.63,0,0,0-.78,2.3l2.75,6.87a2.08,2.08,0,0,0,2.28,1.42L175.33,112a1.6,1.6,0,0,0,.79-2.28" transform="translate(0.47 -10.09)"/><path class="cls-10" d="M106.91,117.06a1.76,1.76,0,0,1-.37.17l12-7.35a2.43,2.43,0,0,0,.37-.16Z" transform="translate(0.47 -10.09)"/><path class="cls-10" d="M106.54,117.23h0l12-7.35h0Z" transform="translate(0.47 -10.09)"/><path class="cls-10" d="M103.88,115.56a2,2,0,0,1,.56-2.5l12-7.35a2,2,0,0,0-.56,2.51,2.44,2.44,0,0,0,2.66,1.66l-12,7.35A2.44,2.44,0,0,1,103.88,115.56Z" transform="translate(0.47 -10.09)"/><path class="cls-10" d="M116.77,105.55a2.42,2.42,0,0,1,2.66,1.66,1.88,1.88,0,0,1-.92,2.67,2.44,2.44,0,0,1-2.66-1.66A1.89,1.89,0,0,1,116.77,105.55Z" transform="translate(0.47 -10.09)"/><path class="cls-11" d="M115.44,104.84c1.93-.54,4.22.82,5.11,3s0,4.46-1.88,5-4.22-.81-5.12-3S113.51,105.38,115.44,104.84Zm3.07,5a1.88,1.88,0,0,0,.92-2.67,2.42,2.42,0,0,0-2.66-1.66,1.88,1.88,0,0,0-.92,2.67,2.44,2.44,0,0,0,2.66,1.66" transform="translate(0.47 -10.09)"/><path class="cls-12" d="M96.22,121.83l12-7.35a1.32,1.32,0,0,0,.4-.18l-12,7.35A1.32,1.32,0,0,1,96.22,121.83Z" transform="translate(0.47 -10.09)"/><polygon class="cls-12" points="108.66 104.39 96.69 111.74 89.03 113.89 101 106.54 108.66 104.39"/><path class="cls-12" d="M85.33,117.07l12-7.35a2.18,2.18,0,0,0-.6,2.72l-12,7.35A2.18,2.18,0,0,1,85.33,117.07Z" transform="translate(0.47 -10.09)"/><polygon class="cls-12" points="98.14 104.75 86.17 112.1 85.2 109.7 97.17 102.35 98.14 104.75"/><path class="cls-12" d="M85.7,122.19l12-7.35a2.61,2.61,0,0,0,2.86,1.79l-12,7.35A2.61,2.61,0,0,1,85.7,122.19Z" transform="translate(0.47 -10.09)"/><path class="cls-12" d="M105.35,107.39a2.64,2.64,0,0,1,2.88,1.81l1,2.4c.52,1.29.08,2.58-1,2.88l-7.66,2.15a2.61,2.61,0,0,1-2.86-1.79l-1-2.4c-.51-1.29-.07-2.59,1-2.89Z" transform="translate(0.47 -10.09)"/><path class="cls-13" d="M163.23,76.39C175.31,73,190,82.18,195.87,96.83L358.32,502c5.87,14.65.79,29.41-11.29,32.81l-1.75.49-1.44-3.6c11-3.11,15.68-16.6,10.31-30l-6.76-16.86-155-386.59C187,84.83,173.59,76.43,162.55,79.54l-1.07-2.66Z" transform="translate(0.47 -10.09)"/><path class="cls-11" d="M87.36,112.46c2.16-.61,4.77,1,5.82,3.64s.14,5.22-2,5.83-4.75-1-5.79-3.63S85.22,113.06,87.36,112.46Z" transform="translate(0.47 -10.09)"/><polygon class="cls-9" points="36.36 130.42 39.83 139.08 37.89 139.62 34.42 130.97 36.36 130.42"/><polygon class="cls-9" points="40.21 122.17 38.27 122.71 44.37 137.94 46.31 137.39 40.21 122.17"/><polygon class="cls-9" points="42.27 118.47 49.5 136.49 47.55 137.04 40.32 119.01 42.27 118.47"/><polygon class="cls-9" points="38.37 126.58 43.02 138.18 41.07 138.73 36.42 127.13 38.37 126.58"/><polygon class="cls-9" points="34.39 134.29 36.66 139.97 34.73 140.51 32.45 134.83 34.39 134.29"/><path class="cls-13" d="M161.48,76.88l1.07,2.66L32.23,116.22c-11,3.11-15.69,16.6-10.32,30l155,386.58,6.76,16.86c5.37,13.4,18.8,21.8,29.84,18.69l130.32-36.68,1.44,3.6L212.6,572.6c-12.08,3.4-26.78-5.79-32.65-20.44L17.5,147c-5.87-14.65-.78-29.41,11.3-32.81Z" transform="translate(0.47 -10.09)"/><path class="cls-9" d="M161.33,74.23c13.81-3.89,30.52,6.57,37.23,23.31l161,401.59c6.71,16.74.93,33.52-12.88,37.4L213.92,573.91c-13.8,3.89-30.49-6.57-37.2-23.3L15.69,149c-6.71-16.73-.95-33.52,12.85-37.4ZM358.32,502,195.87,96.83C190,82.18,175.31,73,163.23,76.39l-1.75.49L28.8,114.23c-12.08,3.4-17.17,18.16-11.3,32.81L180,552.16c5.87,14.65,20.57,23.84,32.65,20.44l132.68-37.35,1.75-.49c12.08-3.4,17.16-18.16,11.29-32.81" transform="translate(0.47 -10.09)"/><polygon class="cls-14" points="175.94 540.87 163.97 548.22 2.94 146.63 14.91 139.28 175.94 540.87"/><path class="cls-14" d="M214.53,575.42l-12,7.35c-14.49,4.08-32-6.89-39.06-24.46l12-7.35C182.52,568.53,200,579.5,214.53,575.42Z" transform="translate(0.47 -10.09)"/><path class="cls-14" d="M360.84,498.78l-161-401.59c-7.05-17.58-24.59-28.56-39.08-24.48L27.94,110.09c-14.49,4.08-20.55,21.7-13.5,39.28L175.47,551c7.05,17.57,24.57,28.54,39.06,24.47l132.79-37.38C361.81,534,367.88,516.35,360.84,498.78Zm-14.13,37.75L213.92,573.91c-13.8,3.89-30.49-6.57-37.2-23.3L15.69,149c-6.71-16.74-.95-33.53,12.85-37.41L161.33,74.23c13.81-3.89,30.52,6.57,37.23,23.31l161,401.59c6.71,16.74.93,33.52-12.88,37.4" transform="translate(0.47 -10.09)"/><polygon class="cls-9" points="157.85 106.28 172.91 102.04 169.2 92.77 154.13 97.01 157.85 106.28"/><path class="cls-14" d="M352.68,535.71l-12,7.35a21,21,0,0,1-5.36,2.33l12-7.34A21.35,21.35,0,0,0,352.68,535.71Z" transform="translate(0.47 -10.09)"/><path class="cls-15" d="M71,114l59-16.6c-.3.16-5.82,3.12-3,10.35s-1.67,9.86-6.15,11.12l-13.55,3.82-13.53,3.81c-4.49,1.26-10,1.44-12.93-5.75S71.38,113.94,71,114Zm38.15-2.36-1-2.4a2.65,2.65,0,0,0-2.88-1.81l-7.66,2.16c-1.06.3-1.5,1.6-1,2.89l1,2.4a2.61,2.61,0,0,0,2.86,1.79l7.66-2.15c1.08-.3,1.52-1.59,1-2.88m-18,10.33c2.16-.61,3.06-3.23,2-5.83s-3.66-4.25-5.82-3.64-3,3.22-2,5.84,3.65,4.23,5.79,3.63m27.51-9c1.93-.55,2.78-2.78,1.88-5s-3.18-3.59-5.11-3-2.78,2.8-1.89,5,3.19,3.58,5.12,3" transform="translate(0.47 -10.09)"/><path class="cls-14" d="M10.61,119.77l12-7.35c-10.52,6.47-14.24,21.72-8.14,37l-12,7.35C-3.63,141.49.09,126.23,10.61,119.77Z" transform="translate(0.47 -10.09)"/><polygon class="cls-14" points="347.79 527.96 335.82 535.3 203.03 572.68 215 565.34 347.79 527.96"/><path class="cls-15" d="M162.55,79.54c11-3.11,24.46,5.29,29.82,18.67l155,386.59-3.73,1.05L189.31,100.92c-4-10-14.05-16.3-22.3-14L130,97.36,71,114,33.79,124.44c-8.26,2.33-11.73,12.42-7.72,22.43L79.72,280.66l46.76,116.61L167.26,499l13.16,32.82-3.5,1L21.91,146.2c-5.37-13.38-.72-26.87,10.32-30Z" transform="translate(0.47 -10.09)"/><path class="cls-15" d="M347.39,484.8l6.76,16.86c5.37,13.39.73,26.88-10.31,30L213.52,568.33c-11,3.11-24.47-5.29-29.84-18.69l-6.76-16.86,3.5-1c2.79,6.94,8.47,12.09,14.46,13.81a14.18,14.18,0,0,0,7.85.15l92-25.9L336,508.26c8.25-2.32,11.72-12.41,7.71-22.41Z" transform="translate(0.47 -10.09)"/></g><g class="cls-1"><path class="cls-13" d="M22.22,198.46l6-3.44c-1.7,1-2.38,3.37-1.49,5.75l-6,3.44C19.85,201.83,20.52,199.43,22.22,198.46Z" transform="translate(0.47 -10.09)"/><polygon class="cls-13" points="68.08 300.25 62.05 303.7 21.21 194.12 27.23 190.68 68.08 300.25"/><path class="cls-13" d="M74.4,313.87l-6,3.45a3.36,3.36,0,0,1-.8.33c-2.27.6-5-1.12-6-3.86l6-3.45c1,2.74,3.72,4.47,6,3.86A2.81,2.81,0,0,0,74.4,313.87Z" transform="translate(0.47 -10.09)"/><path class="cls-16" d="M74.39,313.86,28.25,195a2.73,2.73,0,0,1,.79-.32c2.28-.61,5,1.14,6,3.86L75.86,308.13C76.75,310.53,76.1,312.9,74.39,313.86Z" transform="translate(0.47 -10.09)"/><path class="cls-9" d="M74.39,313.86h0a2.93,2.93,0,0,1-.79.33c-2.27.61-5-1.12-6-3.85L26.75,200.76c-.89-2.37-.2-4.78,1.5-5.75Z" transform="translate(0.47 -10.09)"/></g><line class="cls-16" x1="72.4" y1="304.35" x2="72.4" y2="304.34"/><g class="cls-17"><polygon class="cls-18" points="268.26 84.01 309.64 195.02 217.53 219.7 176.15 108.69 268.26 84.01"/><polygon class="cls-19" points="155.21 114.3 196.6 225.31 104.49 249.99 63.11 138.98 155.21 114.3"/><polygon class="cls-20" points="316.94 214.08 358.33 325.09 266.22 349.77 224.84 238.76 316.94 214.08"/><polygon class="cls-21" points="203.91 244.37 245.29 355.38 153.18 380.06 111.79 269.05 203.91 244.37"/><polygon class="cls-22" points="365.44 344.19 406.83 455.2 314.72 479.88 273.34 368.87 365.44 344.19"/><polygon class="cls-23" points="252.41 374.48 293.79 485.49 201.68 510.17 160.29 399.16 252.41 374.48"/></g><g class="cls-1"><polygon class="cls-24" points="160.44 171.91 156.47 174.18 143.17 138.51 147.14 136.24 160.44 171.91"/><polygon class="cls-24" points="167.69 191.38 163.73 193.65 156.47 174.18 160.44 171.91 167.69 191.38"/><path class="cls-25" d="M146.4,178.52h0l4-2.26h0a20.44,20.44,0,0,1,4.68,2.56L160,182l-4,2.26,4-2.26h0l-4,2.27-4.91-3.19A20.89,20.89,0,0,0,146.4,178.52Z" transform="translate(0.47 -10.09)"/><path class="cls-26" d="M141.09,178.33h0l4-2.26h0a8.86,8.86,0,0,1,4.63,0h0l-4,2.26,4-2.26.69.21-4,2.26c-.34-.11-.51-.16-.68-.2A9,9,0,0,0,141.09,178.33Z" transform="translate(0.47 -10.09)"/><path class="cls-27" d="M140.14,178.64h0l4-2.27h0l-4,2.26,4-2.26c.31-.11.62-.22.94-.3l-4,2.26C140.77,178.42,140.45,178.52,140.14,178.64Z" transform="translate(0.47 -10.09)"/><path class="cls-28" d="M140.14,178.64a9.63,9.63,0,0,0-1.45.69l4-2.27a10.83,10.83,0,0,1,1.46-.69l-2,1.14-1,.58C140.78,178.28,140.47,178.48,140.14,178.64Z" transform="translate(0.47 -10.09)"/><polygon class="cls-29" points="143.26 197.93 139.3 200.19 138.99 199.36 142.95 197.09 143.26 197.93"/><polygon class="cls-30" points="167.69 191.38 163.73 193.65 139.3 200.19 143.26 197.93 167.69 191.38"/><path class="cls-31" d="M138.69,179.33l4-2.27a12,12,0,0,0-2.32,1.75c-.21.21-.42.42-.62.65-2.58,2.92-4.05,6.91-5.48,10.85-1,2.78-2,5.58-3,8.35l-4,2.27c1-2.77,2-5.57,3-8.36,1.44-3.94,2.9-7.93,5.49-10.85.2-.22.4-.43.62-.64A11.58,11.58,0,0,1,138.69,179.33Z" transform="translate(0.47 -10.09)"/><polygon class="cls-32" points="131.56 188.91 127.6 191.17 127.72 190.84 131.69 188.57 131.56 188.91"/><path class="cls-33" d="M142.48,207.18l-4,2.27c-3.73-2.86-7.54-5.61-11.4-8.19l4-2.26C134.94,201.57,138.75,204.33,142.48,207.18Z" transform="translate(0.47 -10.09)"/><path class="cls-34" d="M112.55,172.53l4-2.27c1.89,5.08.49,10.11-3.12,12.17l-4,2.27C113.05,182.64,114.45,177.6,112.55,172.53Z" transform="translate(0.47 -10.09)"/><path class="cls-35" d="M99.86,164.32a6.91,6.91,0,0,0-1.7.7l4-2.27a7.22,7.22,0,0,1,1.71-.7l-4,2.27,4-2.27c4.84-1.3,10.51,2.37,12.69,8.21l-4,2.27h0C110.38,166.68,104.71,163,99.86,164.32Z" transform="translate(0.47 -10.09)"/><path class="cls-36" d="M118,195.39c-3.15-1.91-6.62-3.79-9.71-3.11l4-2.26c3.1-.68,6.56,1.19,9.72,3.11s6.13,3.81,9.13,5.87l-4,2.26Q122.62,198.19,118,195.39Z" transform="translate(0.47 -10.09)"/><path class="cls-37" d="M108.28,192.28l-.25.06,4-2.26a1.05,1.05,0,0,1,.24-.06h0l-4,2.26Z" transform="translate(0.47 -10.09)"/><path class="cls-38" d="M108,192.34a6.55,6.55,0,0,0-1.42.59l4-2.26a5.39,5.39,0,0,1,1.42-.59A39,39,0,0,1,108,192.34Z" transform="translate(0.47 -10.09)"/><path class="cls-15" d="M98.16,165l4-2.27c-3.6,2.06-5,7.1-3.1,12.2l-4,2.26C93.16,172.11,94.56,167.07,98.16,165Z" transform="translate(0.47 -10.09)"/><path class="cls-15" d="M113.4,182.43l-4,2.27a7.06,7.06,0,0,1-1.72.7c-4.83,1.3-10.49-2.37-12.66-8.19L99,175c2.17,5.82,7.84,9.48,12.67,8.19A7.42,7.42,0,0,0,113.4,182.43Z" transform="translate(0.47 -10.09)"/><path class="cls-39" d="M103.83,162.05c4.84-1.3,10.51,2.37,12.69,8.21s0,11.58-4.83,12.88S101.19,180.77,99,175,99,163.35,103.83,162.05Z" transform="translate(0.47 -10.09)"/><path class="cls-40" d="M106.61,192.93l4-2.26a6.91,6.91,0,0,0-1,.66,14,14,0,0,0-2.7,3.11l-4,2.27a13.53,13.53,0,0,1,2.7-3.11A7.16,7.16,0,0,1,106.61,192.93Z" transform="translate(0.47 -10.09)"/><polygon class="cls-24" points="147.14 136.24 143.17 138.51 80.43 155.32 84.39 153.06 147.14 136.24"/><path class="cls-41" d="M100.88,208.62l-4,2.27a40.79,40.79,0,0,1,6-14.18l4-2.27A40.67,40.67,0,0,0,100.88,208.62Z" transform="translate(0.47 -10.09)"/><polygon class="cls-42" points="101.35 198.53 97.38 200.8 80.43 155.32 84.39 153.06 101.35 198.53"/><polygon class="cls-43" points="143.26 197.93 139.3 200.19 100.98 210.46 104.95 208.19 143.26 197.93"/><polygon class="cls-44" points="104.95 208.19 100.98 210.46 97.38 200.8 101.35 198.53 104.95 208.19"/><path class="cls-24" d="M78.78,160.3l70.8-19,23.78,63.79-70.8,19ZM160,182l-13.29-35.67L83.92,163.15l17,45.47,3.6,9.66L142.79,208l24.43-6.55L160,182" transform="translate(0.47 -10.09)"/><path class="cls-45" d="M145.05,176.07a8.86,8.86,0,0,1,4.63,0l.52.15.17.06a20.44,20.44,0,0,1,4.68,2.56L160,182l7.26,19.47L142.79,208l-.31-.84c-3.73-2.85-7.54-5.61-11.39-8.18l.12-.34c1-2.77,2-5.57,3-8.35,1.43-3.94,2.9-7.93,5.48-10.85.2-.23.41-.44.62-.65a11.42,11.42,0,0,1,3.78-2.44C144.42,176.26,144.73,176.15,145.05,176.07Z" transform="translate(0.47 -10.09)"/><path class="cls-46" d="M83.92,163.15l62.75-16.82L160,182l-4.91-3.18a20.44,20.44,0,0,0-4.68-2.56l-.69-.21a8.86,8.86,0,0,0-4.63,0c-.32.08-.63.19-.94.3a11.52,11.52,0,0,0-3.78,2.44c-.21.21-.42.42-.62.65-2.58,2.92-4.05,6.91-5.48,10.85-1,2.78-2,5.58-3,8.35l-.12.34c-3-2.06-6-4-9.13-5.87s-6.62-3.79-9.72-3.11a1.05,1.05,0,0,0-.24.06,6.38,6.38,0,0,0-2.39,1.25,14,14,0,0,0-2.7,3.11,40.67,40.67,0,0,0-6,14.18Zm27.77,20c4.84-1.3,7-7.06,4.83-12.88s-7.85-9.51-12.69-8.21-7,7-4.81,12.9,7.84,9.48,12.67,8.19" transform="translate(0.47 -10.09)"/><path class="cls-47" d="M112,190.08a1.05,1.05,0,0,1,.24-.06c3.1-.68,6.56,1.19,9.72,3.11s6.13,3.81,9.13,5.87c3.85,2.57,7.66,5.33,11.39,8.18l.31.84-38.31,10.26-3.6-9.66a40.67,40.67,0,0,1,6-14.18,14,14,0,0,1,2.7-3.11A6.38,6.38,0,0,1,112,190.08Z" transform="translate(0.47 -10.09)"/><polygon class="cls-15" points="103.03 214 99.06 216.27 75.28 152.47 79.25 150.21 103.03 214"/><polygon class="cls-15" points="173.83 195.03 169.87 197.29 99.06 216.27 103.03 214 173.83 195.03"/></g><g class="cls-1"><polygon class="cls-15" points="259.9 130.54 255.94 132.81 255.71 132.87 259.67 130.6 259.9 130.54"/><polygon class="cls-15" points="259.67 130.6 255.71 132.87 250.72 134.2 254.69 131.94 259.67 130.6"/><polygon class="cls-15" points="254.69 131.94 250.72 134.2 246.08 121.75 250.05 119.48 254.69 131.94"/><path class="cls-15" d="M279.72,192.51l-4,2.26a4.45,4.45,0,0,1-1.05.43l4-2.26A5.38,5.38,0,0,0,279.72,192.51Z" transform="translate(0.47 -10.09)"/><path class="cls-15" d="M249.57,129.57l-4,2.26c-2.33-6.25-8.46-10.2-13.65-8.81l4-2.27C241.12,119.36,247.24,123.32,249.57,129.57Z" transform="translate(0.47 -10.09)"/><polygon class="cls-15" points="236.4 110.66 232.44 112.93 223.14 115.42 227.11 113.16 236.4 110.66"/><polygon class="cls-15" points="262.35 174.94 249.76 155.25 249.78 155.25 262.35 174.94"/><path class="cls-15" d="M249.29,165.34l.19-.24a.69.69,0,0,1-.18.24Z" transform="translate(0.47 -10.09)"/><path class="cls-15" d="M220.83,126.26l4-2.26a8,8,0,0,1,1.83-.76l-4,2.27A8.07,8.07,0,0,0,220.83,126.26Z" transform="translate(0.47 -10.09)"/><path class="cls-15" d="M261.37,188.28l-3.85,2.2a1.76,1.76,0,0,0,.34-.25,2,2,0,0,0,.57-1.13l2.64-.71a1.27,1.27,0,0,0,.18-.06Z" transform="translate(0.47 -10.09)"/><path class="cls-15" d="M236.9,153.42l.38-.22,0,0a.9.9,0,0,0-.16.18h0l-.13.15c0,.05-.09.09-.1.14h0a4.52,4.52,0,0,0-.64.12l.12-.06a3.35,3.35,0,0,1,.36-.21Z" transform="translate(0.47 -10.09)"/><path class="cls-15" d="M237.65,153a2.43,2.43,0,0,1-.35.2s0,0,0,0A2.21,2.21,0,0,0,237.65,153Z" transform="translate(0.47 -10.09)"/><path class="cls-15" d="M236.3,153.77a3.35,3.35,0,0,1,.36-.21c-.09.06-.18.1-.24.15Z" transform="translate(0.47 -10.09)"/><path class="cls-15" d="M236.9,153.42l.38-.22,0,0C237.13,153.29,237,153.37,236.9,153.42Z" transform="translate(0.47 -10.09)"/><path class="cls-15" d="M237.65,153a2.43,2.43,0,0,1-.35.2s0,0,0,0A2.21,2.21,0,0,0,237.65,153Z" transform="translate(0.47 -10.09)"/><path class="cls-15" d="M261.37,188.28l-3.85,2.2a1.44,1.44,0,0,1-.42.18l.76-.43,3.21-1.84a1.27,1.27,0,0,0,.18-.06Z" transform="translate(0.47 -10.09)"/><path class="cls-15" d="M238.52,152.25a5.75,5.75,0,0,0-.63.42l-.09.07a4.07,4.07,0,0,0-.49.43s0,0,0,0h0l0,0a.9.9,0,0,0-.16.18h0l-.13.15c0,.05-.09.09-.1.14a.09.09,0,0,0-.06.06.06.06,0,0,0-.05.06h0a1.74,1.74,0,0,0-.18.22.13.13,0,0,0,0,.05,4.74,4.74,0,0,0-.36.58s0,0,0,0a.21.21,0,0,0-.06.1,2,2,0,0,0-.16.33,3.27,3.27,0,0,0-.14.33l0,0a1.43,1.43,0,0,0-.09.27,1.61,1.61,0,0,0-.09.26,5.2,5.2,0,0,0-.25,1.12,1.89,1.89,0,0,0-.06.47,2.91,2.91,0,0,0,0,.3,7.38,7.38,0,0,0,.12,1.92,8.25,8.25,0,0,0,.43,1.56l-4,2.26c-1.4-3.73-.15-7.54,2.79-9.2l3.57-2A3.54,3.54,0,0,1,238.52,152.25Z" transform="translate(0.47 -10.09)"/><path class="cls-15" d="M240.15,151.57l-2,1.13-.26.14-.26.15a2.43,2.43,0,0,1-.35.2h0l0,0c-.12.06-.23.14-.35.19l-.24.14c-.09.06-.18.1-.24.15l-.12.06-.12.06a6.75,6.75,0,0,0-1.56.65l3.57-2a3.54,3.54,0,0,1,.33-.19,3.15,3.15,0,0,1,.55-.28.91.91,0,0,1,.22-.11s0,0,.07,0l.17-.05.07,0A2.72,2.72,0,0,1,240.15,151.57Z" transform="translate(0.47 -10.09)"/><polygon class="cls-15" points="243.61 157.52 239.65 159.79 239.57 159.7 243.53 157.43 243.61 157.52"/><polygon class="cls-15" points="236.3 151.43 232.34 153.69 232.3 153.59 236.26 151.33 236.3 151.43"/><path class="cls-15" d="M243.06,167.52l-4,2.27a9.38,9.38,0,0,1-7.24-6l4-2.26A9.36,9.36,0,0,0,243.06,167.52Z" transform="translate(0.47 -10.09)"/><polygon class="cls-15" points="261.54 178.3 258.33 180.14 257.58 180.57 247.4 183.29 251.37 181.03 258.9 179.01 261.54 178.3"/><polygon class="cls-15" points="248.12 178.81 244.16 181.07 239.65 159.79 243.61 157.52 248.12 178.81"/><path class="cls-15" d="M237.65,153a2.43,2.43,0,0,1-.35.2s0,0,0,0a4.07,4.07,0,0,1,.49-.43l.09-.07a5.75,5.75,0,0,1,.63-.42,3.15,3.15,0,0,1,.55-.28.91.91,0,0,1,.22-.11s0,0,.07,0l.17-.05.07,0a2.72,2.72,0,0,1,.55-.18l-2,1.13-.26.14Z" transform="translate(0.47 -10.09)"/><path class="cls-48" d="M258.43,189.1l-7.54,2a2.75,2.75,0,0,1-3.12-1.81,1.86,1.86,0,0,1-.12-.42l-4.42-20.83-.09-.45-.08-.08a9.38,9.38,0,0,1-7.23-6l0-.1a8.25,8.25,0,0,1-.43-1.56,7.38,7.38,0,0,1-.12-1.92,2.91,2.91,0,0,1,0-.3c0-.16,0-.31.06-.47a7.94,7.94,0,0,1,.25-1.12,1.61,1.61,0,0,1,.09-.26,1.43,1.43,0,0,1,.09-.27l0,0a3.27,3.27,0,0,1,.14-.33,2,2,0,0,1,.16-.33.21.21,0,0,1,.06-.1s0,0,0,0a4.74,4.74,0,0,1,.36-.58s0,0,0-.05a1.74,1.74,0,0,1,.18-.22h0a.06.06,0,0,1,.05-.06.15.15,0,0,1,0-.06,1.49,1.49,0,0,1,.12-.14c0,.05-.09.09-.1.14a8.21,8.21,0,0,1,1-.11,8.35,8.35,0,0,1,4.34,1.18,9.77,9.77,0,0,1,4.22,5l0,.09a7.73,7.73,0,0,1-1.07,7.72l0,0L258,187.48a2.77,2.77,0,0,1,.24.49A2.35,2.35,0,0,1,258.43,189.1Z" transform="translate(0.47 -10.09)"/><path class="cls-15" d="M250.89,191.12l-4,2.27a2.75,2.75,0,0,1-3.12-1.81,2.58,2.58,0,0,1-.13-.42l4-2.26a2.85,2.85,0,0,0,3.24,2.22Z" transform="translate(0.47 -10.09)"/><path class="cls-15" d="M217.48,120.39l4-2.27c-6,3.44-8.39,11.89-5.23,20.39l-4,2.26C209.09,132.28,211.46,123.83,217.48,120.39Z" transform="translate(0.47 -10.09)"/><polygon class="cls-15" points="226.56 139.47 222.59 141.74 217.55 143.09 221.51 140.83 226.56 139.47"/><polygon class="cls-15" points="221.34 140.87 217.37 143.14 212.73 130.68 216.69 128.42 221.34 140.87"/><polygon class="cls-15" points="221.51 140.83 217.55 143.09 217.37 143.14 221.34 140.87 221.51 140.83"/><path class="cls-15" d="M216.06,153.6l4-2.26c-2.21,1.26-3.08,4.37-1.92,7.48l-4,2.26C213,158,213.84,154.87,216.06,153.6Z" transform="translate(0.47 -10.09)"/><path class="cls-49" d="M236.18,153.83a6.75,6.75,0,0,0-1.56.65c-2.94,1.66-4.19,5.47-2.79,9.2l4-2.26a8.25,8.25,0,0,1-.43-1.56,7.38,7.38,0,0,1-.12-1.92,2.91,2.91,0,0,1,0-.3,1.89,1.89,0,0,1,.06-.47,5.2,5.2,0,0,1,.25-1.12,1.61,1.61,0,0,1,.09-.26,1.43,1.43,0,0,1,.09-.27l0,0a3.27,3.27,0,0,1,.14-.33,2,2,0,0,1,.16-.33.21.21,0,0,1,.06-.1s0,0,0,0a4.74,4.74,0,0,1,.36-.58.13.13,0,0,1,0-.05,1.74,1.74,0,0,1,.18-.22h0a.06.06,0,0,1,.05-.06.15.15,0,0,1,0-.06A4.52,4.52,0,0,0,236.18,153.83ZM281.62,185,267,145.73c-1.31-3.48-4.67-5.74-7.61-5.07h0a.9.9,0,0,0-.16,0l-5,1.34-4.37,1.17-11.14,3-12.63,3.39h0l-5,1.35-.22.08h0a4.22,4.22,0,0,0-.89.41,2.41,2.41,0,0,0-.4.29.63.63,0,0,0-.13.11s0,0,0,0l-.06,0-.1.1s0,0,0,0l-.15.15a2.42,2.42,0,0,0-.25.31,2.8,2.8,0,0,0-.24.33s0,0,0,0a4.14,4.14,0,0,0-.3.5,4.08,4.08,0,0,0-.18.42.67.67,0,0,0-.06.15c0,.07,0,.13-.07.2s0,0,0,.06c-.06.18-.1.37-.15.57a5.4,5.4,0,0,0-.09.58,6.28,6.28,0,0,0,0,.75c0,.23,0,.45,0,.69a4.63,4.63,0,0,0,.07.52c0,.16.06.34.11.52s.09.33.13.5l.18.54,14.65,39.3c1.34,3.58,4.83,5.83,7.8,5l8.4-2.24v0l10.16-2.72,19.56-5.23a4.63,4.63,0,0,0,1.05-.43C281.93,191.23,282.78,188.14,281.62,185Zm-19.28,2a.56.56,0,0,1-.08.27.83.83,0,0,0,0,.12.45.45,0,0,1-.06.12.82.82,0,0,1-.11.17l0,0a1.42,1.42,0,0,1-.4.41l-.15.08a.33.33,0,0,1-.1.06l-.12.05a1.27,1.27,0,0,1-.18.06l-2.64.71-7.54,2a2.75,2.75,0,0,1-3.12-1.81,1.86,1.86,0,0,1-.12-.42l-4.42-20.83-.09-.45-.08-.08a9.38,9.38,0,0,1-7.23-6l0-.1a8.25,8.25,0,0,1-.43-1.56,7.38,7.38,0,0,1-.12-1.92,2.91,2.91,0,0,1,0-.3,1.89,1.89,0,0,1,.06-.47,7.94,7.94,0,0,1,.25-1.12,1.61,1.61,0,0,1,.09-.26,1.43,1.43,0,0,1,.09-.27l0,0a3.27,3.27,0,0,1,.14-.33,2,2,0,0,1,.16-.33.21.21,0,0,1,.06-.1s0,0,0,0a4.74,4.74,0,0,1,.36-.58.13.13,0,0,1,0-.05,1.74,1.74,0,0,1,.18-.22h0a.06.06,0,0,1,.05-.06.15.15,0,0,1,0-.06,1.49,1.49,0,0,1,.12-.14l.13-.15h0a.9.9,0,0,1,.16-.18l0,0h0s0,0,0,0a4.07,4.07,0,0,1,.49-.43l.09-.07.3-.23a3.54,3.54,0,0,1,.33-.19,3.15,3.15,0,0,1,.55-.28l.29-.14.17-.05.07,0c.18-.08.37-.12.55-.18a7.14,7.14,0,0,1,1.66-.23,8.3,8.3,0,0,1,4.34,1.18,9.62,9.62,0,0,1,4.22,5l0,.1a8.36,8.36,0,0,1,.54,3.7,7.76,7.76,0,0,1-.4,1.88,5.5,5.5,0,0,1-.24.58h0c-.05.09-.09.18-.15.27s-.09.18-.13.27h0a3.7,3.7,0,0,1-.21.33,1.88,1.88,0,0,1-.12.18h0a1.22,1.22,0,0,1-.2.25.69.69,0,0,1-.18.24L261.87,185l.14.19a2.69,2.69,0,0,1,.24.48,2.47,2.47,0,0,1,.13,1.1C262.36,186.87,262.36,187,262.34,187Zm-26.54-25.6-4,2.26,0,.1,4-2.26Z" transform="translate(0.47 -10.09)"/><path class="cls-50" d="M262.38,186.8c0,.07,0,.15,0,.22a.56.56,0,0,1-.08.27.83.83,0,0,0,0,.12.45.45,0,0,1-.06.12.82.82,0,0,1-.11.17l0,0a1.42,1.42,0,0,1-.4.41l-.15.08a.33.33,0,0,1-.1.06l-.12.05a1.27,1.27,0,0,1-.18.06l-2.64.71a2.35,2.35,0,0,0-.15-1.13,2.77,2.77,0,0,0-.24-.49l-12.7-19.87,0,0a7.73,7.73,0,0,0,1.07-7.72l0-.09a9.77,9.77,0,0,0-4.22-5,8.35,8.35,0,0,0-4.34-1.18,8.21,8.21,0,0,0-1,.11c0-.05.06-.09.1-.14a.61.61,0,0,1,.13-.15h0a.9.9,0,0,1,.16-.18l0,0h0a2.43,2.43,0,0,0,.35-.2l.26-.15.26-.14,2-1.13a7.14,7.14,0,0,1,1.66-.23,8.3,8.3,0,0,1,4.34,1.18,9.62,9.62,0,0,1,4.22,5l0,.1a8.36,8.36,0,0,1,.54,3.7,7.76,7.76,0,0,1-.4,1.88,5.5,5.5,0,0,1-.24.58h0a1.66,1.66,0,0,1-.13.27c0,.09-.09.18-.13.27h0s0,0,0,0l-.19.33a.94.94,0,0,0-.12.18h0a1.22,1.22,0,0,1-.2.25l-.19.24L261.87,185l.14.19a2.69,2.69,0,0,1,.24.48A2.47,2.47,0,0,1,262.38,186.8Z" transform="translate(0.47 -10.09)"/><path class="cls-51" d="M233.58,114.46c8.07-2.16,17.58,4,21.2,13.71l4.65,12.46-.23.06-5,1.34-4.65-12.46c-2.33-6.25-8.45-10.21-13.64-8.82l-9.3,2.49c-5.2,1.4-7.52,7.61-5.19,13.87l4.65,12.45L221,150.92l-.17,0-4.65-12.45c-3.62-9.73,0-19.39,8.07-21.56Z" transform="translate(0.47 -10.09)"/><polygon class="cls-15" points="279.14 182.85 275.17 185.11 237.05 195.32 241.02 193.06 279.14 182.85"/><polygon class="cls-15" points="233.22 188.03 229.25 190.29 214.6 150.99 218.57 148.73 233.22 188.03"/><path class="cls-15" d="M240.55,203.15l-4,2.27c-3,.79-6.46-1.46-7.8-5l4-2.26C234.08,201.7,237.58,204,240.55,203.15Z" transform="translate(0.47 -10.09)"/></g><g class="cls-1"><path class="cls-15" d="M208.59,327.89l4.13-2-.15.08L208.44,328Z" transform="translate(0.47 -10.09)"/><polygon class="cls-15" points="209.75 330.61 205.62 332.56 194.11 292.28 198.24 290.33 209.75 330.61"/><path class="cls-15" d="M232.62,350.68l-4.12,1.95a16.76,16.76,0,0,1-4,1.27c-8.49,1.56-17.16-3.48-19.38-11.25l4.13-1.95c2.22,7.77,10.89,12.8,19.38,11.25A16.54,16.54,0,0,0,232.62,350.68Z" transform="translate(0.47 -10.09)"/><polygon class="cls-15" points="198.24 290.33 194.11 292.28 158.99 298.77 163.12 296.82 198.24 290.33"/><path class="cls-15" d="M148.46,286l4.13-2c-2.71,1.28-4,4.82-2.93,8.59l-4.13,1.95C144.46,290.8,145.75,287.26,148.46,286Z" transform="translate(0.47 -10.09)"/><polygon class="cls-15" points="169.67 350.91 165.55 352.86 146 284.48 150.13 282.52 169.67 350.91"/><path class="cls-15" d="M192.7,371.52l-4.13,2a16.06,16.06,0,0,1-4,1.28c-8.48,1.57-17.16-3.48-19.39-11.27l-.14-.53L169.2,361c0,.18.09.35.14.53,2.23,7.79,10.91,12.83,19.39,11.26A15.77,15.77,0,0,0,192.7,371.52Z" transform="translate(0.47 -10.09)"/><path class="cls-52" d="M153.86,283.62l37.85-7c3.52-.64,7.35,2.27,8.62,6.49L212.57,326a48,48,0,0,1,8.05-2.23c8.49-1.56,17.17,3.47,19.39,11.25s-2.87,15.34-11.35,16.92-17.16-3.48-19.38-11.25l-11.51-40.28-35.13,6.49,11.12,38.93,6.92-1.22c8.5-1.56,17.18,3.47,19.4,11.25s-2.86,15.35-11.35,16.92-17.16-3.47-19.39-11.26c-.05-.18-.1-.35-.14-.53l-19.54-68.38C148.43,288.3,150.31,284.28,153.86,283.62Z" transform="translate(0.47 -10.09)"/></g><g class="cls-1"><polygon class="cls-24" points="306.53 237.69 302.57 239.96 302.31 239.26 306.27 237 306.53 237.69"/><path class="cls-24" d="M305.8,247.09l-4,2.26a.41.41,0,0,0-.45-.29l4-2.26A.39.39,0,0,1,305.8,247.09Z" transform="translate(0.47 -10.09)"/><path class="cls-24" d="M306,248.21l-4,2.27a.35.35,0,0,0,.11-.43l4-2.27A.33.33,0,0,1,306,248.21Z" transform="translate(0.47 -10.09)"/><path class="cls-53" d="M306,248.21l-4,2.27-.06,0,4-2.26Z" transform="translate(0.47 -10.09)"/><polygon class="cls-24" points="323.26 261.87 319.3 264.14 315.58 265.13 319.55 262.87 323.26 261.87"/><polygon class="cls-24" points="310.05 247.12 306.08 249.38 305.82 248.67 309.78 246.41 310.05 247.12"/><path class="cls-24" d="M309.31,256.5l-4,2.26a.43.43,0,0,0-.45-.29l4-2.26A.4.4,0,0,1,309.31,256.5Z" transform="translate(0.47 -10.09)"/><path class="cls-24" d="M309.46,257.64l-4,2.26a.35.35,0,0,0,.11-.43l4-2.26A.34.34,0,0,1,309.46,257.64Z" transform="translate(0.47 -10.09)"/><path class="cls-53" d="M309.46,257.64l-4,2.26-.06,0,4-2.27A.08.08,0,0,0,309.46,257.64Z" transform="translate(0.47 -10.09)"/><polygon class="cls-24" points="319.55 262.87 315.58 265.13 306.06 254.98 310.02 252.72 319.55 262.87"/><polygon class="cls-54" points="270.92 266.09 266.95 268.36 266.62 265.55 270.58 263.28 270.92 266.09"/><polygon class="cls-24" points="310.02 252.72 306.06 254.98 266.62 265.55 270.58 263.28 310.02 252.72"/><path class="cls-53" d="M252,262.31l4-2.26a.33.33,0,0,0-.11.43l-4,2.26A.35.35,0,0,1,252,262.31Z" transform="translate(0.47 -10.09)"/><path class="cls-53" d="M305.35,246.8a.39.39,0,0,1,.45.29l.26.69a.32.32,0,0,1-.17.46l-49.35,13.22a.4.4,0,0,1-.45-.29l-.26-.69c-.08-.22,0-.41.17-.46Z" transform="translate(0.47 -10.09)"/><path class="cls-53" d="M256.54,261.46l-4,2.27a.41.41,0,0,1-.45-.29l4-2.27A.4.4,0,0,0,256.54,261.46Z" transform="translate(0.47 -10.09)"/><path class="cls-24" d="M252,262.31l4-2.26.06,0-4,2.27Z" transform="translate(0.47 -10.09)"/><polygon class="cls-53" points="256.56 251.08 252.6 253.35 252.34 252.65 256.3 250.39 256.56 251.08"/><path class="cls-53" d="M255.48,271.72l4-2.26a.34.34,0,0,0-.11.43l-4,2.26A.36.36,0,0,1,255.48,271.72Z" transform="translate(0.47 -10.09)"/><path class="cls-53" d="M308.86,256.21a.4.4,0,0,1,.45.29l.26.71a.31.31,0,0,1-.17.45l-49.35,13.23a.43.43,0,0,1-.45-.29l-.26-.71a.33.33,0,0,1,.17-.46Z" transform="translate(0.47 -10.09)"/><path class="cls-53" d="M260.05,270.89l-4,2.26a.4.4,0,0,1-.45-.29l4-2.26A.43.43,0,0,0,260.05,270.89Z" transform="translate(0.47 -10.09)"/><path class="cls-24" d="M255.48,271.72l4-2.26.06,0-4,2.27Z" transform="translate(0.47 -10.09)"/><polygon class="cls-53" points="260.07 260.51 256.11 262.77 255.84 262.06 259.81 259.8 260.07 260.51"/><polygon class="cls-55" points="274.93 302.37 270.97 304.63 266.95 268.36 270.92 266.09 274.93 302.37"/><polygon class="cls-56" points="277.08 321.64 273.11 323.91 270.97 304.63 274.93 302.37 277.08 321.64"/><path class="cls-24" d="M247.23,253l62.25-16.68L322.79,272l-3.71,1-9.53-10.15-39.44,10.56.33,2.81,4,36.28,2.13,19.22-19.39-52Zm62.34,4.26-.26-.71a.4.4,0,0,0-.45-.29l-49.35,13.22a.33.33,0,0,0-.17.46l.26.71a.43.43,0,0,0,.45.29l49.35-13.23a.31.31,0,0,0,.17-.45m-3.51-9.43-.26-.69a.39.39,0,0,0-.45-.29L256,260c-.18.05-.25.24-.17.46l.26.69a.4.4,0,0,0,.45.29l49.35-13.22a.32.32,0,0,0,.17-.46" transform="translate(0.47 -10.09)"/><polygon class="cls-24" points="277.06 321.59 273.09 323.86 253.71 271.89 257.68 269.63 277.06 321.59"/><polygon class="cls-57" points="278.32 332.82 274.35 335.09 273.11 323.91 277.08 321.64 278.32 332.82"/><polygon class="cls-15" points="278.32 332.82 274.35 335.09 243.43 274.65 247.39 272.38 278.32 332.82"/><polygon class="cls-58" points="310.02 252.72 319.55 262.87 323.27 261.87 352.01 254.17 355.64 312.11 278.32 332.82 277.08 321.64 274.93 302.37 270.92 266.09 270.58 263.28 310.02 252.72"/><polygon class="cls-59" points="355.64 312.11 351.67 314.37 274.35 335.09 278.32 332.82 355.64 312.11"/><polygon class="cls-60" points="257.68 269.63 277.06 321.63 278.32 332.82 247.39 272.38 257.68 269.63"/></g><g class="cls-1"><path class="cls-53" d="M364.39,469.81l-3.18,3.28a1.26,1.26,0,0,1-.24.2l3.18-3.28A1.26,1.26,0,0,0,364.39,469.81Z" transform="translate(0.47 -10.09)"/><path class="cls-15" d="M364.15,470,361,473.29a117.81,117.81,0,0,0-2.4-19.7l3.18-3.28A117.94,117.94,0,0,1,364.15,470Z" transform="translate(0.47 -10.09)"/><path class="cls-15" d="M302.73,387.65l3.18-3.28c-12.08,12.44-12.77,32.95-.47,49.54,13.61,18.35,38.18,25.29,56.31,16.4l-3.18,3.28c-18.13,8.89-42.7,2-56.31-16.4C290,420.6,290.65,400.09,302.73,387.65Z" transform="translate(0.47 -10.09)"/><path class="cls-61" d="M312.71,379c18.3-11,44.74-4.38,59,14.91,10.73,14.46,11.58,31.92,3.62,44.39-.15,2.45-.38,4.86-.67,7.24-1.07,8.2-9,23.54-10.55,24.49a117.94,117.94,0,0,0-2.4-19.7c-18.13,8.89-42.7,1.95-56.31-16.4C291.14,414.62,294.4,390,312.71,379Z" transform="translate(0.47 -10.09)"/></g><g class="cls-1"><path class="cls-15" d="M231.84,448.74l-4,2.26c5.17-2.95,7.18-10.18,4.47-17.46-3.12-8.36-11.25-13.62-18.18-11.76a10.86,10.86,0,0,0-2.45,1l4-2.26a9.93,9.93,0,0,1,2.44-1c6.93-1.86,15.07,3.4,18.18,11.75C239,438.56,237,445.78,231.84,448.74Z" transform="translate(0.47 -10.09)"/><path class="cls-15" d="M201.67,405.24l4-2.26c-11.58,6.62-16.1,22.84-10,39.19,0,0,.09.23.53,1.3l-4,2.26c-.45-1.07-.53-1.28-.53-1.29C185.56,428.09,190.08,411.87,201.67,405.24Z" transform="translate(0.47 -10.09)"/><polygon class="cls-15" points="196.74 433.65 192.77 435.91 192.66 435.64 196.62 433.38 196.74 433.65"/><polygon class="cls-15" points="196.96 434.15 192.99 436.42 192.77 435.91 196.74 433.65 196.96 434.15"/><path class="cls-15" d="M197.55,446.59l-4,2.27c-.43-.93-.78-1.71-1.07-2.35l4-2.27C196.77,444.89,197.12,445.67,197.55,446.59Z" transform="translate(0.47 -10.09)"/><path class="cls-15" d="M197.88,447.24l-4,2.27c-.16-.31-.24-.5-.32-.65l4-2.27C197.64,446.75,197.72,446.93,197.88,447.24Z" transform="translate(0.47 -10.09)"/><path class="cls-15" d="M247.73,499l-4,2.26a121.31,121.31,0,0,1-49.86-51.7l4-2.27A121.27,121.27,0,0,0,247.73,499Z" transform="translate(0.47 -10.09)"/><path class="cls-62" d="M251.9,427.09c9.56,23.4-3.48,69.44-4.17,71.86a121.27,121.27,0,0,1-49.85-51.71c-.16-.31-.24-.49-.33-.65-.43-.92-.78-1.7-1.06-2.35l-.23-.5-.11-.27c-.44-1.07-.52-1.29-.53-1.3-7-18.72,0-37.28,15.5-41.44S244.92,408.37,251.9,427.09Zm-22.51,22.65c6.93-1.86,10-10.12,6.91-18.47s-11.25-13.61-18.18-11.75-10,10.12-6.9,18.47,11.25,13.61,18.17,11.75" transform="translate(0.47 -10.09)"/></g><g class="cls-1"><polygon class="cls-24" points="193.83 200.82 189.87 203.09 176.57 167.42 180.54 165.15 193.83 200.82"/><polygon class="cls-24" points="201.09 220.29 197.13 222.56 189.87 203.09 193.83 200.82 201.09 220.29"/><path class="cls-63" d="M179.8,207.43h0l4-2.26h0a20.27,20.27,0,0,1,4.68,2.56c1.65,1.06,3.26,2.11,4.9,3.18l-3.95,2.26,3.95-2.26h0l-4,2.27L184.49,210A20.89,20.89,0,0,0,179.8,207.43Z" transform="translate(0.47 -10.09)"/><path class="cls-64" d="M174.49,207.24h0l4-2.26h0a8.86,8.86,0,0,1,4.63,0h0l-4,2.26,4-2.26a6.9,6.9,0,0,1,.69.21l-4,2.26-.68-.21A9,9,0,0,0,174.49,207.24Z" transform="translate(0.47 -10.09)"/><path class="cls-65" d="M173.54,207.55h0l4-2.27h0l-4,2.26,4-2.26a7.35,7.35,0,0,1,.94-.3l-4,2.26A9.59,9.59,0,0,0,173.54,207.55Z" transform="translate(0.47 -10.09)"/><path class="cls-66" d="M173.54,207.55a10.22,10.22,0,0,0-1.46.69l4-2.27a10.11,10.11,0,0,1,1.45-.69l-2,1.13-1,.59C174.18,207.18,173.87,207.39,173.54,207.55Z" transform="translate(0.47 -10.09)"/><polygon class="cls-67" points="176.66 226.84 172.7 229.1 172.39 228.27 176.35 226 176.66 226.84"/><polygon class="cls-68" points="201.09 220.29 197.13 222.56 172.7 229.1 176.66 226.84 201.09 220.29"/><path class="cls-69" d="M172.08,208.24l4-2.27a11.58,11.58,0,0,0-2.32,1.75c-.21.21-.42.42-.62.64-2.58,2.93-4.05,6.91-5.48,10.85-1,2.79-2,5.59-3,8.36l-4,2.27q1.51-4.17,3-8.36c1.44-3.94,2.9-7.93,5.49-10.85.2-.22.4-.44.62-.64A11.81,11.81,0,0,1,172.08,208.24Z" transform="translate(0.47 -10.09)"/><polygon class="cls-70" points="164.96 217.81 161 220.08 161.12 219.75 165.09 217.48 164.96 217.81"/><path class="cls-71" d="M175.88,236.09l-4,2.27c-3.74-2.86-7.54-5.61-11.4-8.19l4-2.27C168.34,230.48,172.15,233.24,175.88,236.09Z" transform="translate(0.47 -10.09)"/><path class="cls-72" d="M146,201.43l4-2.26c1.89,5.08.49,10.11-3.12,12.17l-4,2.27C146.45,211.54,147.85,206.51,146,201.43Z" transform="translate(0.47 -10.09)"/><path class="cls-73" d="M133.26,193.23a7.56,7.56,0,0,0-1.71.69l4-2.26a6.91,6.91,0,0,1,1.7-.7l-4,2.27,4-2.27c4.85-1.3,10.52,2.36,12.7,8.21l-4,2.26h0C143.77,195.59,138.11,191.93,133.26,193.23Z" transform="translate(0.47 -10.09)"/><path class="cls-74" d="M151.39,224.3c-3.15-1.91-6.62-3.79-9.71-3.11l4-2.27c3.1-.67,6.56,1.2,9.72,3.12s6.13,3.81,9.13,5.86l-4,2.27Q156,227.1,151.39,224.3Z" transform="translate(0.47 -10.09)"/><path class="cls-75" d="M141.68,221.19l-.25.06,4-2.27.24-.06h0l-4,2.27Z" transform="translate(0.47 -10.09)"/><path class="cls-76" d="M141.43,221.25a6.35,6.35,0,0,0-1.42.59l4-2.26a6,6,0,0,1,1.43-.6A39.06,39.06,0,0,1,141.43,221.25Z" transform="translate(0.47 -10.09)"/><path class="cls-15" d="M131.55,193.92l4-2.26c-3.6,2.06-5,7.09-3.1,12.2l-4,2.26C126.55,201,128,196,131.55,193.92Z" transform="translate(0.47 -10.09)"/><path class="cls-15" d="M146.8,211.34l-4,2.27a7.06,7.06,0,0,1-1.72.7c-4.83,1.29-10.49-2.37-12.66-8.19l4-2.26c2.17,5.81,7.84,9.48,12.66,8.19A7.32,7.32,0,0,0,146.8,211.34Z" transform="translate(0.47 -10.09)"/><path class="cls-77" d="M137.22,191c4.85-1.3,10.52,2.36,12.7,8.21s0,11.58-4.84,12.88-10.49-2.38-12.66-8.19S132.4,192.25,137.22,191Z" transform="translate(0.47 -10.09)"/><path class="cls-78" d="M140,221.84l4-2.26a7.45,7.45,0,0,0-1,.66,14,14,0,0,0-2.7,3.11l-4,2.26A13.92,13.92,0,0,1,139,222.5,7.89,7.89,0,0,1,140,221.84Z" transform="translate(0.47 -10.09)"/><polygon class="cls-24" points="180.54 165.15 176.57 167.42 113.83 184.23 117.79 181.96 180.54 165.15"/><path class="cls-79" d="M134.28,237.53l-4,2.27a40.73,40.73,0,0,1,6-14.19l4-2.26A40.67,40.67,0,0,0,134.28,237.53Z" transform="translate(0.47 -10.09)"/><polygon class="cls-80" points="134.75 227.44 130.78 229.71 113.83 184.23 117.79 181.96 134.75 227.44"/><polygon class="cls-81" points="176.66 226.84 172.7 229.1 134.38 239.37 138.35 237.1 176.66 226.84"/><polygon class="cls-82" points="138.35 237.1 134.38 239.37 130.78 229.71 134.75 227.44 138.35 237.1"/><path class="cls-24" d="M112.18,189.21l70.8-19L206.76,234,136,253Zm81.18,21.7-13.29-35.67-62.75,16.81,17,45.48,3.6,9.66,38.31-10.26,24.43-6.55-7.26-19.47" transform="translate(0.47 -10.09)"/><path class="cls-83" d="M178.45,205a8.86,8.86,0,0,1,4.63,0,4.91,4.91,0,0,1,.51.15l.18.06a20.27,20.27,0,0,1,4.68,2.56l4.91,3.18,7.26,19.47-24.43,6.55-.31-.84c-3.73-2.85-7.54-5.61-11.39-8.19l.12-.33c1-2.77,2-5.57,3-8.36,1.43-3.94,2.9-7.92,5.48-10.85.2-.22.41-.43.62-.64a11.48,11.48,0,0,1,3.77-2.44A8,8,0,0,1,178.45,205Z" transform="translate(0.47 -10.09)"/><path class="cls-84" d="M117.32,192.05l62.75-16.81,13.29,35.67-4.91-3.18a20.27,20.27,0,0,0-4.68-2.56,6.9,6.9,0,0,0-.69-.21,8.86,8.86,0,0,0-4.63,0,8,8,0,0,0-.95.3,11.32,11.32,0,0,0-3.77,2.44c-.21.21-.42.42-.62.64-2.58,2.93-4.05,6.91-5.48,10.85-1,2.79-2,5.59-3,8.36l-.12.33c-3-2.05-6.05-4-9.13-5.86s-6.62-3.79-9.72-3.12l-.24.06a6.54,6.54,0,0,0-2.39,1.26,14,14,0,0,0-2.7,3.11,40.67,40.67,0,0,0-6,14.18Zm27.76,20c4.85-1.3,7-7.06,4.84-12.88s-7.85-9.51-12.7-8.21-7,7-4.8,12.9,7.84,9.48,12.66,8.19" transform="translate(0.47 -10.09)"/><path class="cls-85" d="M145.4,219l.24-.06c3.1-.67,6.56,1.2,9.72,3.12s6.13,3.81,9.13,5.86c3.85,2.58,7.66,5.34,11.39,8.19l.31.84-38.31,10.26-3.6-9.66a40.67,40.67,0,0,1,6-14.18,14,14,0,0,1,2.7-3.11A6.54,6.54,0,0,1,145.4,219Z" transform="translate(0.47 -10.09)"/><polygon class="cls-15" points="136.43 242.91 132.46 245.17 108.68 181.38 112.65 179.12 136.43 242.91"/><polygon class="cls-15" points="207.23 223.94 203.26 226.2 132.46 245.17 136.43 242.91 207.23 223.94"/></g><g class="cls-86"><circle class="cls-9" cx="84.63" cy="61.2" r="10"/><path class="cls-9" d="M108.29,49.52a6.37,6.37,0,0,1-1.1,2.56,6.49,6.49,0,0,1-9,1.47c-6.22-4.49-13.21-6-19.72-4.35l-.3.08C71.67,51.15,66.44,56,63.37,63.07a6.44,6.44,0,0,1-4.15,3.63,6.51,6.51,0,0,1-4.38-.28,6.58,6.58,0,0,1-2.26-1.64,6.48,6.48,0,0,1-1.09-6.9c.47-1.09,1-2.14,1.54-3.16,4.8-9,12.35-15.27,21.56-17.91l.15,0,.11,0,.11,0,.15,0c9.27-2.42,19-.85,27.68,4.42,1,.6,2,1.25,2.93,1.94A6.48,6.48,0,0,1,108.29,49.52Z" transform="translate(0.47 -10.09)"/><path class="cls-9" d="M120.54,27.38a6.54,6.54,0,0,1-1,2.59,6.48,6.48,0,0,1-7.38,2.58,6.53,6.53,0,0,1-1.62-.78C98.15,23.5,84.35,21,71.69,24.78l-.22.06C58.66,28.06,48.06,37.21,41.62,50.63a6,6,0,0,1-1,1.5A6.46,6.46,0,0,1,33,53.67,6.25,6.25,0,0,1,30.77,52,6.49,6.49,0,0,1,29.93,45C38,28.16,51.54,16.57,68.05,12.33h0l.22-.06h0c16.35-4.76,33.9-1.67,49.45,8.72A6.48,6.48,0,0,1,120.54,27.38Z" transform="translate(0.47 -10.09)"/></g></g></g></svg>